%TF.GenerationSoftware,KiCad,Pcbnew,(6.0.2)*%
%TF.CreationDate,2022-04-27T16:44:08+02:00*%
%TF.ProjectId,Varte vitrine,56617274-6520-4766-9974-72696e652e6b,rev?*%
%TF.SameCoordinates,Original*%
%TF.FileFunction,Legend,Bot*%
%TF.FilePolarity,Positive*%
%FSLAX46Y46*%
G04 Gerber Fmt 4.6, Leading zero omitted, Abs format (unit mm)*
G04 Created by KiCad (PCBNEW (6.0.2)) date 2022-04-27 16:44:08*
%MOMM*%
%LPD*%
G01*
G04 APERTURE LIST*
%ADD10C,0.150000*%
%ADD11C,0.120000*%
%ADD12C,0.127000*%
%ADD13C,0.200000*%
G04 APERTURE END LIST*
D10*
%TO.C,J7*%
X171912380Y-68206666D02*
X172626666Y-68206666D01*
X172769523Y-68159047D01*
X172864761Y-68063809D01*
X172912380Y-67920952D01*
X172912380Y-67825714D01*
X171912380Y-68587619D02*
X171912380Y-69254285D01*
X172912380Y-68825714D01*
%TO.C,J6*%
X204932380Y-59336666D02*
X205646666Y-59336666D01*
X205789523Y-59289047D01*
X205884761Y-59193809D01*
X205932380Y-59050952D01*
X205932380Y-58955714D01*
X204932380Y-60241428D02*
X204932380Y-60050952D01*
X204980000Y-59955714D01*
X205027619Y-59908095D01*
X205170476Y-59812857D01*
X205360952Y-59765238D01*
X205741904Y-59765238D01*
X205837142Y-59812857D01*
X205884761Y-59860476D01*
X205932380Y-59955714D01*
X205932380Y-60146190D01*
X205884761Y-60241428D01*
X205837142Y-60289047D01*
X205741904Y-60336666D01*
X205503809Y-60336666D01*
X205408571Y-60289047D01*
X205360952Y-60241428D01*
X205313333Y-60146190D01*
X205313333Y-59955714D01*
X205360952Y-59860476D01*
X205408571Y-59812857D01*
X205503809Y-59765238D01*
%TO.C,J5*%
X210532380Y-72116666D02*
X211246666Y-72116666D01*
X211389523Y-72069047D01*
X211484761Y-71973809D01*
X211532380Y-71830952D01*
X211532380Y-71735714D01*
X210532380Y-73069047D02*
X210532380Y-72592857D01*
X211008571Y-72545238D01*
X210960952Y-72592857D01*
X210913333Y-72688095D01*
X210913333Y-72926190D01*
X210960952Y-73021428D01*
X211008571Y-73069047D01*
X211103809Y-73116666D01*
X211341904Y-73116666D01*
X211437142Y-73069047D01*
X211484761Y-73021428D01*
X211532380Y-72926190D01*
X211532380Y-72688095D01*
X211484761Y-72592857D01*
X211437142Y-72545238D01*
%TO.C,R1*%
X190666666Y-94262380D02*
X191000000Y-93786190D01*
X191238095Y-94262380D02*
X191238095Y-93262380D01*
X190857142Y-93262380D01*
X190761904Y-93310000D01*
X190714285Y-93357619D01*
X190666666Y-93452857D01*
X190666666Y-93595714D01*
X190714285Y-93690952D01*
X190761904Y-93738571D01*
X190857142Y-93786190D01*
X191238095Y-93786190D01*
X189714285Y-94262380D02*
X190285714Y-94262380D01*
X190000000Y-94262380D02*
X190000000Y-93262380D01*
X190095238Y-93405238D01*
X190190476Y-93500476D01*
X190285714Y-93548095D01*
%TO.C,R5*%
X208562380Y-45553333D02*
X208086190Y-45220000D01*
X208562380Y-44981904D02*
X207562380Y-44981904D01*
X207562380Y-45362857D01*
X207610000Y-45458095D01*
X207657619Y-45505714D01*
X207752857Y-45553333D01*
X207895714Y-45553333D01*
X207990952Y-45505714D01*
X208038571Y-45458095D01*
X208086190Y-45362857D01*
X208086190Y-44981904D01*
X207562380Y-46458095D02*
X207562380Y-45981904D01*
X208038571Y-45934285D01*
X207990952Y-45981904D01*
X207943333Y-46077142D01*
X207943333Y-46315238D01*
X207990952Y-46410476D01*
X208038571Y-46458095D01*
X208133809Y-46505714D01*
X208371904Y-46505714D01*
X208467142Y-46458095D01*
X208514761Y-46410476D01*
X208562380Y-46315238D01*
X208562380Y-46077142D01*
X208514761Y-45981904D01*
X208467142Y-45934285D01*
%TO.C,U1*%
X196976904Y-34377380D02*
X196976904Y-35186904D01*
X196929285Y-35282142D01*
X196881666Y-35329761D01*
X196786428Y-35377380D01*
X196595952Y-35377380D01*
X196500714Y-35329761D01*
X196453095Y-35282142D01*
X196405476Y-35186904D01*
X196405476Y-34377380D01*
X195405476Y-35377380D02*
X195976904Y-35377380D01*
X195691190Y-35377380D02*
X195691190Y-34377380D01*
X195786428Y-34520238D01*
X195881666Y-34615476D01*
X195976904Y-34663095D01*
%TO.C,U2*%
X169632380Y-58928095D02*
X170441904Y-58928095D01*
X170537142Y-58975714D01*
X170584761Y-59023333D01*
X170632380Y-59118571D01*
X170632380Y-59309047D01*
X170584761Y-59404285D01*
X170537142Y-59451904D01*
X170441904Y-59499523D01*
X169632380Y-59499523D01*
X169727619Y-59928095D02*
X169680000Y-59975714D01*
X169632380Y-60070952D01*
X169632380Y-60309047D01*
X169680000Y-60404285D01*
X169727619Y-60451904D01*
X169822857Y-60499523D01*
X169918095Y-60499523D01*
X170060952Y-60451904D01*
X170632380Y-59880476D01*
X170632380Y-60499523D01*
%TO.C,J4*%
X177512380Y-55586666D02*
X178226666Y-55586666D01*
X178369523Y-55539047D01*
X178464761Y-55443809D01*
X178512380Y-55300952D01*
X178512380Y-55205714D01*
X177845714Y-56491428D02*
X178512380Y-56491428D01*
X177464761Y-56253333D02*
X178179047Y-56015238D01*
X178179047Y-56634285D01*
%TO.C,R4*%
X183046666Y-99342380D02*
X183380000Y-98866190D01*
X183618095Y-99342380D02*
X183618095Y-98342380D01*
X183237142Y-98342380D01*
X183141904Y-98390000D01*
X183094285Y-98437619D01*
X183046666Y-98532857D01*
X183046666Y-98675714D01*
X183094285Y-98770952D01*
X183141904Y-98818571D01*
X183237142Y-98866190D01*
X183618095Y-98866190D01*
X182189523Y-98675714D02*
X182189523Y-99342380D01*
X182427619Y-98294761D02*
X182665714Y-99009047D01*
X182046666Y-99009047D01*
%TO.C,J3*%
X215104380Y-46890666D02*
X215818666Y-46890666D01*
X215961523Y-46843047D01*
X216056761Y-46747809D01*
X216104380Y-46604952D01*
X216104380Y-46509714D01*
X215104380Y-47271619D02*
X215104380Y-47890666D01*
X215485333Y-47557333D01*
X215485333Y-47700190D01*
X215532952Y-47795428D01*
X215580571Y-47843047D01*
X215675809Y-47890666D01*
X215913904Y-47890666D01*
X216009142Y-47843047D01*
X216056761Y-47795428D01*
X216104380Y-47700190D01*
X216104380Y-47414476D01*
X216056761Y-47319238D01*
X216009142Y-47271619D01*
%TO.C,Q2*%
X207807619Y-87454761D02*
X207760000Y-87359523D01*
X207664761Y-87264285D01*
X207521904Y-87121428D01*
X207474285Y-87026190D01*
X207474285Y-86930952D01*
X207712380Y-86978571D02*
X207664761Y-86883333D01*
X207569523Y-86788095D01*
X207379047Y-86740476D01*
X207045714Y-86740476D01*
X206855238Y-86788095D01*
X206760000Y-86883333D01*
X206712380Y-86978571D01*
X206712380Y-87169047D01*
X206760000Y-87264285D01*
X206855238Y-87359523D01*
X207045714Y-87407142D01*
X207379047Y-87407142D01*
X207569523Y-87359523D01*
X207664761Y-87264285D01*
X207712380Y-87169047D01*
X207712380Y-86978571D01*
X206807619Y-87788095D02*
X206760000Y-87835714D01*
X206712380Y-87930952D01*
X206712380Y-88169047D01*
X206760000Y-88264285D01*
X206807619Y-88311904D01*
X206902857Y-88359523D01*
X206998095Y-88359523D01*
X207140952Y-88311904D01*
X207712380Y-87740476D01*
X207712380Y-88359523D01*
%TO.C,Q1*%
X176827619Y-90154761D02*
X176780000Y-90059523D01*
X176684761Y-89964285D01*
X176541904Y-89821428D01*
X176494285Y-89726190D01*
X176494285Y-89630952D01*
X176732380Y-89678571D02*
X176684761Y-89583333D01*
X176589523Y-89488095D01*
X176399047Y-89440476D01*
X176065714Y-89440476D01*
X175875238Y-89488095D01*
X175780000Y-89583333D01*
X175732380Y-89678571D01*
X175732380Y-89869047D01*
X175780000Y-89964285D01*
X175875238Y-90059523D01*
X176065714Y-90107142D01*
X176399047Y-90107142D01*
X176589523Y-90059523D01*
X176684761Y-89964285D01*
X176732380Y-89869047D01*
X176732380Y-89678571D01*
X176732380Y-91059523D02*
X176732380Y-90488095D01*
X176732380Y-90773809D02*
X175732380Y-90773809D01*
X175875238Y-90678571D01*
X175970476Y-90583333D01*
X176018095Y-90488095D01*
%TO.C,J2*%
X169372380Y-79696666D02*
X170086666Y-79696666D01*
X170229523Y-79649047D01*
X170324761Y-79553809D01*
X170372380Y-79410952D01*
X170372380Y-79315714D01*
X169467619Y-80125238D02*
X169420000Y-80172857D01*
X169372380Y-80268095D01*
X169372380Y-80506190D01*
X169420000Y-80601428D01*
X169467619Y-80649047D01*
X169562857Y-80696666D01*
X169658095Y-80696666D01*
X169800952Y-80649047D01*
X170372380Y-80077619D01*
X170372380Y-80696666D01*
%TO.C,R2*%
X201282380Y-83653333D02*
X200806190Y-83320000D01*
X201282380Y-83081904D02*
X200282380Y-83081904D01*
X200282380Y-83462857D01*
X200330000Y-83558095D01*
X200377619Y-83605714D01*
X200472857Y-83653333D01*
X200615714Y-83653333D01*
X200710952Y-83605714D01*
X200758571Y-83558095D01*
X200806190Y-83462857D01*
X200806190Y-83081904D01*
X200377619Y-84034285D02*
X200330000Y-84081904D01*
X200282380Y-84177142D01*
X200282380Y-84415238D01*
X200330000Y-84510476D01*
X200377619Y-84558095D01*
X200472857Y-84605714D01*
X200568095Y-84605714D01*
X200710952Y-84558095D01*
X201282380Y-83986666D01*
X201282380Y-84605714D01*
%TO.C,J1*%
X158373333Y-85992380D02*
X158373333Y-86706666D01*
X158420952Y-86849523D01*
X158516190Y-86944761D01*
X158659047Y-86992380D01*
X158754285Y-86992380D01*
X157373333Y-86992380D02*
X157944761Y-86992380D01*
X157659047Y-86992380D02*
X157659047Y-85992380D01*
X157754285Y-86135238D01*
X157849523Y-86230476D01*
X157944761Y-86278095D01*
%TO.C,R3*%
X203366666Y-99342380D02*
X203700000Y-98866190D01*
X203938095Y-99342380D02*
X203938095Y-98342380D01*
X203557142Y-98342380D01*
X203461904Y-98390000D01*
X203414285Y-98437619D01*
X203366666Y-98532857D01*
X203366666Y-98675714D01*
X203414285Y-98770952D01*
X203461904Y-98818571D01*
X203557142Y-98866190D01*
X203938095Y-98866190D01*
X203033333Y-98342380D02*
X202414285Y-98342380D01*
X202747619Y-98723333D01*
X202604761Y-98723333D01*
X202509523Y-98770952D01*
X202461904Y-98818571D01*
X202414285Y-98913809D01*
X202414285Y-99151904D01*
X202461904Y-99247142D01*
X202509523Y-99294761D01*
X202604761Y-99342380D01*
X202890476Y-99342380D01*
X202985714Y-99294761D01*
X203033333Y-99247142D01*
D11*
%TO.C,J7*%
X177570000Y-63430000D02*
X177570000Y-73650000D01*
X175260000Y-73150000D02*
X175260000Y-73650000D01*
X176070000Y-72650000D02*
X177570000Y-72650000D01*
X174050000Y-73150000D02*
X175260000Y-73150000D01*
X175370000Y-63130000D02*
X177870000Y-63130000D01*
X176070000Y-73650000D02*
X176070000Y-72650000D01*
X175260000Y-63930000D02*
X174050000Y-63930000D01*
X177870000Y-63130000D02*
X177870000Y-65630000D01*
X173550000Y-73650000D02*
X173550000Y-63430000D01*
X176070000Y-63430000D02*
X176070000Y-64430000D01*
X176070000Y-64430000D02*
X177570000Y-64430000D01*
X173550000Y-63430000D02*
X177570000Y-63430000D01*
X175260000Y-63430000D02*
X175260000Y-63930000D01*
X177570000Y-73650000D02*
X173550000Y-73650000D01*
X174050000Y-63930000D02*
X174050000Y-73150000D01*
%TO.C,J6*%
X208280000Y-56310000D02*
X207070000Y-56310000D01*
X206570000Y-63530000D02*
X206570000Y-55810000D01*
X207070000Y-56310000D02*
X207070000Y-63030000D01*
X209090000Y-55810000D02*
X209090000Y-56810000D01*
X209090000Y-56810000D02*
X210590000Y-56810000D01*
X207070000Y-63030000D02*
X208280000Y-63030000D01*
X208280000Y-63030000D02*
X208280000Y-63530000D01*
X206570000Y-55810000D02*
X210590000Y-55810000D01*
X210890000Y-55510000D02*
X210890000Y-58010000D01*
X208280000Y-55810000D02*
X208280000Y-56310000D01*
X210590000Y-63530000D02*
X206570000Y-63530000D01*
X208390000Y-55510000D02*
X210890000Y-55510000D01*
X210590000Y-55810000D02*
X210590000Y-63530000D01*
X209090000Y-62530000D02*
X210590000Y-62530000D01*
X209090000Y-63530000D02*
X209090000Y-62530000D01*
%TO.C,J5*%
X207470000Y-78810000D02*
X207470000Y-77810000D01*
X209490000Y-66590000D02*
X208280000Y-66590000D01*
X207470000Y-77810000D02*
X205970000Y-77810000D01*
X208280000Y-78310000D02*
X209490000Y-78310000D01*
X209990000Y-66090000D02*
X209990000Y-78810000D01*
X207470000Y-66090000D02*
X207470000Y-67090000D01*
X208170000Y-79110000D02*
X205670000Y-79110000D01*
X205970000Y-78810000D02*
X205970000Y-66090000D01*
X205670000Y-79110000D02*
X205670000Y-76610000D01*
X205970000Y-66090000D02*
X209990000Y-66090000D01*
X209490000Y-78310000D02*
X209490000Y-66590000D01*
X209990000Y-78810000D02*
X205970000Y-78810000D01*
X208280000Y-66590000D02*
X208280000Y-66090000D01*
X208280000Y-78810000D02*
X208280000Y-78310000D01*
X207470000Y-67090000D02*
X205970000Y-67090000D01*
%TO.C,R1*%
X183920000Y-91440000D02*
X187230000Y-91440000D01*
X193770000Y-90070000D02*
X193770000Y-92810000D01*
X193770000Y-92810000D02*
X187230000Y-92810000D01*
X187230000Y-92810000D02*
X187230000Y-90070000D01*
X187230000Y-90070000D02*
X193770000Y-90070000D01*
X197080000Y-91440000D02*
X193770000Y-91440000D01*
%TO.C,R5*%
X207110000Y-48990000D02*
X204370000Y-48990000D01*
X204370000Y-42450000D02*
X207110000Y-42450000D01*
X205740000Y-52300000D02*
X205740000Y-48990000D01*
X205740000Y-39140000D02*
X205740000Y-42450000D01*
X207110000Y-42450000D02*
X207110000Y-48990000D01*
X204370000Y-48990000D02*
X204370000Y-42450000D01*
D12*
%TO.C,U1*%
X181230000Y-86105000D02*
X199770000Y-86105000D01*
X181230000Y-35815000D02*
X181230000Y-86105000D01*
X199770000Y-35815000D02*
X181230000Y-35815000D01*
X199770000Y-86105000D02*
X199770000Y-35815000D01*
D13*
X200600000Y-44460000D02*
G75*
G03*
X200600000Y-44460000I-100000J0D01*
G01*
D11*
%TO.C,U2*%
X165709705Y-43831319D02*
X165709705Y-44631319D01*
X166362706Y-56931406D02*
X166367938Y-56955853D01*
X157303330Y-62447330D02*
X157380894Y-62369767D01*
X152673330Y-68729767D02*
X157303330Y-68729767D01*
X149575304Y-67997364D02*
X149669856Y-67997364D01*
X164790000Y-42220000D02*
X164790000Y-39060000D01*
X162737706Y-48030217D02*
X162737706Y-57930217D01*
X152673330Y-71269767D02*
X152673330Y-70429767D01*
X166669704Y-44631319D02*
X166669704Y-43831319D01*
X167950000Y-42220000D02*
X167950000Y-39105000D01*
X160284204Y-49612603D02*
X160284204Y-59312603D01*
X157303330Y-72452203D02*
X157303330Y-62447330D01*
X165943330Y-62369767D02*
X165943330Y-72529767D01*
X167687705Y-47980217D02*
X162787706Y-47980217D01*
X165389705Y-44631319D02*
X166989704Y-44631319D01*
X147010000Y-82830000D02*
X147010000Y-79700000D01*
X166362706Y-56931406D02*
X166387705Y-56919447D01*
X148061783Y-72248364D02*
X149811783Y-72248364D01*
X166387705Y-54840986D02*
X166387705Y-56919447D01*
X152673330Y-69569767D02*
X157303330Y-69569767D01*
X150086783Y-68868642D02*
X147786783Y-68868642D01*
X164795000Y-82830000D02*
X164790000Y-79700000D01*
X152673330Y-67869767D02*
X152673330Y-67029767D01*
X157380894Y-72529767D02*
X166732390Y-72529767D01*
X165887706Y-56919447D02*
X165887706Y-54840986D01*
X152673330Y-69569767D02*
X152673330Y-68729767D01*
X152673330Y-66169767D02*
X157303330Y-66169767D01*
X168205000Y-39085000D02*
X168205000Y-82835000D01*
X147686783Y-68098364D02*
X147686783Y-71698364D01*
X149811783Y-67548364D02*
X148061783Y-67548364D01*
X152673330Y-64469767D02*
X152673330Y-63629767D01*
X148061783Y-71798364D02*
X148061783Y-72248364D01*
X152673330Y-64469767D02*
X157303330Y-64469767D01*
X158784204Y-60812603D02*
X149084204Y-60812603D01*
X152673330Y-70429767D02*
X157303330Y-70429767D01*
X168205000Y-82835000D02*
X146755000Y-82835000D01*
X150170000Y-42220000D02*
X150170000Y-39105000D01*
X147786783Y-71798364D02*
X150086783Y-71798364D01*
X162787706Y-57980217D02*
X167687705Y-57980217D01*
X157380894Y-62369767D02*
X166732390Y-62369767D01*
X152673330Y-66169767D02*
X152673330Y-65329767D01*
X167023329Y-64019767D02*
X166732390Y-62369767D01*
X166732390Y-72529767D02*
X167023329Y-70879767D01*
X150170000Y-82830000D02*
X150170000Y-79700000D01*
X167738705Y-49337688D02*
X167738705Y-49371643D01*
X166419100Y-56943615D02*
X166387705Y-56919447D01*
X167738705Y-49421022D02*
X167738705Y-49465894D01*
X150170000Y-79700000D02*
X147010000Y-79700000D01*
X152673330Y-65329767D02*
X157303330Y-65329767D01*
X146755000Y-39085000D02*
X168205000Y-39085000D01*
X147010000Y-42220000D02*
X147010000Y-39105000D01*
X166362706Y-56931406D02*
X166393925Y-56924236D01*
X167023329Y-70879767D02*
X167023329Y-64019767D01*
X147584204Y-59312603D02*
X147584204Y-49612603D01*
X167737705Y-57930217D02*
X167737705Y-48030217D01*
X165389705Y-43831319D02*
X165389705Y-44631319D01*
X165100000Y-79700000D02*
X164790000Y-79700000D01*
X147010000Y-42220000D02*
X150170000Y-42220000D01*
X166989704Y-43831319D02*
X165389705Y-43831319D01*
X149084204Y-48112603D02*
X158784204Y-48112603D01*
X148061783Y-67548364D02*
X148061783Y-67998364D01*
X152673330Y-67869767D02*
X157303330Y-67869767D01*
X150086783Y-67998364D02*
X147786783Y-67998364D01*
X152673330Y-67029767D02*
X157303330Y-67029767D01*
X165365851Y-72530767D02*
X165204313Y-72530767D01*
X164790000Y-42220000D02*
X167950000Y-42220000D01*
X149811783Y-67998364D02*
X149811783Y-67548364D01*
X149811783Y-72248364D02*
X149811783Y-71798364D01*
X146755000Y-82835000D02*
X146755000Y-39085000D01*
X157380894Y-72529767D02*
X157303330Y-72452203D01*
X152673330Y-71269767D02*
X157303330Y-71269767D01*
X166989704Y-43831319D02*
X166989704Y-44631319D01*
X167950000Y-82830000D02*
X167950000Y-81530000D01*
X152673330Y-63629767D02*
X157303330Y-63629767D01*
X150186783Y-71698364D02*
X150186783Y-68098364D01*
X151098590Y-59464782D02*
G75*
G03*
X156769817Y-59464782I2835613J5002178D01*
G01*
X151098591Y-59464782D02*
G75*
G03*
X150964418Y-59498868I-49316J-86994D01*
G01*
X165907473Y-56955852D02*
G75*
G03*
X165856310Y-56943615I230223J1075638D01*
G01*
X148897938Y-57432389D02*
G75*
G03*
X150964418Y-59498868I793625J-1272855D01*
G01*
X162787706Y-47980217D02*
G75*
G03*
X162737706Y-48030217I1J-50001D01*
G01*
X156903989Y-59498868D02*
G75*
G03*
X158970469Y-57432389I1272856J793624D01*
G01*
X162737706Y-57930217D02*
G75*
G03*
X162787706Y-57980217I50001J1D01*
G01*
X150964417Y-49426337D02*
G75*
G03*
X151098590Y-49460424I84858J52907D01*
G01*
X150186783Y-68098364D02*
G75*
G03*
X150086783Y-67998364I-99999J1D01*
G01*
X147584204Y-59312603D02*
G75*
G03*
X149084204Y-60812603I1500001J1D01*
G01*
X147686783Y-71698364D02*
G75*
G03*
X147786783Y-71798364I99999J-1D01*
G01*
X148897938Y-57432389D02*
G75*
G03*
X148932024Y-57298217I-52908J84857D01*
G01*
X148932024Y-51626989D02*
G75*
G03*
X148897938Y-51492817I-86994J49315D01*
G01*
X160284204Y-49612603D02*
G75*
G03*
X158784204Y-48112603I-1500001J-1D01*
G01*
X167737705Y-48030217D02*
G75*
G03*
X167687705Y-47980217I-50001J-1D01*
G01*
X158784204Y-60812603D02*
G75*
G03*
X160284204Y-59312603I-1J1500001D01*
G01*
X149084204Y-48112603D02*
G75*
G03*
X147584204Y-49612603I1J-1500001D01*
G01*
X156769817Y-49460424D02*
G75*
G03*
X151098590Y-49460424I-2835614J-5002178D01*
G01*
X167687705Y-57980217D02*
G75*
G03*
X167737705Y-57930217I-1J50001D01*
G01*
X156769816Y-49460424D02*
G75*
G03*
X156903989Y-49426338I49316J86994D01*
G01*
X150964418Y-49426338D02*
G75*
G03*
X148897938Y-51492817I-1272856J-793624D01*
G01*
X156903990Y-59498869D02*
G75*
G03*
X156769817Y-59464782I-84858J-52907D01*
G01*
X158970469Y-51492817D02*
G75*
G03*
X156903989Y-49426338I-793625J1272855D01*
G01*
X148932024Y-51626989D02*
G75*
G03*
X148932024Y-57298217I5002180J-2835614D01*
G01*
X147786783Y-67998364D02*
G75*
G03*
X147686783Y-68098364I-1J-99999D01*
G01*
X150086783Y-71798364D02*
G75*
G03*
X150186783Y-71698364I1J99999D01*
G01*
X158970469Y-51492817D02*
G75*
G03*
X158936383Y-51626989I52908J-84857D01*
G01*
X158936383Y-57298217D02*
G75*
G03*
X158970469Y-57432389I86994J-49315D01*
G01*
X158936383Y-57298216D02*
G75*
G03*
X158936383Y-51626989I-5002178J2835614D01*
G01*
X161412582Y-78633334D02*
G75*
G03*
X161412582Y-78633334I-4000000J0D01*
G01*
X150824000Y-45720000D02*
G75*
G03*
X150824000Y-45720000I-1599000J0D01*
G01*
X167333999Y-76200000D02*
G75*
G03*
X167333999Y-76200000I-1598999J0D01*
G01*
X159184204Y-54462603D02*
G75*
G03*
X159184204Y-54462603I-5250000J0D01*
G01*
X158590406Y-71606821D02*
G75*
G03*
X158590406Y-71606821I-375000J0D01*
G01*
X160914794Y-43250693D02*
G75*
G03*
X160914794Y-43250693I-4000000J0D01*
G01*
%TO.C,J4*%
X176470000Y-60530000D02*
X176470000Y-51310000D01*
X172650000Y-61330000D02*
X172650000Y-58830000D01*
X176970000Y-50810000D02*
X176970000Y-61030000D01*
X175260000Y-61030000D02*
X175260000Y-60530000D01*
X176970000Y-61030000D02*
X172950000Y-61030000D01*
X174450000Y-51810000D02*
X172950000Y-51810000D01*
X174450000Y-60030000D02*
X172950000Y-60030000D01*
X174450000Y-50810000D02*
X174450000Y-51810000D01*
X176470000Y-51310000D02*
X175260000Y-51310000D01*
X172950000Y-50810000D02*
X176970000Y-50810000D01*
X175150000Y-61330000D02*
X172650000Y-61330000D01*
X175260000Y-60530000D02*
X176470000Y-60530000D01*
X175260000Y-51310000D02*
X175260000Y-50810000D01*
X174450000Y-61030000D02*
X174450000Y-60030000D01*
X172950000Y-61030000D02*
X172950000Y-50810000D01*
%TO.C,R4*%
X186150000Y-97890000D02*
X179610000Y-97890000D01*
X186150000Y-95150000D02*
X186150000Y-97890000D01*
X179610000Y-97890000D02*
X179610000Y-95150000D01*
X176300000Y-96520000D02*
X179610000Y-96520000D01*
X189460000Y-96520000D02*
X186150000Y-96520000D01*
X179610000Y-95150000D02*
X186150000Y-95150000D01*
%TO.C,J3*%
X214562000Y-51084000D02*
X210542000Y-51084000D01*
X212852000Y-50584000D02*
X214062000Y-50584000D01*
X214562000Y-43364000D02*
X214562000Y-51084000D01*
X214062000Y-43864000D02*
X212852000Y-43864000D01*
X214062000Y-50584000D02*
X214062000Y-43864000D01*
X212852000Y-43864000D02*
X212852000Y-43364000D01*
X210242000Y-51384000D02*
X210242000Y-48884000D01*
X210542000Y-51084000D02*
X210542000Y-43364000D01*
X212852000Y-51084000D02*
X212852000Y-50584000D01*
X212042000Y-43364000D02*
X212042000Y-44364000D01*
X212042000Y-50084000D02*
X210542000Y-50084000D01*
X212742000Y-51384000D02*
X210242000Y-51384000D01*
X212042000Y-44364000D02*
X210542000Y-44364000D01*
X210542000Y-43364000D02*
X214562000Y-43364000D01*
X212042000Y-51084000D02*
X212042000Y-50084000D01*
%TO.C,Q2*%
X212520000Y-85610000D02*
X212520000Y-89460000D01*
X212520000Y-85610000D02*
G75*
G03*
X212510122Y-89498611I-1700000J-1940000D01*
G01*
%TO.C,Q1*%
X171020000Y-92190000D02*
X171020000Y-88340000D01*
X171020000Y-92190000D02*
G75*
G03*
X171029878Y-88301389I1700000J1940000D01*
G01*
%TO.C,J2*%
X171510000Y-76670000D02*
X171510000Y-83390000D01*
X175030000Y-76170000D02*
X175030000Y-83890000D01*
X172830000Y-75870000D02*
X175330000Y-75870000D01*
X173530000Y-83890000D02*
X173530000Y-82890000D01*
X172720000Y-83390000D02*
X172720000Y-83890000D01*
X172720000Y-76670000D02*
X171510000Y-76670000D01*
X173530000Y-77170000D02*
X175030000Y-77170000D01*
X175330000Y-75870000D02*
X175330000Y-78370000D01*
X173530000Y-82890000D02*
X175030000Y-82890000D01*
X172720000Y-76170000D02*
X172720000Y-76670000D01*
X171010000Y-83890000D02*
X171010000Y-76170000D01*
X171010000Y-76170000D02*
X175030000Y-76170000D01*
X175030000Y-83890000D02*
X171010000Y-83890000D01*
X171510000Y-83390000D02*
X172720000Y-83390000D01*
X173530000Y-76170000D02*
X173530000Y-77170000D01*
%TO.C,R2*%
X201830000Y-80550000D02*
X204570000Y-80550000D01*
X203200000Y-77240000D02*
X203200000Y-80550000D01*
X203200000Y-90400000D02*
X203200000Y-87090000D01*
X204570000Y-87090000D02*
X201830000Y-87090000D01*
X201830000Y-87090000D02*
X201830000Y-80550000D01*
X204570000Y-80550000D02*
X204570000Y-87090000D01*
%TO.C,J1*%
X154000000Y-89330000D02*
X154000000Y-96350000D01*
X160880000Y-87630000D02*
X155200000Y-87630000D01*
X162880000Y-91140000D02*
X162280000Y-91440000D01*
X162280000Y-91440000D02*
X162880000Y-91740000D01*
X155200000Y-87630000D02*
X155200000Y-89330000D01*
X162080000Y-89330000D02*
X160880000Y-89330000D01*
X154000000Y-96350000D02*
X162080000Y-96350000D01*
X155200000Y-89330000D02*
X154000000Y-89330000D01*
X162080000Y-96350000D02*
X162080000Y-89330000D01*
X162880000Y-91740000D02*
X162880000Y-91140000D01*
X160880000Y-89330000D02*
X160880000Y-87630000D01*
%TO.C,R3*%
X199930000Y-95150000D02*
X206470000Y-95150000D01*
X209780000Y-96520000D02*
X206470000Y-96520000D01*
X196620000Y-96520000D02*
X199930000Y-96520000D01*
X206470000Y-97890000D02*
X199930000Y-97890000D01*
X206470000Y-95150000D02*
X206470000Y-97890000D01*
X199930000Y-97890000D02*
X199930000Y-95150000D01*
%TD*%
M02*
