%TF.GenerationSoftware,KiCad,Pcbnew,(6.0.2)*%
%TF.CreationDate,2022-04-27T16:44:08+02:00*%
%TF.ProjectId,Varte vitrine,56617274-6520-4766-9974-72696e652e6b,rev?*%
%TF.SameCoordinates,Original*%
%TF.FileFunction,Copper,L1,Top*%
%TF.FilePolarity,Positive*%
%FSLAX46Y46*%
G04 Gerber Fmt 4.6, Leading zero omitted, Abs format (unit mm)*
G04 Created by KiCad (PCBNEW (6.0.2)) date 2022-04-27 16:44:08*
%MOMM*%
%LPD*%
G01*
G04 APERTURE LIST*
G04 Aperture macros list*
%AMRoundRect*
0 Rectangle with rounded corners*
0 $1 Rounding radius*
0 $2 $3 $4 $5 $6 $7 $8 $9 X,Y pos of 4 corners*
0 Add a 4 corners polygon primitive as box body*
4,1,4,$2,$3,$4,$5,$6,$7,$8,$9,$2,$3,0*
0 Add four circle primitives for the rounded corners*
1,1,$1+$1,$2,$3*
1,1,$1+$1,$4,$5*
1,1,$1+$1,$6,$7*
1,1,$1+$1,$8,$9*
0 Add four rect primitives between the rounded corners*
20,1,$1+$1,$2,$3,$4,$5,0*
20,1,$1+$1,$4,$5,$6,$7,0*
20,1,$1+$1,$6,$7,$8,$9,0*
20,1,$1+$1,$8,$9,$2,$3,0*%
G04 Aperture macros list end*
%TA.AperFunction,ComponentPad*%
%ADD10RoundRect,0.250000X-0.725000X0.600000X-0.725000X-0.600000X0.725000X-0.600000X0.725000X0.600000X0*%
%TD*%
%TA.AperFunction,ComponentPad*%
%ADD11O,1.950000X1.700000*%
%TD*%
%TA.AperFunction,ComponentPad*%
%ADD12RoundRect,0.250000X-0.750000X0.600000X-0.750000X-0.600000X0.750000X-0.600000X0.750000X0.600000X0*%
%TD*%
%TA.AperFunction,ComponentPad*%
%ADD13O,2.000000X1.700000*%
%TD*%
%TA.AperFunction,ComponentPad*%
%ADD14RoundRect,0.250000X0.725000X-0.600000X0.725000X0.600000X-0.725000X0.600000X-0.725000X-0.600000X0*%
%TD*%
%TA.AperFunction,ComponentPad*%
%ADD15C,1.600000*%
%TD*%
%TA.AperFunction,ComponentPad*%
%ADD16O,1.600000X1.600000*%
%TD*%
%TA.AperFunction,ComponentPad*%
%ADD17R,1.530000X1.530000*%
%TD*%
%TA.AperFunction,ComponentPad*%
%ADD18C,1.530000*%
%TD*%
%TA.AperFunction,ComponentPad*%
%ADD19R,2.540000X2.540000*%
%TD*%
%TA.AperFunction,ComponentPad*%
%ADD20C,2.540000*%
%TD*%
%TA.AperFunction,ComponentPad*%
%ADD21RoundRect,0.250000X0.750000X-0.600000X0.750000X0.600000X-0.750000X0.600000X-0.750000X-0.600000X0*%
%TD*%
%TA.AperFunction,ComponentPad*%
%ADD22R,1.500000X1.050000*%
%TD*%
%TA.AperFunction,ComponentPad*%
%ADD23O,1.500000X1.050000*%
%TD*%
%TA.AperFunction,ComponentPad*%
%ADD24RoundRect,0.250001X1.099999X1.099999X-1.099999X1.099999X-1.099999X-1.099999X1.099999X-1.099999X0*%
%TD*%
%TA.AperFunction,ComponentPad*%
%ADD25C,2.700000*%
%TD*%
%TA.AperFunction,Conductor*%
%ADD26C,0.250000*%
%TD*%
G04 APERTURE END LIST*
D10*
%TO.P,J7,1,Pin_1*%
%TO.N,A5*%
X175260000Y-66040000D03*
D11*
%TO.P,J7,2,Pin_2*%
%TO.N,GND*%
X175260000Y-68540000D03*
%TO.P,J7,3,Pin_3*%
%TO.N,A4*%
X175260000Y-71040000D03*
%TD*%
D12*
%TO.P,J6,1,Pin_1*%
%TO.N,A2*%
X208280000Y-58420000D03*
D13*
%TO.P,J6,2,Pin_2*%
%TO.N,+3V3*%
X208280000Y-60920000D03*
%TD*%
D14*
%TO.P,J5,1,Pin_1*%
%TO.N,GND*%
X208280000Y-76200000D03*
D11*
%TO.P,J5,2,Pin_2*%
%TO.N,DT*%
X208280000Y-73700000D03*
%TO.P,J5,3,Pin_3*%
%TO.N,CLK*%
X208280000Y-71200000D03*
%TO.P,J5,4,Pin_4*%
%TO.N,+3V3*%
X208280000Y-68700000D03*
%TD*%
D15*
%TO.P,R1,1*%
%TO.N,A3*%
X182880000Y-91440000D03*
D16*
%TO.P,R1,2*%
%TO.N,Net-(Q2-Pad2)*%
X198120000Y-91440000D03*
%TD*%
D15*
%TO.P,R5,1*%
%TO.N,Net-(J3-Pad2)*%
X205740000Y-53340000D03*
D16*
%TO.P,R5,2*%
%TO.N,+5V*%
X205740000Y-38100000D03*
%TD*%
D17*
%TO.P,U1,CN3_1,PA9*%
%TO.N,unconnected-(U1-PadCN3_1)*%
X198120000Y-44745000D03*
D18*
%TO.P,U1,CN3_2,PA10*%
%TO.N,unconnected-(U1-PadCN3_2)*%
X198120000Y-47285000D03*
%TO.P,U1,CN3_3,NRST_CN3*%
%TO.N,unconnected-(U1-PadCN3_3)*%
X198120000Y-49825000D03*
%TO.P,U1,CN3_4,GND_CN3*%
%TO.N,GND*%
X198120000Y-52365000D03*
%TO.P,U1,CN3_5,PA12*%
%TO.N,unconnected-(U1-PadCN3_5)*%
X198120000Y-54905000D03*
%TO.P,U1,CN3_6,PB0*%
%TO.N,unconnected-(U1-PadCN3_6)*%
X198120000Y-57445000D03*
%TO.P,U1,CN3_7,PB7*%
%TO.N,unconnected-(U1-PadCN3_7)*%
X198120000Y-59985000D03*
%TO.P,U1,CN3_8,PB6*%
%TO.N,unconnected-(U1-PadCN3_8)*%
X198120000Y-62525000D03*
%TO.P,U1,CN3_9,PB1*%
%TO.N,unconnected-(U1-PadCN3_9)*%
X198120000Y-65065000D03*
%TO.P,U1,CN3_10,PC14*%
%TO.N,unconnected-(U1-PadCN3_10)*%
X198120000Y-67605000D03*
%TO.P,U1,CN3_11,PC15*%
%TO.N,unconnected-(U1-PadCN3_11)*%
X198120000Y-70145000D03*
%TO.P,U1,CN3_12,PA8*%
%TO.N,unconnected-(U1-PadCN3_12)*%
X198120000Y-72685000D03*
%TO.P,U1,CN3_13,PA11*%
%TO.N,unconnected-(U1-PadCN3_13)*%
X198120000Y-75225000D03*
%TO.P,U1,CN3_14,PB5*%
%TO.N,CLK*%
X198120000Y-77765000D03*
%TO.P,U1,CN3_15,PB4*%
%TO.N,DT*%
X198120000Y-80305000D03*
D17*
%TO.P,U1,CN4_1,VIN*%
%TO.N,+8V*%
X182880000Y-44745000D03*
D18*
%TO.P,U1,CN4_2,GND_CN4*%
%TO.N,GND*%
X182880000Y-47285000D03*
%TO.P,U1,CN4_3,NRST_CN4*%
%TO.N,unconnected-(U1-PadCN4_3)*%
X182880000Y-49825000D03*
%TO.P,U1,CN4_4,+5V*%
%TO.N,+5V*%
X182880000Y-52365000D03*
%TO.P,U1,CN4_5,PA2*%
%TO.N,unconnected-(U1-PadCN4_5)*%
X182880000Y-54905000D03*
%TO.P,U1,CN4_6,PA7*%
%TO.N,A6*%
X182880000Y-57445000D03*
%TO.P,U1,CN4_7,PA6*%
%TO.N,A5*%
X182880000Y-59985000D03*
%TO.P,U1,CN4_8,PA5*%
%TO.N,A4*%
X182880000Y-62525000D03*
%TO.P,U1,CN4_9,PA4*%
%TO.N,A3*%
X182880000Y-65065000D03*
%TO.P,U1,CN4_10,PA3*%
%TO.N,A2*%
X182880000Y-67605000D03*
%TO.P,U1,CN4_11,PA1*%
%TO.N,unconnected-(U1-PadCN4_11)*%
X182880000Y-70145000D03*
%TO.P,U1,CN4_12,PA0*%
%TO.N,A0*%
X182880000Y-72685000D03*
%TO.P,U1,CN4_13,AREF*%
%TO.N,unconnected-(U1-PadCN4_13)*%
X182880000Y-75225000D03*
%TO.P,U1,CN4_14,+3V3*%
%TO.N,+3V3*%
X182880000Y-77765000D03*
%TO.P,U1,CN4_15,PB3*%
%TO.N,unconnected-(U1-PadCN4_15)*%
X182880000Y-80305000D03*
%TD*%
D19*
%TO.P,U2,1,Vin*%
%TO.N,Net-(J1-Pad1)*%
X166370000Y-81280000D03*
D20*
%TO.P,U2,2,GND*%
%TO.N,Net-(J1-Pad2)*%
X148590000Y-81280000D03*
%TO.P,U2,3,GND*%
%TO.N,GND*%
X148590000Y-40640000D03*
%TO.P,U2,4,Vout*%
%TO.N,+8V*%
X166370000Y-40640000D03*
%TD*%
D14*
%TO.P,J4,1,Pin_1*%
%TO.N,GND*%
X175260000Y-58420000D03*
D11*
%TO.P,J4,2,Pin_2*%
%TO.N,A6*%
X175260000Y-55920000D03*
%TO.P,J4,3,Pin_3*%
%TO.N,+8V*%
X175260000Y-53420000D03*
%TD*%
D15*
%TO.P,R4,1*%
%TO.N,A0*%
X175260000Y-96520000D03*
D16*
%TO.P,R4,2*%
%TO.N,Net-(Q1-Pad2)*%
X190500000Y-96520000D03*
%TD*%
D21*
%TO.P,J3,1,Pin_1*%
%TO.N,Net-(J3-Pad1)*%
X212852000Y-48474000D03*
D13*
%TO.P,J3,2,Pin_2*%
%TO.N,Net-(J3-Pad2)*%
X212852000Y-45974000D03*
%TD*%
D22*
%TO.P,Q2,1,E*%
%TO.N,GND*%
X210820000Y-86360000D03*
D23*
%TO.P,Q2,2,B*%
%TO.N,Net-(Q2-Pad2)*%
X210820000Y-87630000D03*
%TO.P,Q2,3,C*%
%TO.N,Net-(J3-Pad1)*%
X210820000Y-88900000D03*
%TD*%
D22*
%TO.P,Q1,1,E*%
%TO.N,GND*%
X172720000Y-91440000D03*
D23*
%TO.P,Q1,2,B*%
%TO.N,Net-(Q1-Pad2)*%
X172720000Y-90170000D03*
%TO.P,Q1,3,C*%
%TO.N,Net-(J2-Pad2)*%
X172720000Y-88900000D03*
%TD*%
D12*
%TO.P,J2,1,Pin_1*%
%TO.N,+8V*%
X172720000Y-78780000D03*
D13*
%TO.P,J2,2,Pin_2*%
%TO.N,Net-(J2-Pad2)*%
X172720000Y-81280000D03*
%TD*%
D15*
%TO.P,R2,1*%
%TO.N,GND*%
X203200000Y-76200000D03*
D16*
%TO.P,R2,2*%
%TO.N,Net-(Q2-Pad2)*%
X203200000Y-91440000D03*
%TD*%
D24*
%TO.P,J1,1,Pin_1*%
%TO.N,Net-(J1-Pad1)*%
X160020000Y-91440000D03*
D25*
%TO.P,J1,2,Pin_2*%
%TO.N,Net-(J1-Pad2)*%
X156060000Y-91440000D03*
%TD*%
D15*
%TO.P,R3,1*%
%TO.N,Net-(Q2-Pad2)*%
X195580000Y-96520000D03*
D16*
%TO.P,R3,2*%
%TO.N,Net-(J3-Pad1)*%
X210820000Y-96520000D03*
%TD*%
D26*
%TO.N,CLK*%
X204685000Y-71200000D02*
X198120000Y-77765000D01*
X208280000Y-71200000D02*
X204685000Y-71200000D01*
%TO.N,DT*%
X201295000Y-75565000D02*
X201295000Y-77130000D01*
X201295000Y-77130000D02*
X198120000Y-80305000D01*
X203160000Y-73700000D02*
X201295000Y-75565000D01*
X208280000Y-73700000D02*
X203160000Y-73700000D01*
%TO.N,A2*%
X185420000Y-52070000D02*
X185420000Y-65065000D01*
X196850000Y-40640000D02*
X185420000Y-52070000D01*
X200660000Y-40640000D02*
X196850000Y-40640000D01*
X203200000Y-43180000D02*
X200660000Y-40640000D01*
X208280000Y-58420000D02*
X203200000Y-53340000D01*
X203200000Y-53340000D02*
X203200000Y-43180000D01*
%TO.N,+3V3*%
X193357859Y-45402141D02*
X193357859Y-67287141D01*
X196215000Y-42545000D02*
X193357859Y-45402141D01*
X193357859Y-67287141D02*
X182880000Y-77765000D01*
X200025000Y-42545000D02*
X196215000Y-42545000D01*
X200660000Y-53300000D02*
X200660000Y-43180000D01*
X208280000Y-60920000D02*
X200660000Y-53300000D01*
X200660000Y-43180000D02*
X200025000Y-42545000D01*
%TO.N,A0*%
X180340000Y-75225000D02*
X182880000Y-72685000D01*
X180340000Y-83820000D02*
X180340000Y-75225000D01*
X182880000Y-86360000D02*
X180340000Y-83820000D01*
X193040000Y-88900000D02*
X190500000Y-86360000D01*
X190500000Y-86360000D02*
X182880000Y-86360000D01*
X187960000Y-93980000D02*
X193040000Y-88900000D01*
X185420000Y-93980000D02*
X187960000Y-93980000D01*
X175260000Y-96520000D02*
X182880000Y-96520000D01*
X182880000Y-96520000D02*
X185420000Y-93980000D01*
%TO.N,A3*%
X177800000Y-70145000D02*
X182880000Y-65065000D01*
X177800000Y-86360000D02*
X177800000Y-70145000D01*
X182880000Y-91440000D02*
X177800000Y-86360000D01*
%TO.N,A2*%
X185420000Y-65065000D02*
X182880000Y-67605000D01*
%TO.N,+3V3*%
X208280000Y-60920000D02*
X208280000Y-68700000D01*
%TO.N,A2*%
X185420000Y-55265978D02*
X185420000Y-65065000D01*
%TO.N,Net-(Q1-Pad2)*%
X170180000Y-99568000D02*
X171196000Y-100584000D01*
X170180000Y-91710000D02*
X170180000Y-99568000D01*
X172720000Y-90170000D02*
X171720000Y-90170000D01*
X171196000Y-100584000D02*
X188214000Y-100584000D01*
X171720000Y-90170000D02*
X170180000Y-91710000D01*
%TO.N,Net-(J2-Pad2)*%
X172720000Y-81280000D02*
X172720000Y-88900000D01*
%TO.N,+8V*%
X170180000Y-63266000D02*
X170180000Y-76240000D01*
X170942000Y-62504000D02*
X170180000Y-63266000D01*
X170180000Y-76240000D02*
X172720000Y-78780000D01*
X170942000Y-57738000D02*
X170942000Y-62504000D01*
X175260000Y-53420000D02*
X170942000Y-57738000D01*
%TO.N,A4*%
X181315000Y-62525000D02*
X182880000Y-62525000D01*
X180340000Y-63500000D02*
X181315000Y-62525000D01*
X180340000Y-65960000D02*
X180340000Y-63500000D01*
X175260000Y-71040000D02*
X180340000Y-65960000D01*
%TO.N,A5*%
X175260000Y-66040000D02*
X181315000Y-59985000D01*
X181315000Y-59985000D02*
X182880000Y-59985000D01*
%TO.N,A6*%
X181355000Y-55920000D02*
X182880000Y-57445000D01*
X175260000Y-55920000D02*
X181355000Y-55920000D01*
%TO.N,Net-(J1-Pad1)*%
X166370000Y-81280000D02*
X166370000Y-85090000D01*
X166370000Y-85090000D02*
X160020000Y-91440000D01*
%TO.N,Net-(J1-Pad2)*%
X148590000Y-83970000D02*
X156060000Y-91440000D01*
X148590000Y-81280000D02*
X148590000Y-83970000D01*
%TO.N,+8V*%
X175260000Y-49530000D02*
X175260000Y-53420000D01*
X166370000Y-40640000D02*
X175260000Y-49530000D01*
X175260000Y-53420000D02*
X175260000Y-52365000D01*
X175260000Y-52365000D02*
X182880000Y-44745000D01*
%TO.N,Net-(J3-Pad1)*%
X213360000Y-48982000D02*
X212852000Y-48474000D01*
X210820000Y-96520000D02*
X210820000Y-88900000D01*
X210820000Y-88900000D02*
X211370000Y-88900000D01*
X213360000Y-86910000D02*
X213360000Y-48982000D01*
X211370000Y-88900000D02*
X213360000Y-86910000D01*
%TO.N,Net-(J3-Pad2)*%
X210566000Y-45974000D02*
X212852000Y-45974000D01*
X208026000Y-48514000D02*
X210566000Y-45974000D01*
X205740000Y-53340000D02*
X208026000Y-51054000D01*
X208026000Y-51054000D02*
X208026000Y-48514000D01*
%TO.N,Net-(Q1-Pad2)*%
X190500000Y-98298000D02*
X190500000Y-96520000D01*
X188214000Y-100584000D02*
X190500000Y-98298000D01*
%TO.N,Net-(Q2-Pad2)*%
X195580000Y-96520000D02*
X195580000Y-93980000D01*
X198120000Y-91440000D02*
X203200000Y-91440000D01*
X207010000Y-87630000D02*
X210820000Y-87630000D01*
X203200000Y-91440000D02*
X207010000Y-87630000D01*
X195580000Y-93980000D02*
X198120000Y-91440000D01*
%TO.N,+5V*%
X182880000Y-52365000D02*
X197145000Y-38100000D01*
X197145000Y-38100000D02*
X205740000Y-38100000D01*
%TD*%
%TA.AperFunction,Conductor*%
%TO.N,GND*%
G36*
X215334121Y-33548002D02*
G01*
X215380614Y-33601658D01*
X215392000Y-33654000D01*
X215392000Y-100966000D01*
X215371998Y-101034121D01*
X215318342Y-101080614D01*
X215266000Y-101092000D01*
X188906094Y-101092000D01*
X188837973Y-101071998D01*
X188791480Y-101018342D01*
X188781376Y-100948068D01*
X188810870Y-100883488D01*
X188816999Y-100876905D01*
X190892247Y-98801657D01*
X190900537Y-98794113D01*
X190907018Y-98790000D01*
X190953659Y-98740332D01*
X190956413Y-98737491D01*
X190976134Y-98717770D01*
X190978612Y-98714575D01*
X190986318Y-98705553D01*
X191011158Y-98679101D01*
X191016586Y-98673321D01*
X191026346Y-98655568D01*
X191037199Y-98639045D01*
X191044753Y-98629306D01*
X191049613Y-98623041D01*
X191067176Y-98582457D01*
X191072383Y-98571827D01*
X191093695Y-98533060D01*
X191095666Y-98525383D01*
X191095668Y-98525378D01*
X191098732Y-98513442D01*
X191105138Y-98494730D01*
X191110033Y-98483419D01*
X191113181Y-98476145D01*
X191114421Y-98468317D01*
X191114423Y-98468310D01*
X191120099Y-98432476D01*
X191122505Y-98420856D01*
X191131528Y-98385711D01*
X191131528Y-98385710D01*
X191133500Y-98378030D01*
X191133500Y-98357776D01*
X191135051Y-98338065D01*
X191136980Y-98325886D01*
X191138220Y-98318057D01*
X191134059Y-98274038D01*
X191133500Y-98262181D01*
X191133500Y-97739394D01*
X191153502Y-97671273D01*
X191187229Y-97636181D01*
X191339789Y-97529357D01*
X191339792Y-97529355D01*
X191344300Y-97526198D01*
X191506198Y-97364300D01*
X191637523Y-97176749D01*
X191639846Y-97171767D01*
X191639849Y-97171762D01*
X191731961Y-96974225D01*
X191731961Y-96974224D01*
X191734284Y-96969243D01*
X191739067Y-96951395D01*
X191792119Y-96753402D01*
X191792119Y-96753400D01*
X191793543Y-96748087D01*
X191813498Y-96520000D01*
X191793543Y-96291913D01*
X191734284Y-96070757D01*
X191731961Y-96065775D01*
X191639849Y-95868238D01*
X191639846Y-95868233D01*
X191637523Y-95863251D01*
X191506198Y-95675700D01*
X191344300Y-95513802D01*
X191339792Y-95510645D01*
X191339789Y-95510643D01*
X191187228Y-95403819D01*
X191156749Y-95382477D01*
X191151767Y-95380154D01*
X191151762Y-95380151D01*
X190954225Y-95288039D01*
X190954224Y-95288039D01*
X190949243Y-95285716D01*
X190943935Y-95284294D01*
X190943933Y-95284293D01*
X190733402Y-95227881D01*
X190733400Y-95227881D01*
X190728087Y-95226457D01*
X190500000Y-95206502D01*
X190271913Y-95226457D01*
X190266600Y-95227881D01*
X190266598Y-95227881D01*
X190056067Y-95284293D01*
X190056065Y-95284294D01*
X190050757Y-95285716D01*
X190045776Y-95288039D01*
X190045775Y-95288039D01*
X189848238Y-95380151D01*
X189848233Y-95380154D01*
X189843251Y-95382477D01*
X189812772Y-95403819D01*
X189660211Y-95510643D01*
X189660208Y-95510645D01*
X189655700Y-95513802D01*
X189493802Y-95675700D01*
X189362477Y-95863251D01*
X189360154Y-95868233D01*
X189360151Y-95868238D01*
X189268039Y-96065775D01*
X189265716Y-96070757D01*
X189206457Y-96291913D01*
X189186502Y-96520000D01*
X189206457Y-96748087D01*
X189207881Y-96753400D01*
X189207881Y-96753402D01*
X189260934Y-96951395D01*
X189265716Y-96969243D01*
X189268039Y-96974224D01*
X189268039Y-96974225D01*
X189360151Y-97171762D01*
X189360154Y-97171767D01*
X189362477Y-97176749D01*
X189493802Y-97364300D01*
X189655700Y-97526198D01*
X189660208Y-97529355D01*
X189660211Y-97529357D01*
X189812771Y-97636181D01*
X189857099Y-97691638D01*
X189866500Y-97739394D01*
X189866500Y-97983405D01*
X189846498Y-98051526D01*
X189829595Y-98072500D01*
X187988500Y-99913595D01*
X187926188Y-99947621D01*
X187899405Y-99950500D01*
X171510595Y-99950500D01*
X171442474Y-99930498D01*
X171421499Y-99913595D01*
X170850404Y-99342499D01*
X170816379Y-99280187D01*
X170813500Y-99253404D01*
X170813500Y-92024594D01*
X170833502Y-91956473D01*
X170850405Y-91935499D01*
X171246905Y-91538999D01*
X171309217Y-91504973D01*
X171380032Y-91510038D01*
X171436868Y-91552585D01*
X171461679Y-91619105D01*
X171462000Y-91628094D01*
X171462001Y-92009668D01*
X171462371Y-92016490D01*
X171467895Y-92067352D01*
X171471521Y-92082604D01*
X171516676Y-92203054D01*
X171525214Y-92218649D01*
X171601715Y-92320724D01*
X171614276Y-92333285D01*
X171716351Y-92409786D01*
X171731946Y-92418324D01*
X171852394Y-92463478D01*
X171867649Y-92467105D01*
X171918514Y-92472631D01*
X171925328Y-92473000D01*
X172447885Y-92473000D01*
X172463124Y-92468525D01*
X172464329Y-92467135D01*
X172466000Y-92459452D01*
X172466000Y-92454884D01*
X172974000Y-92454884D01*
X172978475Y-92470123D01*
X172979865Y-92471328D01*
X172987548Y-92472999D01*
X173514669Y-92472999D01*
X173521490Y-92472629D01*
X173572352Y-92467105D01*
X173587604Y-92463479D01*
X173708054Y-92418324D01*
X173723649Y-92409786D01*
X173825724Y-92333285D01*
X173838285Y-92320724D01*
X173914786Y-92218649D01*
X173923324Y-92203054D01*
X173968478Y-92082606D01*
X173972105Y-92067351D01*
X173977631Y-92016486D01*
X173978000Y-92009672D01*
X173978000Y-91712115D01*
X173973525Y-91696876D01*
X173972135Y-91695671D01*
X173964452Y-91694000D01*
X172992115Y-91694000D01*
X172976876Y-91698475D01*
X172975671Y-91699865D01*
X172974000Y-91707548D01*
X172974000Y-92454884D01*
X172466000Y-92454884D01*
X172466000Y-91329500D01*
X172486002Y-91261379D01*
X172539658Y-91214886D01*
X172592000Y-91203500D01*
X172996004Y-91203500D01*
X173146713Y-91188723D01*
X173149002Y-91188032D01*
X173169724Y-91186000D01*
X173959884Y-91186000D01*
X173975123Y-91181525D01*
X173976328Y-91180135D01*
X173977999Y-91172452D01*
X173977999Y-90870331D01*
X173977629Y-90863510D01*
X173972105Y-90812648D01*
X173968479Y-90797396D01*
X173923323Y-90676944D01*
X173914886Y-90661534D01*
X173899716Y-90592177D01*
X173905040Y-90563764D01*
X173915618Y-90529594D01*
X173962290Y-90378820D01*
X173970559Y-90300151D01*
X173982832Y-90183378D01*
X173982832Y-90183377D01*
X173983476Y-90177250D01*
X173971489Y-90045539D01*
X173965665Y-89981543D01*
X173965664Y-89981540D01*
X173965106Y-89975404D01*
X173951469Y-89929067D01*
X173921749Y-89828091D01*
X173907881Y-89780971D01*
X173899527Y-89764990D01*
X173845382Y-89661420D01*
X173813981Y-89601355D01*
X173814016Y-89601337D01*
X173794111Y-89535559D01*
X173809271Y-89474591D01*
X173850296Y-89398717D01*
X173902356Y-89302435D01*
X173955404Y-89131066D01*
X173960468Y-89114707D01*
X173960469Y-89114704D01*
X173962290Y-89108820D01*
X173972163Y-89014891D01*
X173982832Y-88913378D01*
X173982832Y-88913377D01*
X173983476Y-88907250D01*
X173973725Y-88800110D01*
X173965665Y-88711543D01*
X173965664Y-88711540D01*
X173965106Y-88705404D01*
X173942639Y-88629066D01*
X173909620Y-88516880D01*
X173907881Y-88510971D01*
X173903951Y-88503452D01*
X173853753Y-88407432D01*
X173813981Y-88331355D01*
X173808630Y-88324699D01*
X173690840Y-88178199D01*
X173686981Y-88173399D01*
X173531719Y-88043119D01*
X173526327Y-88040155D01*
X173526323Y-88040152D01*
X173461515Y-88004524D01*
X173418798Y-87981040D01*
X173368741Y-87930696D01*
X173353500Y-87870626D01*
X173353500Y-82633639D01*
X173373502Y-82565518D01*
X173427750Y-82518757D01*
X173528202Y-82473507D01*
X173533075Y-82471312D01*
X173724319Y-82342559D01*
X173891135Y-82183424D01*
X173933306Y-82126745D01*
X174020512Y-82009536D01*
X174028754Y-81998458D01*
X174133240Y-81792949D01*
X174145947Y-81752028D01*
X174200024Y-81577871D01*
X174201607Y-81572773D01*
X174212222Y-81492680D01*
X174231198Y-81349511D01*
X174231198Y-81349506D01*
X174231898Y-81344226D01*
X174229606Y-81283160D01*
X174223449Y-81119173D01*
X174223249Y-81113842D01*
X174202801Y-81016384D01*
X174177002Y-80893428D01*
X174175907Y-80888209D01*
X174126181Y-80762296D01*
X174093185Y-80678744D01*
X174093184Y-80678742D01*
X174091224Y-80673779D01*
X173971623Y-80476683D01*
X173884755Y-80376576D01*
X173824023Y-80306588D01*
X173824021Y-80306586D01*
X173820523Y-80302555D01*
X173784880Y-80273330D01*
X173744886Y-80214671D01*
X173742954Y-80143701D01*
X173779698Y-80082952D01*
X173798468Y-80068752D01*
X173938120Y-79982332D01*
X173944348Y-79978478D01*
X174069305Y-79853303D01*
X174138389Y-79741229D01*
X174158275Y-79708968D01*
X174158276Y-79708966D01*
X174162115Y-79702738D01*
X174193489Y-79608148D01*
X174215632Y-79541389D01*
X174215632Y-79541387D01*
X174217797Y-79534861D01*
X174220611Y-79507402D01*
X174228172Y-79433598D01*
X174228500Y-79430400D01*
X174228500Y-78129600D01*
X174217526Y-78023834D01*
X174205233Y-77986986D01*
X174163868Y-77863002D01*
X174161550Y-77856054D01*
X174068478Y-77705652D01*
X173943303Y-77580695D01*
X173937072Y-77576854D01*
X173798968Y-77491725D01*
X173798966Y-77491724D01*
X173792738Y-77487885D01*
X173693716Y-77455041D01*
X173631389Y-77434368D01*
X173631387Y-77434368D01*
X173624861Y-77432203D01*
X173618025Y-77431503D01*
X173618022Y-77431502D01*
X173574969Y-77427091D01*
X173520400Y-77421500D01*
X172309595Y-77421500D01*
X172241474Y-77401498D01*
X172220500Y-77384595D01*
X170850405Y-76014500D01*
X170816379Y-75952188D01*
X170813500Y-75925405D01*
X170813500Y-63580595D01*
X170833502Y-63512474D01*
X170850405Y-63491499D01*
X171083906Y-63257999D01*
X171334258Y-63007647D01*
X171342537Y-63000113D01*
X171349018Y-62996000D01*
X171395644Y-62946348D01*
X171398398Y-62943507D01*
X171418135Y-62923770D01*
X171420615Y-62920573D01*
X171428320Y-62911551D01*
X171431247Y-62908434D01*
X171458586Y-62879321D01*
X171462405Y-62872375D01*
X171462407Y-62872372D01*
X171468348Y-62861566D01*
X171479199Y-62845047D01*
X171486758Y-62835301D01*
X171491614Y-62829041D01*
X171494759Y-62821772D01*
X171494762Y-62821768D01*
X171509174Y-62788463D01*
X171514391Y-62777813D01*
X171535695Y-62739060D01*
X171540733Y-62719437D01*
X171547137Y-62700734D01*
X171552033Y-62689420D01*
X171552033Y-62689419D01*
X171555181Y-62682145D01*
X171556420Y-62674322D01*
X171556423Y-62674312D01*
X171562099Y-62638476D01*
X171564505Y-62626856D01*
X171573528Y-62591711D01*
X171573528Y-62591710D01*
X171575500Y-62584030D01*
X171575500Y-62563776D01*
X171577051Y-62544065D01*
X171578980Y-62531886D01*
X171580220Y-62524057D01*
X171576059Y-62480038D01*
X171575500Y-62468181D01*
X171575500Y-59067095D01*
X173777001Y-59067095D01*
X173777338Y-59073614D01*
X173787257Y-59169206D01*
X173790149Y-59182600D01*
X173841588Y-59336784D01*
X173847761Y-59349962D01*
X173933063Y-59487807D01*
X173942099Y-59499208D01*
X174056829Y-59613739D01*
X174068240Y-59622751D01*
X174206243Y-59707816D01*
X174219424Y-59713963D01*
X174373710Y-59765138D01*
X174387086Y-59768005D01*
X174481438Y-59777672D01*
X174487854Y-59778000D01*
X174987885Y-59778000D01*
X175003124Y-59773525D01*
X175004329Y-59772135D01*
X175006000Y-59764452D01*
X175006000Y-59759884D01*
X175514000Y-59759884D01*
X175518475Y-59775123D01*
X175519865Y-59776328D01*
X175527548Y-59777999D01*
X176032095Y-59777999D01*
X176038614Y-59777662D01*
X176134206Y-59767743D01*
X176147600Y-59764851D01*
X176301784Y-59713412D01*
X176314962Y-59707239D01*
X176452807Y-59621937D01*
X176464208Y-59612901D01*
X176578739Y-59498171D01*
X176587751Y-59486760D01*
X176672816Y-59348757D01*
X176678963Y-59335576D01*
X176730138Y-59181290D01*
X176733005Y-59167914D01*
X176742672Y-59073562D01*
X176743000Y-59067146D01*
X176743000Y-58692115D01*
X176738525Y-58676876D01*
X176737135Y-58675671D01*
X176729452Y-58674000D01*
X175532115Y-58674000D01*
X175516876Y-58678475D01*
X175515671Y-58679865D01*
X175514000Y-58687548D01*
X175514000Y-59759884D01*
X175006000Y-59759884D01*
X175006000Y-58692115D01*
X175001525Y-58676876D01*
X175000135Y-58675671D01*
X174992452Y-58674000D01*
X173795116Y-58674000D01*
X173779877Y-58678475D01*
X173778672Y-58679865D01*
X173777001Y-58687548D01*
X173777001Y-59067095D01*
X171575500Y-59067095D01*
X171575500Y-58052594D01*
X171595502Y-57984473D01*
X171612405Y-57963499D01*
X173567551Y-56008353D01*
X173629863Y-55974327D01*
X173700678Y-55979392D01*
X173757514Y-56021939D01*
X173781587Y-56081798D01*
X173781751Y-56086158D01*
X173782848Y-56091385D01*
X173782848Y-56091387D01*
X173798072Y-56163944D01*
X173829093Y-56311791D01*
X173831051Y-56316750D01*
X173831052Y-56316752D01*
X173838487Y-56335577D01*
X173913776Y-56526221D01*
X174033377Y-56723317D01*
X174036874Y-56727347D01*
X174123438Y-56827103D01*
X174184477Y-56897445D01*
X174188608Y-56900832D01*
X174220529Y-56927006D01*
X174260524Y-56985666D01*
X174262455Y-57056636D01*
X174225710Y-57117384D01*
X174206941Y-57131584D01*
X174067193Y-57218063D01*
X174055792Y-57227099D01*
X173941261Y-57341829D01*
X173932249Y-57353240D01*
X173847184Y-57491243D01*
X173841037Y-57504424D01*
X173789862Y-57658710D01*
X173786995Y-57672086D01*
X173777328Y-57766438D01*
X173777000Y-57772855D01*
X173777000Y-58147885D01*
X173781475Y-58163124D01*
X173782865Y-58164329D01*
X173790548Y-58166000D01*
X176724884Y-58166000D01*
X176740123Y-58161525D01*
X176741328Y-58160135D01*
X176742999Y-58152452D01*
X176742999Y-57772905D01*
X176742662Y-57766386D01*
X176732743Y-57670794D01*
X176729851Y-57657400D01*
X176678412Y-57503216D01*
X176672239Y-57490038D01*
X176586937Y-57352193D01*
X176577901Y-57340792D01*
X176463171Y-57226261D01*
X176451757Y-57217247D01*
X176312287Y-57131277D01*
X176264793Y-57078505D01*
X176253369Y-57008434D01*
X176281643Y-56943310D01*
X176291430Y-56932847D01*
X176324991Y-56900832D01*
X176406135Y-56823424D01*
X176543754Y-56638458D01*
X176546170Y-56633706D01*
X176546175Y-56633698D01*
X176551922Y-56622394D01*
X176600625Y-56570737D01*
X176664238Y-56553500D01*
X181040406Y-56553500D01*
X181108527Y-56573502D01*
X181129501Y-56590405D01*
X181599424Y-57060328D01*
X181633450Y-57122640D01*
X181632036Y-57182033D01*
X181622480Y-57217697D01*
X181622479Y-57217704D01*
X181621056Y-57223014D01*
X181601635Y-57445000D01*
X181621056Y-57666986D01*
X181678730Y-57882227D01*
X181681052Y-57887208D01*
X181681053Y-57887209D01*
X181770577Y-58079195D01*
X181770580Y-58079200D01*
X181772903Y-58084182D01*
X181900716Y-58266717D01*
X182058283Y-58424284D01*
X182240817Y-58552097D01*
X182245802Y-58554421D01*
X182245808Y-58554425D01*
X182345272Y-58600805D01*
X182398558Y-58647722D01*
X182418019Y-58715999D01*
X182397478Y-58783959D01*
X182345273Y-58829195D01*
X182245805Y-58875577D01*
X182245800Y-58875580D01*
X182240818Y-58877903D01*
X182058283Y-59005716D01*
X181900716Y-59163283D01*
X181897559Y-59167791D01*
X181897557Y-59167794D01*
X181806546Y-59297771D01*
X181751089Y-59342099D01*
X181703333Y-59351500D01*
X181393767Y-59351500D01*
X181382584Y-59350973D01*
X181375091Y-59349298D01*
X181367165Y-59349547D01*
X181367164Y-59349547D01*
X181307014Y-59351438D01*
X181303055Y-59351500D01*
X181275144Y-59351500D01*
X181271210Y-59351997D01*
X181271209Y-59351997D01*
X181271144Y-59352005D01*
X181259307Y-59352938D01*
X181227490Y-59353938D01*
X181223029Y-59354078D01*
X181215110Y-59354327D01*
X181197454Y-59359456D01*
X181195658Y-59359978D01*
X181176306Y-59363986D01*
X181169235Y-59364880D01*
X181156203Y-59366526D01*
X181148834Y-59369443D01*
X181148832Y-59369444D01*
X181115097Y-59382800D01*
X181103869Y-59386645D01*
X181061407Y-59398982D01*
X181054584Y-59403017D01*
X181054582Y-59403018D01*
X181043972Y-59409293D01*
X181026224Y-59417988D01*
X181007383Y-59425448D01*
X181000967Y-59430110D01*
X181000966Y-59430110D01*
X180971613Y-59451436D01*
X180961693Y-59457952D01*
X180930465Y-59476420D01*
X180930462Y-59476422D01*
X180923638Y-59480458D01*
X180909317Y-59494779D01*
X180894284Y-59507619D01*
X180877893Y-59519528D01*
X180872842Y-59525634D01*
X180849702Y-59553605D01*
X180841712Y-59562384D01*
X175759500Y-64644595D01*
X175697188Y-64678621D01*
X175670405Y-64681500D01*
X174484600Y-64681500D01*
X174481354Y-64681837D01*
X174481350Y-64681837D01*
X174385692Y-64691762D01*
X174385688Y-64691763D01*
X174378834Y-64692474D01*
X174372298Y-64694655D01*
X174372296Y-64694655D01*
X174240194Y-64738728D01*
X174211054Y-64748450D01*
X174060652Y-64841522D01*
X173935695Y-64966697D01*
X173931855Y-64972927D01*
X173931854Y-64972928D01*
X173850408Y-65105058D01*
X173842885Y-65117262D01*
X173840581Y-65124209D01*
X173797189Y-65255033D01*
X173787203Y-65285139D01*
X173786503Y-65291975D01*
X173786502Y-65291978D01*
X173782815Y-65327967D01*
X173776500Y-65389600D01*
X173776500Y-66690400D01*
X173787474Y-66796166D01*
X173843450Y-66963946D01*
X173936522Y-67114348D01*
X174061697Y-67239305D01*
X174207258Y-67329030D01*
X174207780Y-67329352D01*
X174255273Y-67382124D01*
X174266697Y-67452196D01*
X174238423Y-67517320D01*
X174228636Y-67527782D01*
X174118094Y-67633234D01*
X174111059Y-67641186D01*
X173979859Y-67817525D01*
X173974255Y-67826562D01*
X173874643Y-68022484D01*
X173870643Y-68032335D01*
X173805466Y-68242240D01*
X173803183Y-68252624D01*
X173801139Y-68268043D01*
X173803335Y-68282207D01*
X173816522Y-68286000D01*
X175388000Y-68286000D01*
X175456121Y-68306002D01*
X175502614Y-68359658D01*
X175514000Y-68412000D01*
X175514000Y-68668000D01*
X175493998Y-68736121D01*
X175440342Y-68782614D01*
X175388000Y-68794000D01*
X173818808Y-68794000D01*
X173805277Y-68797973D01*
X173803752Y-68808580D01*
X173828477Y-68926421D01*
X173831537Y-68936617D01*
X173912263Y-69141029D01*
X173916994Y-69150561D01*
X174031016Y-69338462D01*
X174037280Y-69347052D01*
X174181327Y-69513052D01*
X174188958Y-69520472D01*
X174358911Y-69659826D01*
X174367674Y-69665848D01*
X174394711Y-69681238D01*
X174444018Y-69732320D01*
X174457880Y-69801951D01*
X174431897Y-69868022D01*
X174402747Y-69895261D01*
X174369416Y-69917701D01*
X174280681Y-69977441D01*
X174276824Y-69981120D01*
X174276822Y-69981122D01*
X174207464Y-70047287D01*
X174113865Y-70136576D01*
X173976246Y-70321542D01*
X173871760Y-70527051D01*
X173870178Y-70532145D01*
X173870177Y-70532148D01*
X173837455Y-70637531D01*
X173803393Y-70747227D01*
X173802692Y-70752516D01*
X173787304Y-70868623D01*
X173773102Y-70975774D01*
X173781751Y-71206158D01*
X173829093Y-71431791D01*
X173831051Y-71436750D01*
X173831052Y-71436752D01*
X173888043Y-71581060D01*
X173913776Y-71646221D01*
X173916543Y-71650780D01*
X173916544Y-71650783D01*
X173957153Y-71717704D01*
X174033377Y-71843317D01*
X174036874Y-71847347D01*
X174123438Y-71947103D01*
X174184477Y-72017445D01*
X174219080Y-72045818D01*
X174358627Y-72160240D01*
X174358633Y-72160244D01*
X174362755Y-72163624D01*
X174367391Y-72166263D01*
X174367394Y-72166265D01*
X174510584Y-72247773D01*
X174563114Y-72277675D01*
X174779825Y-72356337D01*
X174785074Y-72357286D01*
X174785077Y-72357287D01*
X175002608Y-72396623D01*
X175002615Y-72396624D01*
X175006692Y-72397361D01*
X175024414Y-72398197D01*
X175029356Y-72398430D01*
X175029363Y-72398430D01*
X175030844Y-72398500D01*
X175442890Y-72398500D01*
X175512046Y-72392632D01*
X175609409Y-72384371D01*
X175609413Y-72384370D01*
X175614720Y-72383920D01*
X175619875Y-72382582D01*
X175619881Y-72382581D01*
X175832703Y-72327343D01*
X175832707Y-72327342D01*
X175837872Y-72326001D01*
X175842738Y-72323809D01*
X175842741Y-72323808D01*
X176043202Y-72233507D01*
X176048075Y-72231312D01*
X176239319Y-72102559D01*
X176406135Y-71943424D01*
X176543754Y-71758458D01*
X176564475Y-71717704D01*
X176603342Y-71641256D01*
X176648240Y-71552949D01*
X176665343Y-71497871D01*
X176715024Y-71337871D01*
X176716607Y-71332773D01*
X176727718Y-71248940D01*
X176746198Y-71109511D01*
X176746198Y-71109506D01*
X176746898Y-71104226D01*
X176738249Y-70873842D01*
X176719437Y-70784182D01*
X176692004Y-70653435D01*
X176692002Y-70653430D01*
X176690907Y-70648209D01*
X176680734Y-70622449D01*
X176674316Y-70551743D01*
X176708831Y-70487073D01*
X176951405Y-70244499D01*
X177013717Y-70210473D01*
X177084532Y-70215538D01*
X177141368Y-70258085D01*
X177166179Y-70324605D01*
X177166500Y-70333594D01*
X177166500Y-86281233D01*
X177165973Y-86292416D01*
X177164298Y-86299909D01*
X177164547Y-86307835D01*
X177164547Y-86307836D01*
X177166438Y-86367986D01*
X177166500Y-86371945D01*
X177166500Y-86399856D01*
X177166997Y-86403790D01*
X177166997Y-86403791D01*
X177167005Y-86403856D01*
X177167938Y-86415693D01*
X177169327Y-86459889D01*
X177174978Y-86479339D01*
X177178987Y-86498700D01*
X177181526Y-86518797D01*
X177184445Y-86526168D01*
X177184445Y-86526170D01*
X177197804Y-86559912D01*
X177201649Y-86571142D01*
X177209130Y-86596893D01*
X177213982Y-86613593D01*
X177218015Y-86620412D01*
X177218017Y-86620417D01*
X177224293Y-86631028D01*
X177232988Y-86648776D01*
X177240448Y-86667617D01*
X177245110Y-86674033D01*
X177245110Y-86674034D01*
X177266436Y-86703387D01*
X177272952Y-86713307D01*
X177295458Y-86751362D01*
X177309779Y-86765683D01*
X177322619Y-86780716D01*
X177334528Y-86797107D01*
X177340634Y-86802158D01*
X177368605Y-86825298D01*
X177377384Y-86833288D01*
X181570848Y-91026752D01*
X181604874Y-91089064D01*
X181603459Y-91148459D01*
X181587882Y-91206591D01*
X181587881Y-91206598D01*
X181586457Y-91211913D01*
X181566502Y-91440000D01*
X181586457Y-91668087D01*
X181587880Y-91673398D01*
X181587881Y-91673402D01*
X181603460Y-91731541D01*
X181645716Y-91889243D01*
X181648039Y-91894224D01*
X181648039Y-91894225D01*
X181740151Y-92091762D01*
X181740154Y-92091767D01*
X181742477Y-92096749D01*
X181784681Y-92157022D01*
X181827833Y-92218649D01*
X181873802Y-92284300D01*
X182035700Y-92446198D01*
X182040208Y-92449355D01*
X182040211Y-92449357D01*
X182073977Y-92473000D01*
X182223251Y-92577523D01*
X182228233Y-92579846D01*
X182228238Y-92579849D01*
X182425775Y-92671961D01*
X182430757Y-92674284D01*
X182436065Y-92675706D01*
X182436067Y-92675707D01*
X182646598Y-92732119D01*
X182646600Y-92732119D01*
X182651913Y-92733543D01*
X182880000Y-92753498D01*
X183108087Y-92733543D01*
X183113400Y-92732119D01*
X183113402Y-92732119D01*
X183323933Y-92675707D01*
X183323935Y-92675706D01*
X183329243Y-92674284D01*
X183334225Y-92671961D01*
X183531762Y-92579849D01*
X183531767Y-92579846D01*
X183536749Y-92577523D01*
X183686023Y-92473000D01*
X183719789Y-92449357D01*
X183719792Y-92449355D01*
X183724300Y-92446198D01*
X183886198Y-92284300D01*
X183932168Y-92218649D01*
X183975319Y-92157022D01*
X184017523Y-92096749D01*
X184019846Y-92091767D01*
X184019849Y-92091762D01*
X184111961Y-91894225D01*
X184111961Y-91894224D01*
X184114284Y-91889243D01*
X184156541Y-91731541D01*
X184172119Y-91673402D01*
X184172120Y-91673398D01*
X184173543Y-91668087D01*
X184193498Y-91440000D01*
X184173543Y-91211913D01*
X184163146Y-91173112D01*
X184115707Y-90996067D01*
X184115706Y-90996065D01*
X184114284Y-90990757D01*
X184083399Y-90924523D01*
X184019849Y-90788238D01*
X184019846Y-90788233D01*
X184017523Y-90783251D01*
X183886198Y-90595700D01*
X183724300Y-90433802D01*
X183719792Y-90430645D01*
X183719789Y-90430643D01*
X183637029Y-90372694D01*
X183536749Y-90302477D01*
X183531767Y-90300154D01*
X183531762Y-90300151D01*
X183334225Y-90208039D01*
X183334224Y-90208039D01*
X183329243Y-90205716D01*
X183323935Y-90204294D01*
X183323933Y-90204293D01*
X183113402Y-90147881D01*
X183113400Y-90147881D01*
X183108087Y-90146457D01*
X182880000Y-90126502D01*
X182651913Y-90146457D01*
X182646602Y-90147880D01*
X182646591Y-90147882D01*
X182588459Y-90163459D01*
X182517483Y-90161770D01*
X182466752Y-90130848D01*
X178470405Y-86134500D01*
X178436379Y-86072188D01*
X178433500Y-86045405D01*
X178433500Y-70459594D01*
X178453502Y-70391473D01*
X178470405Y-70370499D01*
X181391912Y-67448992D01*
X181454224Y-67414966D01*
X181525039Y-67420031D01*
X181581875Y-67462578D01*
X181606686Y-67529098D01*
X181606528Y-67549068D01*
X181601635Y-67605000D01*
X181621056Y-67826986D01*
X181659520Y-67970536D01*
X181663744Y-67986297D01*
X181678730Y-68042227D01*
X181681052Y-68047208D01*
X181681053Y-68047209D01*
X181770577Y-68239195D01*
X181770580Y-68239200D01*
X181772903Y-68244182D01*
X181821390Y-68313428D01*
X181853761Y-68359658D01*
X181900716Y-68426717D01*
X182058283Y-68584284D01*
X182240817Y-68712097D01*
X182245802Y-68714421D01*
X182245808Y-68714425D01*
X182345272Y-68760805D01*
X182398558Y-68807722D01*
X182418019Y-68875999D01*
X182397478Y-68943959D01*
X182345273Y-68989195D01*
X182245805Y-69035577D01*
X182245800Y-69035580D01*
X182240818Y-69037903D01*
X182171312Y-69086572D01*
X182093540Y-69141029D01*
X182058283Y-69165716D01*
X181900716Y-69323283D01*
X181897559Y-69327791D01*
X181897557Y-69327794D01*
X181844472Y-69403608D01*
X181772903Y-69505818D01*
X181770580Y-69510800D01*
X181770577Y-69510805D01*
X181681053Y-69702791D01*
X181678730Y-69707773D01*
X181677308Y-69713081D01*
X181677307Y-69713083D01*
X181666344Y-69753999D01*
X181621056Y-69923014D01*
X181601635Y-70145000D01*
X181621056Y-70366986D01*
X181650604Y-70477260D01*
X181676788Y-70574978D01*
X181678730Y-70582227D01*
X181681052Y-70587208D01*
X181681053Y-70587209D01*
X181770577Y-70779195D01*
X181770580Y-70779200D01*
X181772903Y-70784182D01*
X181900716Y-70966717D01*
X182058283Y-71124284D01*
X182240817Y-71252097D01*
X182245802Y-71254421D01*
X182245808Y-71254425D01*
X182345272Y-71300805D01*
X182398558Y-71347722D01*
X182418019Y-71415999D01*
X182397478Y-71483959D01*
X182345273Y-71529195D01*
X182245805Y-71575577D01*
X182245800Y-71575580D01*
X182240818Y-71577903D01*
X182058283Y-71705716D01*
X181900716Y-71863283D01*
X181897559Y-71867791D01*
X181897557Y-71867794D01*
X181847596Y-71939146D01*
X181772903Y-72045818D01*
X181770580Y-72050800D01*
X181770577Y-72050805D01*
X181713405Y-72173412D01*
X181678730Y-72247773D01*
X181677308Y-72253081D01*
X181677307Y-72253083D01*
X181659520Y-72319465D01*
X181621056Y-72463014D01*
X181601635Y-72685000D01*
X181621056Y-72906986D01*
X181622479Y-72912296D01*
X181622480Y-72912303D01*
X181632036Y-72947966D01*
X181630346Y-73018942D01*
X181599424Y-73069671D01*
X179947747Y-74721348D01*
X179939461Y-74728888D01*
X179932982Y-74733000D01*
X179927557Y-74738777D01*
X179886357Y-74782651D01*
X179883602Y-74785493D01*
X179863865Y-74805230D01*
X179861385Y-74808427D01*
X179853682Y-74817447D01*
X179823414Y-74849679D01*
X179819595Y-74856625D01*
X179819593Y-74856628D01*
X179813652Y-74867434D01*
X179802801Y-74883953D01*
X179790386Y-74899959D01*
X179787241Y-74907228D01*
X179787238Y-74907232D01*
X179772826Y-74940537D01*
X179767609Y-74951187D01*
X179746305Y-74989940D01*
X179744334Y-74997615D01*
X179744334Y-74997616D01*
X179741267Y-75009562D01*
X179734863Y-75028266D01*
X179726819Y-75046855D01*
X179725580Y-75054678D01*
X179725577Y-75054688D01*
X179719901Y-75090524D01*
X179717495Y-75102144D01*
X179712441Y-75121829D01*
X179706500Y-75144970D01*
X179706500Y-75165224D01*
X179704949Y-75184934D01*
X179701780Y-75204943D01*
X179702526Y-75212835D01*
X179705941Y-75248961D01*
X179706500Y-75260819D01*
X179706500Y-83741233D01*
X179705973Y-83752416D01*
X179704298Y-83759909D01*
X179704547Y-83767835D01*
X179704547Y-83767836D01*
X179706438Y-83827986D01*
X179706500Y-83831945D01*
X179706500Y-83859856D01*
X179706997Y-83863790D01*
X179706997Y-83863791D01*
X179707005Y-83863856D01*
X179707938Y-83875693D01*
X179709327Y-83919889D01*
X179714978Y-83939339D01*
X179718987Y-83958700D01*
X179721526Y-83978797D01*
X179724445Y-83986168D01*
X179724445Y-83986170D01*
X179737804Y-84019912D01*
X179741649Y-84031142D01*
X179753982Y-84073593D01*
X179758015Y-84080412D01*
X179758017Y-84080417D01*
X179764293Y-84091028D01*
X179772988Y-84108776D01*
X179780448Y-84127617D01*
X179785110Y-84134033D01*
X179785110Y-84134034D01*
X179806436Y-84163387D01*
X179812952Y-84173307D01*
X179835458Y-84211362D01*
X179849779Y-84225683D01*
X179862619Y-84240716D01*
X179874528Y-84257107D01*
X179899320Y-84277617D01*
X179908605Y-84285298D01*
X179917384Y-84293288D01*
X182376343Y-86752247D01*
X182383887Y-86760537D01*
X182388000Y-86767018D01*
X182393777Y-86772443D01*
X182437667Y-86813658D01*
X182440509Y-86816413D01*
X182460230Y-86836134D01*
X182463425Y-86838612D01*
X182472447Y-86846318D01*
X182504679Y-86876586D01*
X182511628Y-86880406D01*
X182522432Y-86886346D01*
X182538956Y-86897199D01*
X182554959Y-86909613D01*
X182595543Y-86927176D01*
X182606173Y-86932383D01*
X182644940Y-86953695D01*
X182652617Y-86955666D01*
X182652622Y-86955668D01*
X182664558Y-86958732D01*
X182683266Y-86965137D01*
X182701855Y-86973181D01*
X182709680Y-86974420D01*
X182709682Y-86974421D01*
X182745519Y-86980097D01*
X182757140Y-86982504D01*
X182792289Y-86991528D01*
X182799970Y-86993500D01*
X182820231Y-86993500D01*
X182839940Y-86995051D01*
X182859943Y-86998219D01*
X182867835Y-86997473D01*
X182873062Y-86996979D01*
X182903954Y-86994059D01*
X182915811Y-86993500D01*
X190185406Y-86993500D01*
X190253527Y-87013502D01*
X190274501Y-87030405D01*
X192055001Y-88810905D01*
X192089027Y-88873217D01*
X192083962Y-88944032D01*
X192055001Y-88989095D01*
X189871643Y-91172452D01*
X187734500Y-93309595D01*
X187672188Y-93343621D01*
X187645405Y-93346500D01*
X185498763Y-93346500D01*
X185487579Y-93345973D01*
X185480091Y-93344299D01*
X185472168Y-93344548D01*
X185412033Y-93346438D01*
X185408075Y-93346500D01*
X185380144Y-93346500D01*
X185376229Y-93346995D01*
X185376225Y-93346995D01*
X185376167Y-93347003D01*
X185376138Y-93347006D01*
X185364296Y-93347939D01*
X185320110Y-93349327D01*
X185302744Y-93354372D01*
X185300658Y-93354978D01*
X185281306Y-93358986D01*
X185269068Y-93360532D01*
X185269066Y-93360533D01*
X185261203Y-93361526D01*
X185220086Y-93377806D01*
X185208885Y-93381641D01*
X185166406Y-93393982D01*
X185159587Y-93398015D01*
X185159582Y-93398017D01*
X185148971Y-93404293D01*
X185131221Y-93412990D01*
X185112383Y-93420448D01*
X185105967Y-93425109D01*
X185105966Y-93425110D01*
X185076625Y-93446428D01*
X185066701Y-93452947D01*
X185035460Y-93471422D01*
X185035455Y-93471426D01*
X185028637Y-93475458D01*
X185014313Y-93489782D01*
X184999281Y-93502621D01*
X184982893Y-93514528D01*
X184963764Y-93537651D01*
X184954712Y-93548593D01*
X184946722Y-93557373D01*
X182654500Y-95849595D01*
X182592188Y-95883621D01*
X182565405Y-95886500D01*
X176479394Y-95886500D01*
X176411273Y-95866498D01*
X176376181Y-95832771D01*
X176269357Y-95680211D01*
X176269355Y-95680208D01*
X176266198Y-95675700D01*
X176104300Y-95513802D01*
X176099792Y-95510645D01*
X176099789Y-95510643D01*
X175947228Y-95403819D01*
X175916749Y-95382477D01*
X175911767Y-95380154D01*
X175911762Y-95380151D01*
X175714225Y-95288039D01*
X175714224Y-95288039D01*
X175709243Y-95285716D01*
X175703935Y-95284294D01*
X175703933Y-95284293D01*
X175493402Y-95227881D01*
X175493400Y-95227881D01*
X175488087Y-95226457D01*
X175260000Y-95206502D01*
X175031913Y-95226457D01*
X175026600Y-95227881D01*
X175026598Y-95227881D01*
X174816067Y-95284293D01*
X174816065Y-95284294D01*
X174810757Y-95285716D01*
X174805776Y-95288039D01*
X174805775Y-95288039D01*
X174608238Y-95380151D01*
X174608233Y-95380154D01*
X174603251Y-95382477D01*
X174572772Y-95403819D01*
X174420211Y-95510643D01*
X174420208Y-95510645D01*
X174415700Y-95513802D01*
X174253802Y-95675700D01*
X174122477Y-95863251D01*
X174120154Y-95868233D01*
X174120151Y-95868238D01*
X174028039Y-96065775D01*
X174025716Y-96070757D01*
X173966457Y-96291913D01*
X173946502Y-96520000D01*
X173966457Y-96748087D01*
X173967881Y-96753400D01*
X173967881Y-96753402D01*
X174020934Y-96951395D01*
X174025716Y-96969243D01*
X174028039Y-96974224D01*
X174028039Y-96974225D01*
X174120151Y-97171762D01*
X174120154Y-97171767D01*
X174122477Y-97176749D01*
X174253802Y-97364300D01*
X174415700Y-97526198D01*
X174420208Y-97529355D01*
X174420211Y-97529357D01*
X174498389Y-97584098D01*
X174603251Y-97657523D01*
X174608233Y-97659846D01*
X174608238Y-97659849D01*
X174778825Y-97739394D01*
X174810757Y-97754284D01*
X174816065Y-97755706D01*
X174816067Y-97755707D01*
X175026598Y-97812119D01*
X175026600Y-97812119D01*
X175031913Y-97813543D01*
X175260000Y-97833498D01*
X175488087Y-97813543D01*
X175493400Y-97812119D01*
X175493402Y-97812119D01*
X175703933Y-97755707D01*
X175703935Y-97755706D01*
X175709243Y-97754284D01*
X175741175Y-97739394D01*
X175911762Y-97659849D01*
X175911767Y-97659846D01*
X175916749Y-97657523D01*
X176021611Y-97584098D01*
X176099789Y-97529357D01*
X176099792Y-97529355D01*
X176104300Y-97526198D01*
X176266198Y-97364300D01*
X176376181Y-97207229D01*
X176431638Y-97162901D01*
X176479394Y-97153500D01*
X182801233Y-97153500D01*
X182812416Y-97154027D01*
X182819909Y-97155702D01*
X182827835Y-97155453D01*
X182827836Y-97155453D01*
X182887986Y-97153562D01*
X182891945Y-97153500D01*
X182919856Y-97153500D01*
X182923791Y-97153003D01*
X182923856Y-97152995D01*
X182935693Y-97152062D01*
X182967951Y-97151048D01*
X182971970Y-97150922D01*
X182979889Y-97150673D01*
X182999343Y-97145021D01*
X183018700Y-97141013D01*
X183030930Y-97139468D01*
X183030931Y-97139468D01*
X183038797Y-97138474D01*
X183046168Y-97135555D01*
X183046170Y-97135555D01*
X183079912Y-97122196D01*
X183091142Y-97118351D01*
X183125983Y-97108229D01*
X183125984Y-97108229D01*
X183133593Y-97106018D01*
X183140412Y-97101985D01*
X183140417Y-97101983D01*
X183151028Y-97095707D01*
X183168776Y-97087012D01*
X183187617Y-97079552D01*
X183223387Y-97053564D01*
X183233307Y-97047048D01*
X183264535Y-97028580D01*
X183264538Y-97028578D01*
X183271362Y-97024542D01*
X183285683Y-97010221D01*
X183300717Y-96997380D01*
X183310694Y-96990131D01*
X183317107Y-96985472D01*
X183345298Y-96951395D01*
X183353288Y-96942616D01*
X185645499Y-94650405D01*
X185707811Y-94616379D01*
X185734594Y-94613500D01*
X187881233Y-94613500D01*
X187892416Y-94614027D01*
X187899909Y-94615702D01*
X187907835Y-94615453D01*
X187907836Y-94615453D01*
X187967986Y-94613562D01*
X187971945Y-94613500D01*
X187999856Y-94613500D01*
X188003791Y-94613003D01*
X188003856Y-94612995D01*
X188015693Y-94612062D01*
X188047951Y-94611048D01*
X188051970Y-94610922D01*
X188059889Y-94610673D01*
X188079343Y-94605021D01*
X188098700Y-94601013D01*
X188110930Y-94599468D01*
X188110931Y-94599468D01*
X188118797Y-94598474D01*
X188126168Y-94595555D01*
X188126170Y-94595555D01*
X188159912Y-94582196D01*
X188171142Y-94578351D01*
X188205983Y-94568229D01*
X188205984Y-94568229D01*
X188213593Y-94566018D01*
X188220412Y-94561985D01*
X188220417Y-94561983D01*
X188231028Y-94555707D01*
X188248776Y-94547012D01*
X188267617Y-94539552D01*
X188303387Y-94513564D01*
X188313307Y-94507048D01*
X188344535Y-94488580D01*
X188344538Y-94488578D01*
X188351362Y-94484542D01*
X188365683Y-94470221D01*
X188380717Y-94457380D01*
X188390694Y-94450131D01*
X188397107Y-94445472D01*
X188425298Y-94411395D01*
X188433288Y-94402616D01*
X193437188Y-89398717D01*
X193455458Y-89383602D01*
X193455713Y-89383429D01*
X193455717Y-89383426D01*
X193462270Y-89378972D01*
X193467509Y-89373030D01*
X193467512Y-89373027D01*
X193499403Y-89336853D01*
X193504822Y-89331083D01*
X193516135Y-89319770D01*
X193518560Y-89316644D01*
X193518565Y-89316638D01*
X193525941Y-89307128D01*
X193530990Y-89301025D01*
X193562877Y-89264857D01*
X193562880Y-89264852D01*
X193568120Y-89258909D01*
X193571856Y-89251577D01*
X193584569Y-89231545D01*
X193584756Y-89231304D01*
X193584757Y-89231303D01*
X193589614Y-89225041D01*
X193592760Y-89217771D01*
X193592763Y-89217766D01*
X193611922Y-89173491D01*
X193615284Y-89166344D01*
X193640785Y-89116296D01*
X193642583Y-89108254D01*
X193649908Y-89085710D01*
X193650034Y-89085419D01*
X193650035Y-89085415D01*
X193653181Y-89078145D01*
X193661968Y-89022666D01*
X193663451Y-89014891D01*
X193675701Y-88960091D01*
X193675442Y-88951859D01*
X193676932Y-88928191D01*
X193678220Y-88920057D01*
X193677474Y-88912162D01*
X193672934Y-88864136D01*
X193672437Y-88856236D01*
X193670922Y-88808035D01*
X193670673Y-88800110D01*
X193668375Y-88792201D01*
X193663932Y-88768907D01*
X193663903Y-88768598D01*
X193663903Y-88768597D01*
X193663157Y-88760708D01*
X193644134Y-88707868D01*
X193641688Y-88700342D01*
X193628229Y-88654017D01*
X193626018Y-88646406D01*
X193621827Y-88639319D01*
X193611728Y-88617858D01*
X193611625Y-88617573D01*
X193608939Y-88610111D01*
X193577371Y-88563661D01*
X193573129Y-88556976D01*
X193548579Y-88515463D01*
X193548578Y-88515462D01*
X193544542Y-88508637D01*
X193538720Y-88502815D01*
X193523604Y-88484545D01*
X193518972Y-88477729D01*
X193476845Y-88440589D01*
X193471075Y-88435170D01*
X191123790Y-86087885D01*
X209562000Y-86087885D01*
X209566475Y-86103124D01*
X209567865Y-86104329D01*
X209575548Y-86106000D01*
X210547885Y-86106000D01*
X210563124Y-86101525D01*
X210564329Y-86100135D01*
X210566000Y-86092452D01*
X210566000Y-86087885D01*
X211074000Y-86087885D01*
X211078475Y-86103124D01*
X211079865Y-86104329D01*
X211087548Y-86106000D01*
X212059884Y-86106000D01*
X212075123Y-86101525D01*
X212076328Y-86100135D01*
X212077999Y-86092452D01*
X212077999Y-85790331D01*
X212077629Y-85783510D01*
X212072105Y-85732648D01*
X212068479Y-85717396D01*
X212023324Y-85596946D01*
X212014786Y-85581351D01*
X211938285Y-85479276D01*
X211925724Y-85466715D01*
X211823649Y-85390214D01*
X211808054Y-85381676D01*
X211687606Y-85336522D01*
X211672351Y-85332895D01*
X211621486Y-85327369D01*
X211614672Y-85327000D01*
X211092115Y-85327000D01*
X211076876Y-85331475D01*
X211075671Y-85332865D01*
X211074000Y-85340548D01*
X211074000Y-86087885D01*
X210566000Y-86087885D01*
X210566000Y-85345116D01*
X210561525Y-85329877D01*
X210560135Y-85328672D01*
X210552452Y-85327001D01*
X210025331Y-85327001D01*
X210018510Y-85327371D01*
X209967648Y-85332895D01*
X209952396Y-85336521D01*
X209831946Y-85381676D01*
X209816351Y-85390214D01*
X209714276Y-85466715D01*
X209701715Y-85479276D01*
X209625214Y-85581351D01*
X209616676Y-85596946D01*
X209571522Y-85717394D01*
X209567895Y-85732649D01*
X209562369Y-85783514D01*
X209562000Y-85790328D01*
X209562000Y-86087885D01*
X191123790Y-86087885D01*
X191003652Y-85967747D01*
X190996112Y-85959461D01*
X190992000Y-85952982D01*
X190942348Y-85906356D01*
X190939507Y-85903602D01*
X190919770Y-85883865D01*
X190916573Y-85881385D01*
X190907551Y-85873680D01*
X190881100Y-85848841D01*
X190875321Y-85843414D01*
X190868375Y-85839595D01*
X190868372Y-85839593D01*
X190857566Y-85833652D01*
X190841047Y-85822801D01*
X190840583Y-85822441D01*
X190825041Y-85810386D01*
X190817772Y-85807241D01*
X190817768Y-85807238D01*
X190784463Y-85792826D01*
X190773813Y-85787609D01*
X190735060Y-85766305D01*
X190715437Y-85761267D01*
X190696734Y-85754863D01*
X190685420Y-85749967D01*
X190685419Y-85749967D01*
X190678145Y-85746819D01*
X190670322Y-85745580D01*
X190670312Y-85745577D01*
X190634476Y-85739901D01*
X190622856Y-85737495D01*
X190587711Y-85728472D01*
X190587710Y-85728472D01*
X190580030Y-85726500D01*
X190559776Y-85726500D01*
X190540065Y-85724949D01*
X190527886Y-85723020D01*
X190520057Y-85721780D01*
X190512165Y-85722526D01*
X190476039Y-85725941D01*
X190464181Y-85726500D01*
X183194595Y-85726500D01*
X183126474Y-85706498D01*
X183105500Y-85689595D01*
X181010405Y-83594500D01*
X180976379Y-83532188D01*
X180973500Y-83505405D01*
X180973500Y-75539594D01*
X180993502Y-75471473D01*
X181010405Y-75450499D01*
X181391912Y-75068992D01*
X181454224Y-75034966D01*
X181525039Y-75040031D01*
X181581875Y-75082578D01*
X181606686Y-75149098D01*
X181606528Y-75169068D01*
X181601635Y-75225000D01*
X181621056Y-75446986D01*
X181678730Y-75662227D01*
X181681052Y-75667208D01*
X181681053Y-75667209D01*
X181770577Y-75859195D01*
X181770580Y-75859200D01*
X181772903Y-75864182D01*
X181900716Y-76046717D01*
X182058283Y-76204284D01*
X182062792Y-76207441D01*
X182062794Y-76207443D01*
X182126349Y-76251945D01*
X182240817Y-76332097D01*
X182245802Y-76334421D01*
X182245808Y-76334425D01*
X182345272Y-76380805D01*
X182398558Y-76427722D01*
X182418019Y-76495999D01*
X182397478Y-76563959D01*
X182345273Y-76609195D01*
X182245805Y-76655577D01*
X182245800Y-76655580D01*
X182240818Y-76657903D01*
X182058283Y-76785716D01*
X181900716Y-76943283D01*
X181897559Y-76947791D01*
X181897557Y-76947794D01*
X181888107Y-76961290D01*
X181772903Y-77125818D01*
X181770580Y-77130800D01*
X181770577Y-77130805D01*
X181704007Y-77273566D01*
X181678730Y-77327773D01*
X181621056Y-77543014D01*
X181601635Y-77765000D01*
X181621056Y-77986986D01*
X181678730Y-78202227D01*
X181681052Y-78207208D01*
X181681053Y-78207209D01*
X181770577Y-78399195D01*
X181770580Y-78399200D01*
X181772903Y-78404182D01*
X181900716Y-78586717D01*
X182058283Y-78744284D01*
X182240817Y-78872097D01*
X182245802Y-78874421D01*
X182245808Y-78874425D01*
X182345272Y-78920805D01*
X182398558Y-78967722D01*
X182418019Y-79035999D01*
X182397478Y-79103959D01*
X182345273Y-79149195D01*
X182245805Y-79195577D01*
X182245800Y-79195580D01*
X182240818Y-79197903D01*
X182058283Y-79325716D01*
X181900716Y-79483283D01*
X181897559Y-79487791D01*
X181897557Y-79487794D01*
X181859109Y-79542704D01*
X181772903Y-79665818D01*
X181770580Y-79670800D01*
X181770577Y-79670805D01*
X181723528Y-79771703D01*
X181678730Y-79867773D01*
X181621056Y-80083014D01*
X181601635Y-80305000D01*
X181621056Y-80526986D01*
X181678730Y-80742227D01*
X181681052Y-80747208D01*
X181681053Y-80747209D01*
X181770577Y-80939195D01*
X181770580Y-80939200D01*
X181772903Y-80944182D01*
X181799474Y-80982129D01*
X181895434Y-81119173D01*
X181900716Y-81126717D01*
X182058283Y-81284284D01*
X182240817Y-81412097D01*
X182245799Y-81414420D01*
X182245804Y-81414423D01*
X182413629Y-81492680D01*
X182442773Y-81506270D01*
X182448081Y-81507692D01*
X182448083Y-81507693D01*
X182514465Y-81525480D01*
X182658014Y-81563944D01*
X182880000Y-81583365D01*
X183101986Y-81563944D01*
X183245535Y-81525480D01*
X183311917Y-81507693D01*
X183311919Y-81507692D01*
X183317227Y-81506270D01*
X183346371Y-81492680D01*
X183514196Y-81414423D01*
X183514201Y-81414420D01*
X183519183Y-81412097D01*
X183701717Y-81284284D01*
X183859284Y-81126717D01*
X183864567Y-81119173D01*
X183960526Y-80982129D01*
X183987097Y-80944182D01*
X183989420Y-80939200D01*
X183989423Y-80939195D01*
X184078947Y-80747209D01*
X184078948Y-80747208D01*
X184081270Y-80742227D01*
X184138944Y-80526986D01*
X184158365Y-80305000D01*
X184138944Y-80083014D01*
X184081270Y-79867773D01*
X184036472Y-79771703D01*
X183989423Y-79670805D01*
X183989420Y-79670800D01*
X183987097Y-79665818D01*
X183900891Y-79542704D01*
X183862443Y-79487794D01*
X183862441Y-79487791D01*
X183859284Y-79483283D01*
X183701717Y-79325716D01*
X183519183Y-79197903D01*
X183514201Y-79195580D01*
X183514196Y-79195577D01*
X183414728Y-79149195D01*
X183361443Y-79102278D01*
X183341982Y-79034001D01*
X183362524Y-78966041D01*
X183414728Y-78920805D01*
X183514196Y-78874423D01*
X183514201Y-78874420D01*
X183519183Y-78872097D01*
X183701717Y-78744284D01*
X183859284Y-78586717D01*
X183987097Y-78404182D01*
X183989420Y-78399200D01*
X183989423Y-78399195D01*
X184078947Y-78207209D01*
X184078948Y-78207208D01*
X184081270Y-78202227D01*
X184138944Y-77986986D01*
X184158365Y-77765000D01*
X184138944Y-77543014D01*
X184137521Y-77537704D01*
X184137520Y-77537697D01*
X184127964Y-77502033D01*
X184129654Y-77431056D01*
X184160576Y-77380328D01*
X193750106Y-67790798D01*
X193758396Y-67783254D01*
X193764877Y-67779141D01*
X193811518Y-67729473D01*
X193814272Y-67726632D01*
X193833993Y-67706911D01*
X193836471Y-67703716D01*
X193844177Y-67694694D01*
X193869017Y-67668242D01*
X193874445Y-67662462D01*
X193884205Y-67644709D01*
X193895058Y-67628186D01*
X193902612Y-67618447D01*
X193907472Y-67612182D01*
X193925035Y-67571598D01*
X193930242Y-67560968D01*
X193951554Y-67522201D01*
X193953525Y-67514524D01*
X193953527Y-67514519D01*
X193956591Y-67502583D01*
X193962997Y-67483871D01*
X193967892Y-67472560D01*
X193971040Y-67465286D01*
X193972280Y-67457458D01*
X193972282Y-67457451D01*
X193977958Y-67421617D01*
X193980364Y-67409997D01*
X193989387Y-67374852D01*
X193989387Y-67374851D01*
X193991359Y-67367171D01*
X193991359Y-67346917D01*
X193992910Y-67327206D01*
X193994839Y-67315027D01*
X193996079Y-67307198D01*
X193991918Y-67263179D01*
X193991359Y-67251322D01*
X193991359Y-52370475D01*
X196842616Y-52370475D01*
X196861072Y-52581419D01*
X196862975Y-52592214D01*
X196917779Y-52796745D01*
X196921525Y-52807037D01*
X197011012Y-52998944D01*
X197016495Y-53008439D01*
X197047640Y-53052919D01*
X197058117Y-53061294D01*
X197071564Y-53054226D01*
X197747978Y-52377812D01*
X197754356Y-52366132D01*
X198484408Y-52366132D01*
X198484539Y-52367965D01*
X198488790Y-52374580D01*
X199169157Y-53054947D01*
X199180932Y-53061377D01*
X199192947Y-53052081D01*
X199223505Y-53008439D01*
X199228988Y-52998944D01*
X199318475Y-52807037D01*
X199322221Y-52796745D01*
X199377025Y-52592214D01*
X199378928Y-52581419D01*
X199397384Y-52370475D01*
X199397384Y-52359525D01*
X199378928Y-52148581D01*
X199377025Y-52137786D01*
X199322221Y-51933255D01*
X199318475Y-51922963D01*
X199228988Y-51731056D01*
X199223505Y-51721561D01*
X199192360Y-51677081D01*
X199181883Y-51668706D01*
X199168436Y-51675774D01*
X198492022Y-52352188D01*
X198484408Y-52366132D01*
X197754356Y-52366132D01*
X197755592Y-52363868D01*
X197755461Y-52362035D01*
X197751210Y-52355420D01*
X197070843Y-51675053D01*
X197059068Y-51668623D01*
X197047053Y-51677919D01*
X197016495Y-51721561D01*
X197011012Y-51731056D01*
X196921525Y-51922963D01*
X196917779Y-51933255D01*
X196862975Y-52137786D01*
X196861072Y-52148581D01*
X196842616Y-52359525D01*
X196842616Y-52370475D01*
X193991359Y-52370475D01*
X193991359Y-49825000D01*
X196841635Y-49825000D01*
X196861056Y-50046986D01*
X196918730Y-50262227D01*
X196921052Y-50267208D01*
X196921053Y-50267209D01*
X197010577Y-50459195D01*
X197010580Y-50459200D01*
X197012903Y-50464182D01*
X197084472Y-50566392D01*
X197122359Y-50620500D01*
X197140716Y-50646717D01*
X197298283Y-50804284D01*
X197302792Y-50807441D01*
X197302794Y-50807443D01*
X197342999Y-50835595D01*
X197480817Y-50932097D01*
X197485802Y-50934421D01*
X197485808Y-50934425D01*
X197585864Y-50981081D01*
X197639150Y-51027998D01*
X197658611Y-51096275D01*
X197638070Y-51164235D01*
X197585865Y-51209471D01*
X197486056Y-51256012D01*
X197476561Y-51261495D01*
X197432081Y-51292640D01*
X197423706Y-51303117D01*
X197430774Y-51316564D01*
X198107188Y-51992978D01*
X198121132Y-52000592D01*
X198122965Y-52000461D01*
X198129580Y-51996210D01*
X198809947Y-51315843D01*
X198816377Y-51304068D01*
X198807084Y-51292055D01*
X198763431Y-51261488D01*
X198753953Y-51256016D01*
X198654136Y-51209471D01*
X198600851Y-51162554D01*
X198581390Y-51094277D01*
X198601932Y-51026317D01*
X198654136Y-50981081D01*
X198754196Y-50934423D01*
X198754201Y-50934420D01*
X198759183Y-50932097D01*
X198897001Y-50835595D01*
X198937206Y-50807443D01*
X198937208Y-50807441D01*
X198941717Y-50804284D01*
X199099284Y-50646717D01*
X199117642Y-50620500D01*
X199155528Y-50566392D01*
X199227097Y-50464182D01*
X199229420Y-50459200D01*
X199229423Y-50459195D01*
X199318947Y-50267209D01*
X199318948Y-50267208D01*
X199321270Y-50262227D01*
X199378944Y-50046986D01*
X199398365Y-49825000D01*
X199378944Y-49603014D01*
X199330573Y-49422493D01*
X199322693Y-49393083D01*
X199322692Y-49393081D01*
X199321270Y-49387773D01*
X199272888Y-49284017D01*
X199229423Y-49190805D01*
X199229420Y-49190800D01*
X199227097Y-49185818D01*
X199099284Y-49003283D01*
X198941717Y-48845716D01*
X198759183Y-48717903D01*
X198754201Y-48715580D01*
X198754196Y-48715577D01*
X198654728Y-48669195D01*
X198601443Y-48622278D01*
X198581982Y-48554001D01*
X198602524Y-48486041D01*
X198654728Y-48440805D01*
X198754196Y-48394423D01*
X198754201Y-48394420D01*
X198759183Y-48392097D01*
X198879048Y-48308166D01*
X198937206Y-48267443D01*
X198937208Y-48267441D01*
X198941717Y-48264284D01*
X199099284Y-48106717D01*
X199227097Y-47924182D01*
X199229420Y-47919200D01*
X199229423Y-47919195D01*
X199318947Y-47727209D01*
X199318948Y-47727208D01*
X199321270Y-47722227D01*
X199378944Y-47506986D01*
X199398365Y-47285000D01*
X199378944Y-47063014D01*
X199321270Y-46847773D01*
X199286290Y-46772757D01*
X199229423Y-46650805D01*
X199229420Y-46650800D01*
X199227097Y-46645818D01*
X199115855Y-46486949D01*
X199102443Y-46467794D01*
X199102441Y-46467791D01*
X199099284Y-46463283D01*
X198941717Y-46305716D01*
X198858881Y-46247713D01*
X198814553Y-46192255D01*
X198807244Y-46121636D01*
X198839275Y-46058276D01*
X198900477Y-46022291D01*
X198926342Y-46019094D01*
X198926320Y-46018684D01*
X198929718Y-46018500D01*
X198933134Y-46018500D01*
X198995316Y-46011745D01*
X199131705Y-45960615D01*
X199248261Y-45873261D01*
X199335615Y-45756705D01*
X199386745Y-45620316D01*
X199393500Y-45558134D01*
X199393500Y-43931866D01*
X199386745Y-43869684D01*
X199335615Y-43733295D01*
X199248261Y-43616739D01*
X199131705Y-43529385D01*
X198995316Y-43478255D01*
X198933134Y-43471500D01*
X197306866Y-43471500D01*
X197244684Y-43478255D01*
X197108295Y-43529385D01*
X196991739Y-43616739D01*
X196904385Y-43733295D01*
X196853255Y-43869684D01*
X196846500Y-43931866D01*
X196846500Y-45558134D01*
X196853255Y-45620316D01*
X196904385Y-45756705D01*
X196991739Y-45873261D01*
X197108295Y-45960615D01*
X197244684Y-46011745D01*
X197306866Y-46018500D01*
X197310282Y-46018500D01*
X197313680Y-46018684D01*
X197313614Y-46019899D01*
X197376969Y-46038502D01*
X197423462Y-46092158D01*
X197433566Y-46162432D01*
X197404072Y-46227012D01*
X197381119Y-46247713D01*
X197361453Y-46261484D01*
X197298283Y-46305716D01*
X197140716Y-46463283D01*
X197137559Y-46467791D01*
X197137557Y-46467794D01*
X197124145Y-46486949D01*
X197012903Y-46645818D01*
X197010580Y-46650800D01*
X197010577Y-46650805D01*
X196953710Y-46772757D01*
X196918730Y-46847773D01*
X196861056Y-47063014D01*
X196841635Y-47285000D01*
X196861056Y-47506986D01*
X196918730Y-47722227D01*
X196921052Y-47727208D01*
X196921053Y-47727209D01*
X197010577Y-47919195D01*
X197010580Y-47919200D01*
X197012903Y-47924182D01*
X197140716Y-48106717D01*
X197298283Y-48264284D01*
X197302792Y-48267441D01*
X197302794Y-48267443D01*
X197360952Y-48308166D01*
X197480817Y-48392097D01*
X197485802Y-48394421D01*
X197485808Y-48394425D01*
X197585272Y-48440805D01*
X197638558Y-48487722D01*
X197658019Y-48555999D01*
X197637478Y-48623959D01*
X197585273Y-48669195D01*
X197485805Y-48715577D01*
X197485800Y-48715580D01*
X197480818Y-48717903D01*
X197449976Y-48739499D01*
X197322736Y-48828594D01*
X197298283Y-48845716D01*
X197140716Y-49003283D01*
X197012903Y-49185818D01*
X197010580Y-49190800D01*
X197010577Y-49190805D01*
X196967112Y-49284017D01*
X196918730Y-49387773D01*
X196917308Y-49393081D01*
X196917307Y-49393083D01*
X196909427Y-49422493D01*
X196861056Y-49603014D01*
X196841635Y-49825000D01*
X193991359Y-49825000D01*
X193991359Y-45716735D01*
X194011361Y-45648614D01*
X194028264Y-45627640D01*
X196440499Y-43215405D01*
X196502811Y-43181379D01*
X196529594Y-43178500D01*
X199710406Y-43178500D01*
X199778527Y-43198502D01*
X199799501Y-43215405D01*
X199989595Y-43405499D01*
X200023621Y-43467811D01*
X200026500Y-43494594D01*
X200026500Y-53221233D01*
X200025973Y-53232416D01*
X200024298Y-53239909D01*
X200024547Y-53247835D01*
X200024547Y-53247836D01*
X200026438Y-53307986D01*
X200026500Y-53311945D01*
X200026500Y-53339856D01*
X200026997Y-53343790D01*
X200026997Y-53343791D01*
X200027005Y-53343856D01*
X200027938Y-53355693D01*
X200029327Y-53399889D01*
X200034978Y-53419339D01*
X200038987Y-53438700D01*
X200041526Y-53458797D01*
X200044445Y-53466168D01*
X200044445Y-53466170D01*
X200057804Y-53499912D01*
X200061649Y-53511142D01*
X200073982Y-53553593D01*
X200078015Y-53560412D01*
X200078017Y-53560417D01*
X200084293Y-53571028D01*
X200092988Y-53588776D01*
X200100448Y-53607617D01*
X200105110Y-53614033D01*
X200105110Y-53614034D01*
X200126436Y-53643387D01*
X200132952Y-53653307D01*
X200150742Y-53683387D01*
X200155458Y-53691362D01*
X200169779Y-53705683D01*
X200182619Y-53720716D01*
X200194528Y-53737107D01*
X200209140Y-53749195D01*
X200228605Y-53765298D01*
X200237384Y-53773288D01*
X206814000Y-60349904D01*
X206848026Y-60412216D01*
X206845238Y-60476363D01*
X206798393Y-60627227D01*
X206797692Y-60632516D01*
X206775202Y-60802206D01*
X206768102Y-60855774D01*
X206776751Y-61086158D01*
X206824093Y-61311791D01*
X206826051Y-61316750D01*
X206826052Y-61316752D01*
X206867246Y-61421060D01*
X206908776Y-61526221D01*
X206911543Y-61530780D01*
X206911544Y-61530783D01*
X206973998Y-61633703D01*
X207028377Y-61723317D01*
X207031874Y-61727347D01*
X207175404Y-61892751D01*
X207179477Y-61897445D01*
X207189341Y-61905533D01*
X207353627Y-62040240D01*
X207353633Y-62040244D01*
X207357755Y-62043624D01*
X207362391Y-62046263D01*
X207362394Y-62046265D01*
X207444642Y-62093083D01*
X207558114Y-62157675D01*
X207563139Y-62159499D01*
X207563496Y-62159629D01*
X207563626Y-62159724D01*
X207567975Y-62161734D01*
X207567566Y-62162620D01*
X207620702Y-62201676D01*
X207646095Y-62267976D01*
X207646500Y-62278066D01*
X207646500Y-67357622D01*
X207626498Y-67425743D01*
X207572250Y-67472504D01*
X207496790Y-67506496D01*
X207496786Y-67506498D01*
X207491925Y-67508688D01*
X207300681Y-67637441D01*
X207296824Y-67641120D01*
X207296822Y-67641122D01*
X207236122Y-67699027D01*
X207133865Y-67796576D01*
X207130682Y-67800854D01*
X207111555Y-67826562D01*
X206996246Y-67981542D01*
X206993830Y-67986293D01*
X206993828Y-67986297D01*
X206968092Y-68036917D01*
X206891760Y-68187051D01*
X206890178Y-68192145D01*
X206890177Y-68192148D01*
X206838164Y-68359658D01*
X206823393Y-68407227D01*
X206822692Y-68412516D01*
X206799508Y-68587443D01*
X206793102Y-68635774D01*
X206801751Y-68866158D01*
X206849093Y-69091791D01*
X206851051Y-69096750D01*
X206851052Y-69096752D01*
X206879827Y-69169613D01*
X206933776Y-69306221D01*
X206936543Y-69310780D01*
X206936544Y-69310783D01*
X206944129Y-69323283D01*
X207053377Y-69503317D01*
X207056874Y-69507347D01*
X207194414Y-69665848D01*
X207204477Y-69677445D01*
X207210812Y-69682639D01*
X207378627Y-69820240D01*
X207378633Y-69820244D01*
X207382755Y-69823624D01*
X207414250Y-69841552D01*
X207463555Y-69892632D01*
X207477417Y-69962262D01*
X207451434Y-70028333D01*
X207422284Y-70055573D01*
X207300681Y-70137441D01*
X207133865Y-70296576D01*
X206996246Y-70481542D01*
X206993830Y-70486294D01*
X206993825Y-70486302D01*
X206988078Y-70497606D01*
X206939375Y-70549263D01*
X206875762Y-70566500D01*
X204763767Y-70566500D01*
X204752584Y-70565973D01*
X204745091Y-70564298D01*
X204737165Y-70564547D01*
X204737164Y-70564547D01*
X204677014Y-70566438D01*
X204673055Y-70566500D01*
X204645144Y-70566500D01*
X204641210Y-70566997D01*
X204641209Y-70566997D01*
X204641144Y-70567005D01*
X204629307Y-70567938D01*
X204597049Y-70568952D01*
X204593030Y-70569078D01*
X204585111Y-70569327D01*
X204565657Y-70574979D01*
X204546300Y-70578987D01*
X204534070Y-70580532D01*
X204534069Y-70580532D01*
X204526203Y-70581526D01*
X204518832Y-70584445D01*
X204518830Y-70584445D01*
X204485088Y-70597804D01*
X204473858Y-70601649D01*
X204439017Y-70611771D01*
X204439016Y-70611771D01*
X204431407Y-70613982D01*
X204424588Y-70618015D01*
X204424583Y-70618017D01*
X204413972Y-70624293D01*
X204396224Y-70632988D01*
X204377383Y-70640448D01*
X204370967Y-70645110D01*
X204370966Y-70645110D01*
X204341613Y-70666436D01*
X204331693Y-70672952D01*
X204300465Y-70691420D01*
X204300462Y-70691422D01*
X204293638Y-70695458D01*
X204279317Y-70709779D01*
X204264284Y-70722619D01*
X204247893Y-70734528D01*
X204233012Y-70752516D01*
X204219702Y-70768605D01*
X204211712Y-70777384D01*
X199608088Y-75381008D01*
X199545776Y-75415034D01*
X199474961Y-75409969D01*
X199418125Y-75367422D01*
X199393314Y-75300902D01*
X199393472Y-75280932D01*
X199397886Y-75230475D01*
X199398365Y-75225000D01*
X199378944Y-75003014D01*
X199321270Y-74787773D01*
X199316378Y-74777282D01*
X199229423Y-74590805D01*
X199229420Y-74590800D01*
X199227097Y-74585818D01*
X199109910Y-74418458D01*
X199102443Y-74407794D01*
X199102441Y-74407791D01*
X199099284Y-74403283D01*
X198941717Y-74245716D01*
X198894922Y-74212949D01*
X198861890Y-74189820D01*
X198759183Y-74117903D01*
X198754201Y-74115580D01*
X198754196Y-74115577D01*
X198654728Y-74069195D01*
X198601443Y-74022278D01*
X198581982Y-73954001D01*
X198602524Y-73886041D01*
X198654728Y-73840805D01*
X198754196Y-73794423D01*
X198754201Y-73794420D01*
X198759183Y-73792097D01*
X198941717Y-73664284D01*
X199099284Y-73506717D01*
X199227097Y-73324182D01*
X199229420Y-73319200D01*
X199229423Y-73319195D01*
X199318947Y-73127209D01*
X199318948Y-73127208D01*
X199321270Y-73122227D01*
X199378944Y-72906986D01*
X199398365Y-72685000D01*
X199378944Y-72463014D01*
X199340480Y-72319465D01*
X199322693Y-72253083D01*
X199322692Y-72253081D01*
X199321270Y-72247773D01*
X199286595Y-72173412D01*
X199229423Y-72050805D01*
X199229420Y-72050800D01*
X199227097Y-72045818D01*
X199152404Y-71939146D01*
X199102443Y-71867794D01*
X199102441Y-71867791D01*
X199099284Y-71863283D01*
X198941717Y-71705716D01*
X198759183Y-71577903D01*
X198754201Y-71575580D01*
X198754196Y-71575577D01*
X198654728Y-71529195D01*
X198601443Y-71482278D01*
X198581982Y-71414001D01*
X198602524Y-71346041D01*
X198654728Y-71300805D01*
X198754196Y-71254423D01*
X198754201Y-71254420D01*
X198759183Y-71252097D01*
X198941717Y-71124284D01*
X199099284Y-70966717D01*
X199227097Y-70784182D01*
X199229420Y-70779200D01*
X199229423Y-70779195D01*
X199318947Y-70587209D01*
X199318948Y-70587208D01*
X199321270Y-70582227D01*
X199323213Y-70574978D01*
X199349396Y-70477260D01*
X199378944Y-70366986D01*
X199398365Y-70145000D01*
X199378944Y-69923014D01*
X199333656Y-69753999D01*
X199322693Y-69713083D01*
X199322692Y-69713081D01*
X199321270Y-69707773D01*
X199318947Y-69702791D01*
X199229423Y-69510805D01*
X199229420Y-69510800D01*
X199227097Y-69505818D01*
X199155528Y-69403608D01*
X199102443Y-69327794D01*
X199102441Y-69327791D01*
X199099284Y-69323283D01*
X198941717Y-69165716D01*
X198759183Y-69037903D01*
X198754201Y-69035580D01*
X198754196Y-69035577D01*
X198654728Y-68989195D01*
X198601443Y-68942278D01*
X198581982Y-68874001D01*
X198602524Y-68806041D01*
X198654728Y-68760805D01*
X198754196Y-68714423D01*
X198754201Y-68714420D01*
X198759183Y-68712097D01*
X198941717Y-68584284D01*
X199099284Y-68426717D01*
X199146240Y-68359658D01*
X199178610Y-68313428D01*
X199227097Y-68244182D01*
X199229420Y-68239200D01*
X199229423Y-68239195D01*
X199318947Y-68047209D01*
X199318948Y-68047208D01*
X199321270Y-68042227D01*
X199336257Y-67986297D01*
X199340480Y-67970536D01*
X199378944Y-67826986D01*
X199398365Y-67605000D01*
X199378944Y-67383014D01*
X199321270Y-67167773D01*
X199318947Y-67162791D01*
X199229423Y-66970805D01*
X199229420Y-66970800D01*
X199227097Y-66965818D01*
X199103503Y-66789308D01*
X199102443Y-66787794D01*
X199102441Y-66787791D01*
X199099284Y-66783283D01*
X198941717Y-66625716D01*
X198759183Y-66497903D01*
X198754201Y-66495580D01*
X198754196Y-66495577D01*
X198654728Y-66449195D01*
X198601443Y-66402278D01*
X198581982Y-66334001D01*
X198602524Y-66266041D01*
X198654728Y-66220805D01*
X198754196Y-66174423D01*
X198754201Y-66174420D01*
X198759183Y-66172097D01*
X198941717Y-66044284D01*
X199099284Y-65886717D01*
X199227097Y-65704182D01*
X199229420Y-65699200D01*
X199229423Y-65699195D01*
X199318947Y-65507209D01*
X199318948Y-65507208D01*
X199321270Y-65502227D01*
X199326785Y-65481647D01*
X199348945Y-65398944D01*
X199378944Y-65286986D01*
X199398365Y-65065000D01*
X199378944Y-64843014D01*
X199338416Y-64691762D01*
X199322693Y-64633083D01*
X199322692Y-64633081D01*
X199321270Y-64627773D01*
X199318947Y-64622791D01*
X199229423Y-64430805D01*
X199229420Y-64430800D01*
X199227097Y-64425818D01*
X199099284Y-64243283D01*
X198941717Y-64085716D01*
X198759183Y-63957903D01*
X198754201Y-63955580D01*
X198754196Y-63955577D01*
X198654728Y-63909195D01*
X198601443Y-63862278D01*
X198581982Y-63794001D01*
X198602524Y-63726041D01*
X198654728Y-63680805D01*
X198754196Y-63634423D01*
X198754201Y-63634420D01*
X198759183Y-63632097D01*
X198905170Y-63529875D01*
X198937206Y-63507443D01*
X198937208Y-63507441D01*
X198941717Y-63504284D01*
X199099284Y-63346717D01*
X199227097Y-63164182D01*
X199229420Y-63159200D01*
X199229423Y-63159195D01*
X199318947Y-62967209D01*
X199318948Y-62967208D01*
X199321270Y-62962227D01*
X199378944Y-62746986D01*
X199398365Y-62525000D01*
X199378944Y-62303014D01*
X199339292Y-62155032D01*
X199322693Y-62093083D01*
X199322692Y-62093081D01*
X199321270Y-62087773D01*
X199279382Y-61997943D01*
X199229423Y-61890805D01*
X199229420Y-61890800D01*
X199227097Y-61885818D01*
X199099284Y-61703283D01*
X198941717Y-61545716D01*
X198759183Y-61417903D01*
X198754201Y-61415580D01*
X198754196Y-61415577D01*
X198654728Y-61369195D01*
X198601443Y-61322278D01*
X198581982Y-61254001D01*
X198602524Y-61186041D01*
X198654728Y-61140805D01*
X198754196Y-61094423D01*
X198754201Y-61094420D01*
X198759183Y-61092097D01*
X198861890Y-61020180D01*
X198937206Y-60967443D01*
X198937208Y-60967441D01*
X198941717Y-60964284D01*
X199099284Y-60806717D01*
X199227097Y-60624182D01*
X199229420Y-60619200D01*
X199229423Y-60619195D01*
X199318947Y-60427209D01*
X199318948Y-60427208D01*
X199321270Y-60422227D01*
X199323953Y-60412216D01*
X199377520Y-60212299D01*
X199378944Y-60206986D01*
X199398365Y-59985000D01*
X199378944Y-59763014D01*
X199321270Y-59547773D01*
X199318947Y-59542791D01*
X199229423Y-59350805D01*
X199229420Y-59350800D01*
X199227097Y-59345818D01*
X199107391Y-59174861D01*
X199102443Y-59167794D01*
X199102441Y-59167791D01*
X199099284Y-59163283D01*
X198941717Y-59005716D01*
X198759183Y-58877903D01*
X198754201Y-58875580D01*
X198754196Y-58875577D01*
X198654728Y-58829195D01*
X198601443Y-58782278D01*
X198581982Y-58714001D01*
X198602524Y-58646041D01*
X198654728Y-58600805D01*
X198754196Y-58554423D01*
X198754201Y-58554420D01*
X198759183Y-58552097D01*
X198941717Y-58424284D01*
X199099284Y-58266717D01*
X199227097Y-58084182D01*
X199229420Y-58079200D01*
X199229423Y-58079195D01*
X199318947Y-57887209D01*
X199318948Y-57887208D01*
X199321270Y-57882227D01*
X199378944Y-57666986D01*
X199398365Y-57445000D01*
X199378944Y-57223014D01*
X199330307Y-57041498D01*
X199322693Y-57013083D01*
X199322692Y-57013081D01*
X199321270Y-57007773D01*
X199318947Y-57002791D01*
X199229423Y-56810805D01*
X199229420Y-56810800D01*
X199227097Y-56805818D01*
X199099284Y-56623283D01*
X198941717Y-56465716D01*
X198759183Y-56337903D01*
X198754201Y-56335580D01*
X198754196Y-56335577D01*
X198654728Y-56289195D01*
X198601443Y-56242278D01*
X198581982Y-56174001D01*
X198602524Y-56106041D01*
X198654728Y-56060805D01*
X198754196Y-56014423D01*
X198754201Y-56014420D01*
X198759183Y-56012097D01*
X198941717Y-55884284D01*
X199099284Y-55726717D01*
X199227097Y-55544182D01*
X199229420Y-55539200D01*
X199229423Y-55539195D01*
X199318947Y-55347209D01*
X199318948Y-55347208D01*
X199321270Y-55342227D01*
X199378944Y-55126986D01*
X199398365Y-54905000D01*
X199378944Y-54683014D01*
X199340480Y-54539464D01*
X199322693Y-54473083D01*
X199322692Y-54473081D01*
X199321270Y-54467773D01*
X199253959Y-54323424D01*
X199229423Y-54270805D01*
X199229420Y-54270800D01*
X199227097Y-54265818D01*
X199155528Y-54163608D01*
X199102443Y-54087794D01*
X199102441Y-54087791D01*
X199099284Y-54083283D01*
X198941717Y-53925716D01*
X198759183Y-53797903D01*
X198754201Y-53795580D01*
X198754196Y-53795577D01*
X198654136Y-53748919D01*
X198600851Y-53702002D01*
X198581390Y-53633725D01*
X198601932Y-53565765D01*
X198654136Y-53520529D01*
X198753953Y-53473984D01*
X198763431Y-53468512D01*
X198807920Y-53437359D01*
X198816294Y-53426883D01*
X198809226Y-53413436D01*
X198132812Y-52737022D01*
X198118868Y-52729408D01*
X198117035Y-52729539D01*
X198110420Y-52733790D01*
X197430053Y-53414157D01*
X197423623Y-53425932D01*
X197432916Y-53437945D01*
X197476569Y-53468512D01*
X197486051Y-53473986D01*
X197585864Y-53520529D01*
X197639150Y-53567446D01*
X197658611Y-53635723D01*
X197638070Y-53703683D01*
X197585865Y-53748919D01*
X197485805Y-53795577D01*
X197485800Y-53795580D01*
X197480818Y-53797903D01*
X197453898Y-53816753D01*
X197323223Y-53908253D01*
X197298283Y-53925716D01*
X197140716Y-54083283D01*
X197137559Y-54087791D01*
X197137557Y-54087794D01*
X197084472Y-54163608D01*
X197012903Y-54265818D01*
X197010580Y-54270800D01*
X197010577Y-54270805D01*
X196986041Y-54323424D01*
X196918730Y-54467773D01*
X196917308Y-54473081D01*
X196917307Y-54473083D01*
X196899520Y-54539464D01*
X196861056Y-54683014D01*
X196841635Y-54905000D01*
X196861056Y-55126986D01*
X196918730Y-55342227D01*
X196921052Y-55347208D01*
X196921053Y-55347209D01*
X197010577Y-55539195D01*
X197010580Y-55539200D01*
X197012903Y-55544182D01*
X197140716Y-55726717D01*
X197298283Y-55884284D01*
X197480817Y-56012097D01*
X197485802Y-56014421D01*
X197485808Y-56014425D01*
X197585272Y-56060805D01*
X197638558Y-56107722D01*
X197658019Y-56175999D01*
X197637478Y-56243959D01*
X197585273Y-56289195D01*
X197485805Y-56335577D01*
X197485800Y-56335580D01*
X197480818Y-56337903D01*
X197298283Y-56465716D01*
X197140716Y-56623283D01*
X197012903Y-56805818D01*
X197010580Y-56810800D01*
X197010577Y-56810805D01*
X196921053Y-57002791D01*
X196918730Y-57007773D01*
X196917308Y-57013081D01*
X196917307Y-57013083D01*
X196909693Y-57041498D01*
X196861056Y-57223014D01*
X196841635Y-57445000D01*
X196861056Y-57666986D01*
X196918730Y-57882227D01*
X196921052Y-57887208D01*
X196921053Y-57887209D01*
X197010577Y-58079195D01*
X197010580Y-58079200D01*
X197012903Y-58084182D01*
X197140716Y-58266717D01*
X197298283Y-58424284D01*
X197480817Y-58552097D01*
X197485802Y-58554421D01*
X197485808Y-58554425D01*
X197585272Y-58600805D01*
X197638558Y-58647722D01*
X197658019Y-58715999D01*
X197637478Y-58783959D01*
X197585273Y-58829195D01*
X197485805Y-58875577D01*
X197485800Y-58875580D01*
X197480818Y-58877903D01*
X197298283Y-59005716D01*
X197140716Y-59163283D01*
X197137559Y-59167791D01*
X197137557Y-59167794D01*
X197132609Y-59174861D01*
X197012903Y-59345818D01*
X197010580Y-59350800D01*
X197010577Y-59350805D01*
X196921053Y-59542791D01*
X196918730Y-59547773D01*
X196861056Y-59763014D01*
X196841635Y-59985000D01*
X196861056Y-60206986D01*
X196862480Y-60212299D01*
X196916048Y-60412216D01*
X196918730Y-60422227D01*
X196921052Y-60427208D01*
X196921053Y-60427209D01*
X197010577Y-60619195D01*
X197010580Y-60619200D01*
X197012903Y-60624182D01*
X197140716Y-60806717D01*
X197298283Y-60964284D01*
X197302792Y-60967441D01*
X197302794Y-60967443D01*
X197378110Y-61020180D01*
X197480817Y-61092097D01*
X197485802Y-61094421D01*
X197485808Y-61094425D01*
X197585272Y-61140805D01*
X197638558Y-61187722D01*
X197658019Y-61255999D01*
X197637478Y-61323959D01*
X197585273Y-61369195D01*
X197485805Y-61415577D01*
X197485800Y-61415580D01*
X197480818Y-61417903D01*
X197378608Y-61489472D01*
X197326125Y-61526221D01*
X197298283Y-61545716D01*
X197140716Y-61703283D01*
X197012903Y-61885818D01*
X197010580Y-61890800D01*
X197010577Y-61890805D01*
X196960618Y-61997943D01*
X196918730Y-62087773D01*
X196917308Y-62093081D01*
X196917307Y-62093083D01*
X196900708Y-62155032D01*
X196861056Y-62303014D01*
X196841635Y-62525000D01*
X196861056Y-62746986D01*
X196918730Y-62962227D01*
X196921052Y-62967208D01*
X196921053Y-62967209D01*
X197010577Y-63159195D01*
X197010580Y-63159200D01*
X197012903Y-63164182D01*
X197140716Y-63346717D01*
X197298283Y-63504284D01*
X197302792Y-63507441D01*
X197302794Y-63507443D01*
X197334830Y-63529875D01*
X197480817Y-63632097D01*
X197485802Y-63634421D01*
X197485808Y-63634425D01*
X197585272Y-63680805D01*
X197638558Y-63727722D01*
X197658019Y-63795999D01*
X197637478Y-63863959D01*
X197585273Y-63909195D01*
X197485805Y-63955577D01*
X197485800Y-63955580D01*
X197480818Y-63957903D01*
X197298283Y-64085716D01*
X197140716Y-64243283D01*
X197012903Y-64425818D01*
X197010580Y-64430800D01*
X197010577Y-64430805D01*
X196921053Y-64622791D01*
X196918730Y-64627773D01*
X196917308Y-64633081D01*
X196917307Y-64633083D01*
X196901584Y-64691762D01*
X196861056Y-64843014D01*
X196841635Y-65065000D01*
X196861056Y-65286986D01*
X196891055Y-65398944D01*
X196913216Y-65481647D01*
X196918730Y-65502227D01*
X196921052Y-65507208D01*
X196921053Y-65507209D01*
X197010577Y-65699195D01*
X197010580Y-65699200D01*
X197012903Y-65704182D01*
X197140716Y-65886717D01*
X197298283Y-66044284D01*
X197480817Y-66172097D01*
X197485802Y-66174421D01*
X197485808Y-66174425D01*
X197585272Y-66220805D01*
X197638558Y-66267722D01*
X197658019Y-66335999D01*
X197637478Y-66403959D01*
X197585273Y-66449195D01*
X197485805Y-66495577D01*
X197485800Y-66495580D01*
X197480818Y-66497903D01*
X197298283Y-66625716D01*
X197140716Y-66783283D01*
X197137559Y-66787791D01*
X197137557Y-66787794D01*
X197136497Y-66789308D01*
X197012903Y-66965818D01*
X197010580Y-66970800D01*
X197010577Y-66970805D01*
X196921053Y-67162791D01*
X196918730Y-67167773D01*
X196861056Y-67383014D01*
X196841635Y-67605000D01*
X196861056Y-67826986D01*
X196899520Y-67970536D01*
X196903744Y-67986297D01*
X196918730Y-68042227D01*
X196921052Y-68047208D01*
X196921053Y-68047209D01*
X197010577Y-68239195D01*
X197010580Y-68239200D01*
X197012903Y-68244182D01*
X197061390Y-68313428D01*
X197093761Y-68359658D01*
X197140716Y-68426717D01*
X197298283Y-68584284D01*
X197480817Y-68712097D01*
X197485802Y-68714421D01*
X197485808Y-68714425D01*
X197585272Y-68760805D01*
X197638558Y-68807722D01*
X197658019Y-68875999D01*
X197637478Y-68943959D01*
X197585273Y-68989195D01*
X197485805Y-69035577D01*
X197485800Y-69035580D01*
X197480818Y-69037903D01*
X197411312Y-69086572D01*
X197333540Y-69141029D01*
X197298283Y-69165716D01*
X197140716Y-69323283D01*
X197137559Y-69327791D01*
X197137557Y-69327794D01*
X197084472Y-69403608D01*
X197012903Y-69505818D01*
X197010580Y-69510800D01*
X197010577Y-69510805D01*
X196921053Y-69702791D01*
X196918730Y-69707773D01*
X196917308Y-69713081D01*
X196917307Y-69713083D01*
X196906344Y-69753999D01*
X196861056Y-69923014D01*
X196841635Y-70145000D01*
X196861056Y-70366986D01*
X196890604Y-70477260D01*
X196916788Y-70574978D01*
X196918730Y-70582227D01*
X196921052Y-70587208D01*
X196921053Y-70587209D01*
X197010577Y-70779195D01*
X197010580Y-70779200D01*
X197012903Y-70784182D01*
X197140716Y-70966717D01*
X197298283Y-71124284D01*
X197480817Y-71252097D01*
X197485802Y-71254421D01*
X197485808Y-71254425D01*
X197585272Y-71300805D01*
X197638558Y-71347722D01*
X197658019Y-71415999D01*
X197637478Y-71483959D01*
X197585273Y-71529195D01*
X197485805Y-71575577D01*
X197485800Y-71575580D01*
X197480818Y-71577903D01*
X197298283Y-71705716D01*
X197140716Y-71863283D01*
X197137559Y-71867791D01*
X197137557Y-71867794D01*
X197087596Y-71939146D01*
X197012903Y-72045818D01*
X197010580Y-72050800D01*
X197010577Y-72050805D01*
X196953405Y-72173412D01*
X196918730Y-72247773D01*
X196917308Y-72253081D01*
X196917307Y-72253083D01*
X196899520Y-72319465D01*
X196861056Y-72463014D01*
X196841635Y-72685000D01*
X196861056Y-72906986D01*
X196918730Y-73122227D01*
X196921052Y-73127208D01*
X196921053Y-73127209D01*
X197010577Y-73319195D01*
X197010580Y-73319200D01*
X197012903Y-73324182D01*
X197140716Y-73506717D01*
X197298283Y-73664284D01*
X197480817Y-73792097D01*
X197485802Y-73794421D01*
X197485808Y-73794425D01*
X197585272Y-73840805D01*
X197638558Y-73887722D01*
X197658019Y-73955999D01*
X197637478Y-74023959D01*
X197585273Y-74069195D01*
X197485805Y-74115577D01*
X197485800Y-74115580D01*
X197480818Y-74117903D01*
X197298283Y-74245716D01*
X197140716Y-74403283D01*
X197137559Y-74407791D01*
X197137557Y-74407794D01*
X197130090Y-74418458D01*
X197012903Y-74585818D01*
X197010580Y-74590800D01*
X197010577Y-74590805D01*
X196923622Y-74777282D01*
X196918730Y-74787773D01*
X196861056Y-75003014D01*
X196841635Y-75225000D01*
X196861056Y-75446986D01*
X196918730Y-75662227D01*
X196921052Y-75667208D01*
X196921053Y-75667209D01*
X197010577Y-75859195D01*
X197010580Y-75859200D01*
X197012903Y-75864182D01*
X197140716Y-76046717D01*
X197298283Y-76204284D01*
X197302792Y-76207441D01*
X197302794Y-76207443D01*
X197366349Y-76251945D01*
X197480817Y-76332097D01*
X197485802Y-76334421D01*
X197485808Y-76334425D01*
X197585272Y-76380805D01*
X197638558Y-76427722D01*
X197658019Y-76495999D01*
X197637478Y-76563959D01*
X197585273Y-76609195D01*
X197485805Y-76655577D01*
X197485800Y-76655580D01*
X197480818Y-76657903D01*
X197298283Y-76785716D01*
X197140716Y-76943283D01*
X197137559Y-76947791D01*
X197137557Y-76947794D01*
X197128107Y-76961290D01*
X197012903Y-77125818D01*
X197010580Y-77130800D01*
X197010577Y-77130805D01*
X196944007Y-77273566D01*
X196918730Y-77327773D01*
X196861056Y-77543014D01*
X196841635Y-77765000D01*
X196861056Y-77986986D01*
X196918730Y-78202227D01*
X196921052Y-78207208D01*
X196921053Y-78207209D01*
X197010577Y-78399195D01*
X197010580Y-78399200D01*
X197012903Y-78404182D01*
X197140716Y-78586717D01*
X197298283Y-78744284D01*
X197480817Y-78872097D01*
X197485802Y-78874421D01*
X197485808Y-78874425D01*
X197585272Y-78920805D01*
X197638558Y-78967722D01*
X197658019Y-79035999D01*
X197637478Y-79103959D01*
X197585273Y-79149195D01*
X197485805Y-79195577D01*
X197485800Y-79195580D01*
X197480818Y-79197903D01*
X197298283Y-79325716D01*
X197140716Y-79483283D01*
X197137559Y-79487791D01*
X197137557Y-79487794D01*
X197099109Y-79542704D01*
X197012903Y-79665818D01*
X197010580Y-79670800D01*
X197010577Y-79670805D01*
X196963528Y-79771703D01*
X196918730Y-79867773D01*
X196861056Y-80083014D01*
X196841635Y-80305000D01*
X196861056Y-80526986D01*
X196918730Y-80742227D01*
X196921052Y-80747208D01*
X196921053Y-80747209D01*
X197010577Y-80939195D01*
X197010580Y-80939200D01*
X197012903Y-80944182D01*
X197039474Y-80982129D01*
X197135434Y-81119173D01*
X197140716Y-81126717D01*
X197298283Y-81284284D01*
X197480817Y-81412097D01*
X197485799Y-81414420D01*
X197485804Y-81414423D01*
X197653629Y-81492680D01*
X197682773Y-81506270D01*
X197688081Y-81507692D01*
X197688083Y-81507693D01*
X197754465Y-81525480D01*
X197898014Y-81563944D01*
X198120000Y-81583365D01*
X198341986Y-81563944D01*
X198485535Y-81525480D01*
X198551917Y-81507693D01*
X198551919Y-81507692D01*
X198557227Y-81506270D01*
X198586371Y-81492680D01*
X198754196Y-81414423D01*
X198754201Y-81414420D01*
X198759183Y-81412097D01*
X198941717Y-81284284D01*
X199099284Y-81126717D01*
X199104567Y-81119173D01*
X199200526Y-80982129D01*
X199227097Y-80944182D01*
X199229420Y-80939200D01*
X199229423Y-80939195D01*
X199318947Y-80747209D01*
X199318948Y-80747208D01*
X199321270Y-80742227D01*
X199378944Y-80526986D01*
X199398365Y-80305000D01*
X199378944Y-80083014D01*
X199377521Y-80077704D01*
X199377520Y-80077697D01*
X199367964Y-80042034D01*
X199369654Y-79971058D01*
X199400576Y-79920329D01*
X201687253Y-77633652D01*
X201695539Y-77626112D01*
X201702018Y-77622000D01*
X201748644Y-77572348D01*
X201751398Y-77569507D01*
X201771135Y-77549770D01*
X201773615Y-77546573D01*
X201781320Y-77537551D01*
X201811586Y-77505321D01*
X201815405Y-77498375D01*
X201815407Y-77498372D01*
X201821348Y-77487566D01*
X201832199Y-77471047D01*
X201839758Y-77461301D01*
X201844614Y-77455041D01*
X201847759Y-77447772D01*
X201847762Y-77447768D01*
X201862174Y-77414463D01*
X201867391Y-77403813D01*
X201888695Y-77365060D01*
X201893733Y-77345437D01*
X201900137Y-77326734D01*
X201905033Y-77315420D01*
X201905033Y-77315419D01*
X201908181Y-77308145D01*
X201909420Y-77300322D01*
X201909423Y-77300312D01*
X201911680Y-77286062D01*
X202478493Y-77286062D01*
X202487789Y-77298077D01*
X202538994Y-77333931D01*
X202548489Y-77339414D01*
X202745947Y-77431490D01*
X202756239Y-77435236D01*
X202966688Y-77491625D01*
X202977481Y-77493528D01*
X203194525Y-77512517D01*
X203205475Y-77512517D01*
X203422519Y-77493528D01*
X203433312Y-77491625D01*
X203643761Y-77435236D01*
X203654053Y-77431490D01*
X203851511Y-77339414D01*
X203861006Y-77333931D01*
X203913048Y-77297491D01*
X203921424Y-77287012D01*
X203914356Y-77273566D01*
X203212812Y-76572022D01*
X203198868Y-76564408D01*
X203197035Y-76564539D01*
X203190420Y-76568790D01*
X202484923Y-77274287D01*
X202478493Y-77286062D01*
X201911680Y-77286062D01*
X201915099Y-77264476D01*
X201917505Y-77252856D01*
X201926528Y-77217711D01*
X201926528Y-77217710D01*
X201928500Y-77210030D01*
X201928500Y-77189776D01*
X201930051Y-77170065D01*
X201931980Y-77157886D01*
X201933220Y-77150057D01*
X201929059Y-77106038D01*
X201928500Y-77094181D01*
X201928500Y-77035979D01*
X201948502Y-76967858D01*
X202002158Y-76921365D01*
X202072432Y-76911261D01*
X202094616Y-76920865D01*
X202110854Y-76922545D01*
X202126434Y-76914356D01*
X202839658Y-76201132D01*
X203564408Y-76201132D01*
X203564539Y-76202965D01*
X203568790Y-76209580D01*
X204274287Y-76915077D01*
X204286062Y-76921507D01*
X204298077Y-76912211D01*
X204333931Y-76861006D01*
X204339414Y-76851511D01*
X204341473Y-76847095D01*
X206797001Y-76847095D01*
X206797338Y-76853614D01*
X206807257Y-76949206D01*
X206810149Y-76962600D01*
X206861588Y-77116784D01*
X206867761Y-77129962D01*
X206953063Y-77267807D01*
X206962099Y-77279208D01*
X207076829Y-77393739D01*
X207088240Y-77402751D01*
X207226243Y-77487816D01*
X207239424Y-77493963D01*
X207393710Y-77545138D01*
X207407086Y-77548005D01*
X207501438Y-77557672D01*
X207507854Y-77558000D01*
X208007885Y-77558000D01*
X208023124Y-77553525D01*
X208024329Y-77552135D01*
X208026000Y-77544452D01*
X208026000Y-77539884D01*
X208534000Y-77539884D01*
X208538475Y-77555123D01*
X208539865Y-77556328D01*
X208547548Y-77557999D01*
X209052095Y-77557999D01*
X209058614Y-77557662D01*
X209154206Y-77547743D01*
X209167600Y-77544851D01*
X209321784Y-77493412D01*
X209334962Y-77487239D01*
X209472807Y-77401937D01*
X209484208Y-77392901D01*
X209598739Y-77278171D01*
X209607751Y-77266760D01*
X209692816Y-77128757D01*
X209698963Y-77115576D01*
X209750138Y-76961290D01*
X209753005Y-76947914D01*
X209762672Y-76853562D01*
X209763000Y-76847146D01*
X209763000Y-76472115D01*
X209758525Y-76456876D01*
X209757135Y-76455671D01*
X209749452Y-76454000D01*
X208552115Y-76454000D01*
X208536876Y-76458475D01*
X208535671Y-76459865D01*
X208534000Y-76467548D01*
X208534000Y-77539884D01*
X208026000Y-77539884D01*
X208026000Y-76472115D01*
X208021525Y-76456876D01*
X208020135Y-76455671D01*
X208012452Y-76454000D01*
X206815116Y-76454000D01*
X206799877Y-76458475D01*
X206798672Y-76459865D01*
X206797001Y-76467548D01*
X206797001Y-76847095D01*
X204341473Y-76847095D01*
X204431490Y-76654053D01*
X204435236Y-76643761D01*
X204491625Y-76433312D01*
X204493528Y-76422519D01*
X204512517Y-76205475D01*
X204512517Y-76194525D01*
X204493528Y-75977481D01*
X204491625Y-75966688D01*
X204435236Y-75756239D01*
X204431490Y-75745947D01*
X204339414Y-75548489D01*
X204333931Y-75538994D01*
X204297491Y-75486952D01*
X204287012Y-75478576D01*
X204273566Y-75485644D01*
X203572022Y-76187188D01*
X203564408Y-76201132D01*
X202839658Y-76201132D01*
X203915077Y-75125713D01*
X203921507Y-75113938D01*
X203912211Y-75101923D01*
X203861006Y-75066069D01*
X203851511Y-75060586D01*
X203654053Y-74968510D01*
X203643761Y-74964764D01*
X203433312Y-74908375D01*
X203422519Y-74906472D01*
X203205475Y-74887483D01*
X203194525Y-74887483D01*
X203182019Y-74888577D01*
X203112414Y-74874587D01*
X203061422Y-74825188D01*
X203045232Y-74756061D01*
X203068985Y-74689156D01*
X203081943Y-74673961D01*
X203385499Y-74370405D01*
X203447811Y-74336379D01*
X203474594Y-74333500D01*
X206879404Y-74333500D01*
X206947525Y-74353502D01*
X206987122Y-74394133D01*
X207053377Y-74503317D01*
X207056874Y-74507347D01*
X207143438Y-74607103D01*
X207204477Y-74677445D01*
X207208608Y-74680832D01*
X207240529Y-74707006D01*
X207280524Y-74765666D01*
X207282455Y-74836636D01*
X207245710Y-74897384D01*
X207226941Y-74911584D01*
X207087193Y-74998063D01*
X207075792Y-75007099D01*
X206961261Y-75121829D01*
X206952249Y-75133240D01*
X206867184Y-75271243D01*
X206861037Y-75284424D01*
X206809862Y-75438710D01*
X206806995Y-75452086D01*
X206797328Y-75546438D01*
X206797000Y-75552855D01*
X206797000Y-75927885D01*
X206801475Y-75943124D01*
X206802865Y-75944329D01*
X206810548Y-75946000D01*
X209744884Y-75946000D01*
X209760123Y-75941525D01*
X209761328Y-75940135D01*
X209762999Y-75932452D01*
X209762999Y-75552905D01*
X209762662Y-75546386D01*
X209752743Y-75450794D01*
X209749851Y-75437400D01*
X209698412Y-75283216D01*
X209692239Y-75270038D01*
X209606937Y-75132193D01*
X209597901Y-75120792D01*
X209483171Y-75006261D01*
X209471757Y-74997247D01*
X209332287Y-74911277D01*
X209284793Y-74858505D01*
X209273369Y-74788434D01*
X209301643Y-74723310D01*
X209311430Y-74712847D01*
X209344991Y-74680832D01*
X209426135Y-74603424D01*
X209563754Y-74418458D01*
X209571470Y-74403283D01*
X209651580Y-74245716D01*
X209668240Y-74212949D01*
X209736607Y-73992773D01*
X209750753Y-73886041D01*
X209766198Y-73769511D01*
X209766198Y-73769506D01*
X209766898Y-73764226D01*
X209758249Y-73533842D01*
X209710907Y-73308209D01*
X209626224Y-73093779D01*
X209506623Y-72896683D01*
X209419755Y-72796576D01*
X209359023Y-72726588D01*
X209359021Y-72726586D01*
X209355523Y-72722555D01*
X209303044Y-72679525D01*
X209181373Y-72579760D01*
X209181367Y-72579756D01*
X209177245Y-72576376D01*
X209145750Y-72558448D01*
X209096445Y-72507368D01*
X209082583Y-72437738D01*
X209108566Y-72371667D01*
X209137716Y-72344427D01*
X209240792Y-72275032D01*
X209259319Y-72262559D01*
X209269253Y-72253083D01*
X209363029Y-72163624D01*
X209426135Y-72103424D01*
X209563754Y-71918458D01*
X209588186Y-71870405D01*
X209645102Y-71758458D01*
X209668240Y-71712949D01*
X209690502Y-71641256D01*
X209735024Y-71497871D01*
X209736607Y-71492773D01*
X209744032Y-71436752D01*
X209766198Y-71269511D01*
X209766198Y-71269506D01*
X209766898Y-71264226D01*
X209758249Y-71033842D01*
X209710907Y-70808209D01*
X209657491Y-70672952D01*
X209628185Y-70598744D01*
X209628184Y-70598742D01*
X209626224Y-70593779D01*
X209622238Y-70587209D01*
X209509390Y-70401243D01*
X209506623Y-70396683D01*
X209476098Y-70361506D01*
X209359023Y-70226588D01*
X209359021Y-70226586D01*
X209355523Y-70222555D01*
X209260938Y-70145000D01*
X209181373Y-70079760D01*
X209181367Y-70079756D01*
X209177245Y-70076376D01*
X209145750Y-70058448D01*
X209096445Y-70007368D01*
X209082583Y-69937738D01*
X209108566Y-69871667D01*
X209137716Y-69844427D01*
X209200808Y-69801951D01*
X209259319Y-69762559D01*
X209426135Y-69603424D01*
X209563754Y-69418458D01*
X209668240Y-69212949D01*
X209681697Y-69169613D01*
X209735024Y-68997871D01*
X209736607Y-68992773D01*
X209743107Y-68943730D01*
X209766198Y-68769511D01*
X209766198Y-68769506D01*
X209766898Y-68764226D01*
X209764823Y-68708940D01*
X209758449Y-68539173D01*
X209758249Y-68533842D01*
X209710907Y-68308209D01*
X209695045Y-68268043D01*
X209628185Y-68098744D01*
X209628184Y-68098742D01*
X209626224Y-68093779D01*
X209594942Y-68042227D01*
X209509390Y-67901243D01*
X209506623Y-67896683D01*
X209441388Y-67821506D01*
X209359023Y-67726588D01*
X209359021Y-67726586D01*
X209355523Y-67722555D01*
X209289284Y-67668242D01*
X209181373Y-67579760D01*
X209181367Y-67579756D01*
X209177245Y-67576376D01*
X208977167Y-67462485D01*
X208927862Y-67411404D01*
X208913500Y-67352984D01*
X208913500Y-62273639D01*
X208933502Y-62205518D01*
X208987750Y-62158757D01*
X209088202Y-62113507D01*
X209093075Y-62111312D01*
X209284319Y-61982559D01*
X209325768Y-61943019D01*
X209390455Y-61881310D01*
X209451135Y-61823424D01*
X209588754Y-61638458D01*
X209693240Y-61432949D01*
X209713037Y-61369195D01*
X209760024Y-61217871D01*
X209761607Y-61212773D01*
X209765150Y-61186041D01*
X209791198Y-60989511D01*
X209791198Y-60989506D01*
X209791898Y-60984226D01*
X209783249Y-60753842D01*
X209735907Y-60528209D01*
X209696020Y-60427209D01*
X209653185Y-60318744D01*
X209653184Y-60318742D01*
X209651224Y-60313779D01*
X209531623Y-60116683D01*
X209380523Y-59942555D01*
X209344880Y-59913330D01*
X209304886Y-59854671D01*
X209302954Y-59783701D01*
X209339698Y-59722952D01*
X209358468Y-59708752D01*
X209498120Y-59622332D01*
X209504348Y-59618478D01*
X209629305Y-59493303D01*
X209651096Y-59457952D01*
X209718275Y-59348968D01*
X209718276Y-59348966D01*
X209722115Y-59342738D01*
X209777797Y-59174861D01*
X209778984Y-59163283D01*
X209782909Y-59124969D01*
X209788500Y-59070400D01*
X209788500Y-57769600D01*
X209788163Y-57766350D01*
X209778238Y-57670692D01*
X209778237Y-57670688D01*
X209777526Y-57663834D01*
X209721550Y-57496054D01*
X209628478Y-57345652D01*
X209503303Y-57220695D01*
X209352738Y-57127885D01*
X209272995Y-57101436D01*
X209191389Y-57074368D01*
X209191387Y-57074368D01*
X209184861Y-57072203D01*
X209178025Y-57071503D01*
X209178022Y-57071502D01*
X209134969Y-57067091D01*
X209080400Y-57061500D01*
X207869594Y-57061500D01*
X207801473Y-57041498D01*
X207780499Y-57024595D01*
X205622494Y-54866589D01*
X205588468Y-54804277D01*
X205593533Y-54733461D01*
X205636080Y-54676626D01*
X205702600Y-54651815D01*
X205722572Y-54651974D01*
X205734515Y-54653019D01*
X205734525Y-54653019D01*
X205740000Y-54653498D01*
X205968087Y-54633543D01*
X205973400Y-54632119D01*
X205973402Y-54632119D01*
X206183933Y-54575707D01*
X206183935Y-54575706D01*
X206189243Y-54574284D01*
X206210382Y-54564427D01*
X206391762Y-54479849D01*
X206391767Y-54479846D01*
X206396749Y-54477523D01*
X206501611Y-54404098D01*
X206579789Y-54349357D01*
X206579792Y-54349355D01*
X206584300Y-54346198D01*
X206746198Y-54184300D01*
X206877523Y-53996749D01*
X206879846Y-53991767D01*
X206879849Y-53991762D01*
X206971961Y-53794225D01*
X206971961Y-53794224D01*
X206974284Y-53789243D01*
X206976183Y-53782158D01*
X207032119Y-53573402D01*
X207032119Y-53573400D01*
X207033543Y-53568087D01*
X207053498Y-53340000D01*
X207033543Y-53111913D01*
X207032119Y-53106598D01*
X207032118Y-53106591D01*
X207016541Y-53048459D01*
X207018230Y-52977483D01*
X207049152Y-52926752D01*
X208418247Y-51557657D01*
X208426537Y-51550113D01*
X208433018Y-51546000D01*
X208479659Y-51496332D01*
X208482413Y-51493491D01*
X208502134Y-51473770D01*
X208504612Y-51470575D01*
X208512318Y-51461553D01*
X208537158Y-51435101D01*
X208542586Y-51429321D01*
X208552346Y-51411568D01*
X208563199Y-51395045D01*
X208570753Y-51385306D01*
X208575613Y-51379041D01*
X208593176Y-51338457D01*
X208598383Y-51327827D01*
X208619695Y-51289060D01*
X208621666Y-51281383D01*
X208621668Y-51281378D01*
X208624732Y-51269442D01*
X208631138Y-51250730D01*
X208636033Y-51239419D01*
X208639181Y-51232145D01*
X208640421Y-51224317D01*
X208640423Y-51224310D01*
X208646099Y-51188476D01*
X208648505Y-51176856D01*
X208657528Y-51141711D01*
X208657528Y-51141710D01*
X208659500Y-51134030D01*
X208659500Y-51113776D01*
X208661051Y-51094065D01*
X208662980Y-51081886D01*
X208664220Y-51074057D01*
X208660059Y-51030038D01*
X208659500Y-51018181D01*
X208659500Y-48828594D01*
X208679502Y-48760473D01*
X208696405Y-48739499D01*
X210791499Y-46644405D01*
X210853811Y-46610379D01*
X210880594Y-46607500D01*
X211426404Y-46607500D01*
X211494525Y-46627502D01*
X211534122Y-46668133D01*
X211600377Y-46777317D01*
X211603874Y-46781347D01*
X211690438Y-46881103D01*
X211751477Y-46951445D01*
X211787120Y-46980670D01*
X211827114Y-47039329D01*
X211829046Y-47110299D01*
X211792302Y-47171048D01*
X211773532Y-47185248D01*
X211642579Y-47266285D01*
X211627652Y-47275522D01*
X211622479Y-47280704D01*
X211617060Y-47286132D01*
X211502695Y-47400697D01*
X211498855Y-47406927D01*
X211498854Y-47406928D01*
X211433955Y-47512214D01*
X211409885Y-47551262D01*
X211354203Y-47719139D01*
X211343500Y-47823600D01*
X211343500Y-49124400D01*
X211343837Y-49127646D01*
X211343837Y-49127650D01*
X211353001Y-49215968D01*
X211354474Y-49230166D01*
X211410450Y-49397946D01*
X211503522Y-49548348D01*
X211628697Y-49673305D01*
X211634927Y-49677145D01*
X211634928Y-49677146D01*
X211762040Y-49755499D01*
X211779262Y-49766115D01*
X211858521Y-49792404D01*
X211940611Y-49819632D01*
X211940613Y-49819632D01*
X211947139Y-49821797D01*
X211953975Y-49822497D01*
X211953978Y-49822498D01*
X211997031Y-49826909D01*
X212051600Y-49832500D01*
X212600500Y-49832500D01*
X212668621Y-49852502D01*
X212715114Y-49906158D01*
X212726500Y-49958500D01*
X212726500Y-86595405D01*
X212706498Y-86663526D01*
X212689595Y-86684500D01*
X212286759Y-87087336D01*
X212224447Y-87121362D01*
X212153632Y-87116297D01*
X212096796Y-87073750D01*
X212071985Y-87007230D01*
X212072401Y-86984634D01*
X212077631Y-86936488D01*
X212078000Y-86929672D01*
X212078000Y-86632115D01*
X212073525Y-86616876D01*
X212072135Y-86615671D01*
X212064452Y-86614000D01*
X211266242Y-86614000D01*
X211252197Y-86613215D01*
X211237799Y-86611600D01*
X211103183Y-86596500D01*
X210543996Y-86596500D01*
X210393287Y-86611277D01*
X210390998Y-86611968D01*
X210370276Y-86614000D01*
X209580116Y-86614000D01*
X209564877Y-86618475D01*
X209563672Y-86619865D01*
X209562001Y-86627548D01*
X209562001Y-86870500D01*
X209541999Y-86938621D01*
X209488343Y-86985114D01*
X209436001Y-86996500D01*
X207088768Y-86996500D01*
X207077585Y-86995973D01*
X207070092Y-86994298D01*
X207062166Y-86994547D01*
X207062165Y-86994547D01*
X207002002Y-86996438D01*
X206998044Y-86996500D01*
X206970144Y-86996500D01*
X206966154Y-86997004D01*
X206954320Y-86997936D01*
X206910111Y-86999326D01*
X206902495Y-87001539D01*
X206902493Y-87001539D01*
X206890652Y-87004979D01*
X206871293Y-87008988D01*
X206869983Y-87009154D01*
X206851203Y-87011526D01*
X206843837Y-87014442D01*
X206843831Y-87014444D01*
X206810098Y-87027800D01*
X206798868Y-87031645D01*
X206794700Y-87032856D01*
X206756407Y-87043981D01*
X206749584Y-87048016D01*
X206738966Y-87054295D01*
X206721213Y-87062992D01*
X206713568Y-87066019D01*
X206702383Y-87070448D01*
X206679139Y-87087336D01*
X206666612Y-87096437D01*
X206656695Y-87102951D01*
X206618638Y-87125458D01*
X206604317Y-87139779D01*
X206589284Y-87152619D01*
X206572893Y-87164528D01*
X206567842Y-87170634D01*
X206544702Y-87198605D01*
X206536712Y-87207384D01*
X203613248Y-90130848D01*
X203550936Y-90164874D01*
X203491541Y-90163459D01*
X203433409Y-90147882D01*
X203433398Y-90147880D01*
X203428087Y-90146457D01*
X203200000Y-90126502D01*
X202971913Y-90146457D01*
X202966600Y-90147881D01*
X202966598Y-90147881D01*
X202756067Y-90204293D01*
X202756065Y-90204294D01*
X202750757Y-90205716D01*
X202745776Y-90208039D01*
X202745775Y-90208039D01*
X202548238Y-90300151D01*
X202548233Y-90300154D01*
X202543251Y-90302477D01*
X202442971Y-90372694D01*
X202360211Y-90430643D01*
X202360208Y-90430645D01*
X202355700Y-90433802D01*
X202193802Y-90595700D01*
X202190645Y-90600208D01*
X202190643Y-90600211D01*
X202083819Y-90752771D01*
X202028362Y-90797099D01*
X201980606Y-90806500D01*
X199339394Y-90806500D01*
X199271273Y-90786498D01*
X199236181Y-90752771D01*
X199129357Y-90600211D01*
X199129355Y-90600208D01*
X199126198Y-90595700D01*
X198964300Y-90433802D01*
X198959792Y-90430645D01*
X198959789Y-90430643D01*
X198877029Y-90372694D01*
X198776749Y-90302477D01*
X198771767Y-90300154D01*
X198771762Y-90300151D01*
X198574225Y-90208039D01*
X198574224Y-90208039D01*
X198569243Y-90205716D01*
X198563935Y-90204294D01*
X198563933Y-90204293D01*
X198353402Y-90147881D01*
X198353400Y-90147881D01*
X198348087Y-90146457D01*
X198120000Y-90126502D01*
X197891913Y-90146457D01*
X197886600Y-90147881D01*
X197886598Y-90147881D01*
X197676067Y-90204293D01*
X197676065Y-90204294D01*
X197670757Y-90205716D01*
X197665776Y-90208039D01*
X197665775Y-90208039D01*
X197468238Y-90300151D01*
X197468233Y-90300154D01*
X197463251Y-90302477D01*
X197362971Y-90372694D01*
X197280211Y-90430643D01*
X197280208Y-90430645D01*
X197275700Y-90433802D01*
X197113802Y-90595700D01*
X196982477Y-90783251D01*
X196980154Y-90788233D01*
X196980151Y-90788238D01*
X196916601Y-90924523D01*
X196885716Y-90990757D01*
X196884294Y-90996065D01*
X196884293Y-90996067D01*
X196836854Y-91173112D01*
X196826457Y-91211913D01*
X196806502Y-91440000D01*
X196826457Y-91668087D01*
X196837031Y-91707548D01*
X196843460Y-91731541D01*
X196841770Y-91802518D01*
X196810848Y-91853247D01*
X195187747Y-93476348D01*
X195179461Y-93483888D01*
X195172982Y-93488000D01*
X195167557Y-93493777D01*
X195126357Y-93537651D01*
X195123602Y-93540493D01*
X195103865Y-93560230D01*
X195101385Y-93563427D01*
X195093682Y-93572447D01*
X195063414Y-93604679D01*
X195059595Y-93611625D01*
X195059593Y-93611628D01*
X195053652Y-93622434D01*
X195042801Y-93638953D01*
X195030386Y-93654959D01*
X195027241Y-93662228D01*
X195027238Y-93662232D01*
X195012826Y-93695537D01*
X195007609Y-93706187D01*
X194986305Y-93744940D01*
X194984334Y-93752615D01*
X194984334Y-93752616D01*
X194981267Y-93764562D01*
X194974863Y-93783266D01*
X194966819Y-93801855D01*
X194965580Y-93809678D01*
X194965577Y-93809688D01*
X194959901Y-93845524D01*
X194957495Y-93857144D01*
X194946500Y-93899970D01*
X194946500Y-93920224D01*
X194944949Y-93939934D01*
X194941780Y-93959943D01*
X194942526Y-93967835D01*
X194945941Y-94003961D01*
X194946500Y-94015819D01*
X194946500Y-95300606D01*
X194926498Y-95368727D01*
X194892771Y-95403819D01*
X194740211Y-95510643D01*
X194740208Y-95510645D01*
X194735700Y-95513802D01*
X194573802Y-95675700D01*
X194442477Y-95863251D01*
X194440154Y-95868233D01*
X194440151Y-95868238D01*
X194348039Y-96065775D01*
X194345716Y-96070757D01*
X194286457Y-96291913D01*
X194266502Y-96520000D01*
X194286457Y-96748087D01*
X194287881Y-96753400D01*
X194287881Y-96753402D01*
X194340934Y-96951395D01*
X194345716Y-96969243D01*
X194348039Y-96974224D01*
X194348039Y-96974225D01*
X194440151Y-97171762D01*
X194440154Y-97171767D01*
X194442477Y-97176749D01*
X194573802Y-97364300D01*
X194735700Y-97526198D01*
X194740208Y-97529355D01*
X194740211Y-97529357D01*
X194818389Y-97584098D01*
X194923251Y-97657523D01*
X194928233Y-97659846D01*
X194928238Y-97659849D01*
X195098825Y-97739394D01*
X195130757Y-97754284D01*
X195136065Y-97755706D01*
X195136067Y-97755707D01*
X195346598Y-97812119D01*
X195346600Y-97812119D01*
X195351913Y-97813543D01*
X195580000Y-97833498D01*
X195808087Y-97813543D01*
X195813400Y-97812119D01*
X195813402Y-97812119D01*
X196023933Y-97755707D01*
X196023935Y-97755706D01*
X196029243Y-97754284D01*
X196061175Y-97739394D01*
X196231762Y-97659849D01*
X196231767Y-97659846D01*
X196236749Y-97657523D01*
X196341611Y-97584098D01*
X196419789Y-97529357D01*
X196419792Y-97529355D01*
X196424300Y-97526198D01*
X196586198Y-97364300D01*
X196717523Y-97176749D01*
X196719846Y-97171767D01*
X196719849Y-97171762D01*
X196811961Y-96974225D01*
X196811961Y-96974224D01*
X196814284Y-96969243D01*
X196819067Y-96951395D01*
X196872119Y-96753402D01*
X196872119Y-96753400D01*
X196873543Y-96748087D01*
X196893498Y-96520000D01*
X196873543Y-96291913D01*
X196814284Y-96070757D01*
X196811961Y-96065775D01*
X196719849Y-95868238D01*
X196719846Y-95868233D01*
X196717523Y-95863251D01*
X196586198Y-95675700D01*
X196424300Y-95513802D01*
X196419792Y-95510645D01*
X196419789Y-95510643D01*
X196267229Y-95403819D01*
X196222901Y-95348362D01*
X196213500Y-95300606D01*
X196213500Y-94294594D01*
X196233502Y-94226473D01*
X196250405Y-94205499D01*
X197706752Y-92749152D01*
X197769064Y-92715126D01*
X197828459Y-92716541D01*
X197886591Y-92732118D01*
X197886602Y-92732120D01*
X197891913Y-92733543D01*
X198120000Y-92753498D01*
X198348087Y-92733543D01*
X198353400Y-92732119D01*
X198353402Y-92732119D01*
X198563933Y-92675707D01*
X198563935Y-92675706D01*
X198569243Y-92674284D01*
X198574225Y-92671961D01*
X198771762Y-92579849D01*
X198771767Y-92579846D01*
X198776749Y-92577523D01*
X198926023Y-92473000D01*
X198959789Y-92449357D01*
X198959792Y-92449355D01*
X198964300Y-92446198D01*
X199126198Y-92284300D01*
X199129357Y-92279789D01*
X199236181Y-92127229D01*
X199291638Y-92082901D01*
X199339394Y-92073500D01*
X201980606Y-92073500D01*
X202048727Y-92093502D01*
X202083819Y-92127229D01*
X202190643Y-92279789D01*
X202193802Y-92284300D01*
X202355700Y-92446198D01*
X202360208Y-92449355D01*
X202360211Y-92449357D01*
X202393977Y-92473000D01*
X202543251Y-92577523D01*
X202548233Y-92579846D01*
X202548238Y-92579849D01*
X202745775Y-92671961D01*
X202750757Y-92674284D01*
X202756065Y-92675706D01*
X202756067Y-92675707D01*
X202966598Y-92732119D01*
X202966600Y-92732119D01*
X202971913Y-92733543D01*
X203200000Y-92753498D01*
X203428087Y-92733543D01*
X203433400Y-92732119D01*
X203433402Y-92732119D01*
X203643933Y-92675707D01*
X203643935Y-92675706D01*
X203649243Y-92674284D01*
X203654225Y-92671961D01*
X203851762Y-92579849D01*
X203851767Y-92579846D01*
X203856749Y-92577523D01*
X204006023Y-92473000D01*
X204039789Y-92449357D01*
X204039792Y-92449355D01*
X204044300Y-92446198D01*
X204206198Y-92284300D01*
X204252168Y-92218649D01*
X204295319Y-92157022D01*
X204337523Y-92096749D01*
X204339846Y-92091767D01*
X204339849Y-92091762D01*
X204431961Y-91894225D01*
X204431961Y-91894224D01*
X204434284Y-91889243D01*
X204476541Y-91731541D01*
X204492119Y-91673402D01*
X204492120Y-91673398D01*
X204493543Y-91668087D01*
X204513498Y-91440000D01*
X204493543Y-91211913D01*
X204492119Y-91206598D01*
X204492118Y-91206591D01*
X204476541Y-91148459D01*
X204478230Y-91077483D01*
X204509152Y-91026752D01*
X207235499Y-88300405D01*
X207297811Y-88266379D01*
X207324594Y-88263500D01*
X209552835Y-88263500D01*
X209620956Y-88283502D01*
X209667449Y-88337158D01*
X209677553Y-88407432D01*
X209663671Y-88449429D01*
X209637644Y-88497565D01*
X209634217Y-88508637D01*
X209596938Y-88629066D01*
X209577710Y-88691180D01*
X209577066Y-88697305D01*
X209577066Y-88697306D01*
X209559531Y-88864136D01*
X209556524Y-88892750D01*
X209559009Y-88920057D01*
X209573496Y-89079230D01*
X209574894Y-89094596D01*
X209576632Y-89100502D01*
X209576633Y-89100506D01*
X209596006Y-89166328D01*
X209632119Y-89289029D01*
X209634972Y-89294486D01*
X209634973Y-89294489D01*
X209676032Y-89373027D01*
X209726019Y-89468645D01*
X209729879Y-89473445D01*
X209729879Y-89473446D01*
X209735729Y-89480722D01*
X209853019Y-89626601D01*
X210008281Y-89756881D01*
X210013673Y-89759845D01*
X210013677Y-89759848D01*
X210062849Y-89786880D01*
X210121202Y-89818960D01*
X210171259Y-89869304D01*
X210186500Y-89929374D01*
X210186500Y-95300606D01*
X210166498Y-95368727D01*
X210132771Y-95403819D01*
X209980211Y-95510643D01*
X209980208Y-95510645D01*
X209975700Y-95513802D01*
X209813802Y-95675700D01*
X209682477Y-95863251D01*
X209680154Y-95868233D01*
X209680151Y-95868238D01*
X209588039Y-96065775D01*
X209585716Y-96070757D01*
X209526457Y-96291913D01*
X209506502Y-96520000D01*
X209526457Y-96748087D01*
X209527881Y-96753400D01*
X209527881Y-96753402D01*
X209580934Y-96951395D01*
X209585716Y-96969243D01*
X209588039Y-96974224D01*
X209588039Y-96974225D01*
X209680151Y-97171762D01*
X209680154Y-97171767D01*
X209682477Y-97176749D01*
X209813802Y-97364300D01*
X209975700Y-97526198D01*
X209980208Y-97529355D01*
X209980211Y-97529357D01*
X210058389Y-97584098D01*
X210163251Y-97657523D01*
X210168233Y-97659846D01*
X210168238Y-97659849D01*
X210338825Y-97739394D01*
X210370757Y-97754284D01*
X210376065Y-97755706D01*
X210376067Y-97755707D01*
X210586598Y-97812119D01*
X210586600Y-97812119D01*
X210591913Y-97813543D01*
X210820000Y-97833498D01*
X211048087Y-97813543D01*
X211053400Y-97812119D01*
X211053402Y-97812119D01*
X211263933Y-97755707D01*
X211263935Y-97755706D01*
X211269243Y-97754284D01*
X211301175Y-97739394D01*
X211471762Y-97659849D01*
X211471767Y-97659846D01*
X211476749Y-97657523D01*
X211581611Y-97584098D01*
X211659789Y-97529357D01*
X211659792Y-97529355D01*
X211664300Y-97526198D01*
X211826198Y-97364300D01*
X211957523Y-97176749D01*
X211959846Y-97171767D01*
X211959849Y-97171762D01*
X212051961Y-96974225D01*
X212051961Y-96974224D01*
X212054284Y-96969243D01*
X212059067Y-96951395D01*
X212112119Y-96753402D01*
X212112119Y-96753400D01*
X212113543Y-96748087D01*
X212133498Y-96520000D01*
X212113543Y-96291913D01*
X212054284Y-96070757D01*
X212051961Y-96065775D01*
X211959849Y-95868238D01*
X211959846Y-95868233D01*
X211957523Y-95863251D01*
X211826198Y-95675700D01*
X211664300Y-95513802D01*
X211659792Y-95510645D01*
X211659789Y-95510643D01*
X211507229Y-95403819D01*
X211462901Y-95348362D01*
X211453500Y-95300606D01*
X211453500Y-89929067D01*
X211473502Y-89860946D01*
X211520347Y-89817815D01*
X211614257Y-89767883D01*
X211619698Y-89764990D01*
X211631538Y-89755334D01*
X211746686Y-89661420D01*
X211776763Y-89636890D01*
X211811703Y-89594655D01*
X211902027Y-89485472D01*
X211902029Y-89485469D01*
X211905956Y-89480722D01*
X212002356Y-89302435D01*
X212055404Y-89131066D01*
X212086674Y-89079230D01*
X213752253Y-87413652D01*
X213760539Y-87406112D01*
X213767018Y-87402000D01*
X213813644Y-87352348D01*
X213816398Y-87349507D01*
X213836135Y-87329770D01*
X213838615Y-87326573D01*
X213846320Y-87317551D01*
X213871159Y-87291100D01*
X213876586Y-87285321D01*
X213880405Y-87278375D01*
X213880407Y-87278372D01*
X213886348Y-87267566D01*
X213897199Y-87251047D01*
X213904758Y-87241301D01*
X213909614Y-87235041D01*
X213912759Y-87227772D01*
X213912762Y-87227768D01*
X213927174Y-87194463D01*
X213932391Y-87183813D01*
X213953695Y-87145060D01*
X213958733Y-87125437D01*
X213965137Y-87106734D01*
X213970033Y-87095420D01*
X213970033Y-87095419D01*
X213973181Y-87088145D01*
X213974420Y-87080322D01*
X213974423Y-87080312D01*
X213980099Y-87044476D01*
X213982505Y-87032856D01*
X213991528Y-86997711D01*
X213991528Y-86997710D01*
X213993500Y-86990030D01*
X213993500Y-86969776D01*
X213995051Y-86950065D01*
X213996980Y-86937886D01*
X213998220Y-86930057D01*
X213994059Y-86886038D01*
X213993500Y-86874181D01*
X213993500Y-49793948D01*
X214013502Y-49725827D01*
X214053196Y-49686805D01*
X214076348Y-49672478D01*
X214201305Y-49547303D01*
X214234094Y-49494110D01*
X214290275Y-49402968D01*
X214290276Y-49402966D01*
X214294115Y-49396738D01*
X214349797Y-49228861D01*
X214360500Y-49124400D01*
X214360500Y-47823600D01*
X214349526Y-47717834D01*
X214329238Y-47657022D01*
X214295868Y-47557002D01*
X214293550Y-47550054D01*
X214200478Y-47399652D01*
X214075303Y-47274695D01*
X213929660Y-47184919D01*
X213882168Y-47132148D01*
X213870744Y-47062076D01*
X213899018Y-46996952D01*
X213908805Y-46986490D01*
X214019278Y-46881103D01*
X214023135Y-46877424D01*
X214160754Y-46692458D01*
X214181932Y-46650805D01*
X214262822Y-46491704D01*
X214265240Y-46486949D01*
X214333607Y-46266773D01*
X214339594Y-46221598D01*
X214363198Y-46043511D01*
X214363198Y-46043506D01*
X214363898Y-46038226D01*
X214363158Y-46018500D01*
X214357435Y-45866081D01*
X214355249Y-45807842D01*
X214307907Y-45582209D01*
X214292262Y-45542593D01*
X214225185Y-45372744D01*
X214225184Y-45372742D01*
X214223224Y-45367779D01*
X214217560Y-45358444D01*
X214106390Y-45175243D01*
X214103623Y-45170683D01*
X214016607Y-45070405D01*
X213956023Y-45000588D01*
X213956021Y-45000586D01*
X213952523Y-44996555D01*
X213910970Y-44962484D01*
X213778373Y-44853760D01*
X213778367Y-44853756D01*
X213774245Y-44850376D01*
X213769609Y-44847737D01*
X213769606Y-44847735D01*
X213578529Y-44738968D01*
X213573886Y-44736325D01*
X213357175Y-44657663D01*
X213351926Y-44656714D01*
X213351923Y-44656713D01*
X213134392Y-44617377D01*
X213134385Y-44617376D01*
X213130308Y-44616639D01*
X213112586Y-44615803D01*
X213107644Y-44615570D01*
X213107637Y-44615570D01*
X213106156Y-44615500D01*
X212644110Y-44615500D01*
X212577191Y-44621178D01*
X212477591Y-44629629D01*
X212477587Y-44629630D01*
X212472280Y-44630080D01*
X212467125Y-44631418D01*
X212467119Y-44631419D01*
X212254297Y-44686657D01*
X212254293Y-44686658D01*
X212249128Y-44687999D01*
X212244262Y-44690191D01*
X212244259Y-44690192D01*
X212135980Y-44738968D01*
X212038925Y-44782688D01*
X211847681Y-44911441D01*
X211680865Y-45070576D01*
X211543246Y-45255542D01*
X211540830Y-45260294D01*
X211540825Y-45260302D01*
X211535078Y-45271606D01*
X211486375Y-45323263D01*
X211422762Y-45340500D01*
X210644763Y-45340500D01*
X210633579Y-45339973D01*
X210626091Y-45338299D01*
X210618168Y-45338548D01*
X210558033Y-45340438D01*
X210554075Y-45340500D01*
X210526144Y-45340500D01*
X210522229Y-45340995D01*
X210522225Y-45340995D01*
X210522167Y-45341003D01*
X210522138Y-45341006D01*
X210510296Y-45341939D01*
X210466110Y-45343327D01*
X210448744Y-45348372D01*
X210446658Y-45348978D01*
X210427306Y-45352986D01*
X210415068Y-45354532D01*
X210415066Y-45354533D01*
X210407203Y-45355526D01*
X210366086Y-45371806D01*
X210354885Y-45375641D01*
X210312406Y-45387982D01*
X210305587Y-45392015D01*
X210305582Y-45392017D01*
X210294971Y-45398293D01*
X210277221Y-45406990D01*
X210258383Y-45414448D01*
X210251967Y-45419109D01*
X210251966Y-45419110D01*
X210222625Y-45440428D01*
X210212701Y-45446947D01*
X210181460Y-45465422D01*
X210181455Y-45465426D01*
X210174637Y-45469458D01*
X210160313Y-45483782D01*
X210145281Y-45496621D01*
X210128893Y-45508528D01*
X210100712Y-45542593D01*
X210092722Y-45551373D01*
X207633747Y-48010348D01*
X207625461Y-48017888D01*
X207618982Y-48022000D01*
X207613557Y-48027777D01*
X207572357Y-48071651D01*
X207569602Y-48074493D01*
X207549865Y-48094230D01*
X207547385Y-48097427D01*
X207539682Y-48106447D01*
X207509414Y-48138679D01*
X207505595Y-48145625D01*
X207505593Y-48145628D01*
X207499652Y-48156434D01*
X207488801Y-48172953D01*
X207476386Y-48188959D01*
X207473241Y-48196228D01*
X207473238Y-48196232D01*
X207458826Y-48229537D01*
X207453609Y-48240187D01*
X207432305Y-48278940D01*
X207430334Y-48286615D01*
X207430334Y-48286616D01*
X207427267Y-48298562D01*
X207420863Y-48317266D01*
X207412819Y-48335855D01*
X207411580Y-48343678D01*
X207411577Y-48343688D01*
X207405901Y-48379524D01*
X207403495Y-48391144D01*
X207402653Y-48394425D01*
X207392500Y-48433970D01*
X207392500Y-48454224D01*
X207390949Y-48473934D01*
X207387780Y-48493943D01*
X207388526Y-48501835D01*
X207391941Y-48537961D01*
X207392500Y-48549819D01*
X207392500Y-50739405D01*
X207372498Y-50807526D01*
X207355595Y-50828500D01*
X206153247Y-52030848D01*
X206090935Y-52064874D01*
X206031542Y-52063460D01*
X205968087Y-52046457D01*
X205740000Y-52026502D01*
X205511913Y-52046457D01*
X205506600Y-52047881D01*
X205506598Y-52047881D01*
X205296067Y-52104293D01*
X205296065Y-52104294D01*
X205290757Y-52105716D01*
X205285776Y-52108039D01*
X205285775Y-52108039D01*
X205088238Y-52200151D01*
X205088233Y-52200154D01*
X205083251Y-52202477D01*
X204978389Y-52275902D01*
X204900211Y-52330643D01*
X204900208Y-52330645D01*
X204895700Y-52333802D01*
X204733802Y-52495700D01*
X204602477Y-52683251D01*
X204600154Y-52688233D01*
X204600151Y-52688238D01*
X204578910Y-52733790D01*
X204505716Y-52890757D01*
X204504294Y-52896065D01*
X204504293Y-52896067D01*
X204447883Y-53106591D01*
X204446457Y-53111913D01*
X204426502Y-53340000D01*
X204426981Y-53345475D01*
X204426981Y-53345485D01*
X204428026Y-53357428D01*
X204414038Y-53427033D01*
X204364639Y-53478026D01*
X204295514Y-53494217D01*
X204228608Y-53470465D01*
X204213411Y-53457506D01*
X203870405Y-53114500D01*
X203836379Y-53052188D01*
X203833500Y-53025405D01*
X203833500Y-43258763D01*
X203834027Y-43247579D01*
X203835701Y-43240091D01*
X203833562Y-43172032D01*
X203833500Y-43168075D01*
X203833500Y-43140144D01*
X203832994Y-43136138D01*
X203832061Y-43124292D01*
X203830922Y-43088037D01*
X203830922Y-43088036D01*
X203830673Y-43080110D01*
X203825022Y-43060658D01*
X203821014Y-43041306D01*
X203819468Y-43029068D01*
X203819467Y-43029066D01*
X203818474Y-43021203D01*
X203802194Y-42980086D01*
X203798359Y-42968885D01*
X203786018Y-42926406D01*
X203781985Y-42919587D01*
X203781983Y-42919582D01*
X203775707Y-42908971D01*
X203767010Y-42891221D01*
X203759552Y-42872383D01*
X203733563Y-42836612D01*
X203727053Y-42826701D01*
X203708578Y-42795460D01*
X203708574Y-42795455D01*
X203704542Y-42788637D01*
X203690218Y-42774313D01*
X203677376Y-42759278D01*
X203665472Y-42742893D01*
X203631406Y-42714711D01*
X203622627Y-42706722D01*
X201163652Y-40247747D01*
X201156112Y-40239461D01*
X201152000Y-40232982D01*
X201102348Y-40186356D01*
X201099507Y-40183602D01*
X201079770Y-40163865D01*
X201076573Y-40161385D01*
X201067551Y-40153680D01*
X201054122Y-40141069D01*
X201035321Y-40123414D01*
X201028375Y-40119595D01*
X201028372Y-40119593D01*
X201017566Y-40113652D01*
X201001047Y-40102801D01*
X201000583Y-40102441D01*
X200985041Y-40090386D01*
X200977772Y-40087241D01*
X200977768Y-40087238D01*
X200944463Y-40072826D01*
X200933813Y-40067609D01*
X200895060Y-40046305D01*
X200875437Y-40041267D01*
X200856734Y-40034863D01*
X200845420Y-40029967D01*
X200845419Y-40029967D01*
X200838145Y-40026819D01*
X200830322Y-40025580D01*
X200830312Y-40025577D01*
X200794476Y-40019901D01*
X200782856Y-40017495D01*
X200747711Y-40008472D01*
X200747710Y-40008472D01*
X200740030Y-40006500D01*
X200719776Y-40006500D01*
X200700065Y-40004949D01*
X200687886Y-40003020D01*
X200680057Y-40001780D01*
X200650786Y-40004547D01*
X200636039Y-40005941D01*
X200624181Y-40006500D01*
X196928767Y-40006500D01*
X196917584Y-40005973D01*
X196910091Y-40004298D01*
X196902165Y-40004547D01*
X196902164Y-40004547D01*
X196842014Y-40006438D01*
X196838055Y-40006500D01*
X196810144Y-40006500D01*
X196806210Y-40006997D01*
X196806209Y-40006997D01*
X196806144Y-40007005D01*
X196794307Y-40007938D01*
X196762049Y-40008952D01*
X196758030Y-40009078D01*
X196750111Y-40009327D01*
X196730657Y-40014979D01*
X196711300Y-40018987D01*
X196699070Y-40020532D01*
X196699069Y-40020532D01*
X196691203Y-40021526D01*
X196683832Y-40024445D01*
X196683830Y-40024445D01*
X196650088Y-40037804D01*
X196638858Y-40041649D01*
X196604017Y-40051771D01*
X196604016Y-40051771D01*
X196596407Y-40053982D01*
X196589588Y-40058015D01*
X196589583Y-40058017D01*
X196578972Y-40064293D01*
X196561224Y-40072988D01*
X196542383Y-40080448D01*
X196535967Y-40085110D01*
X196535966Y-40085110D01*
X196506613Y-40106436D01*
X196496693Y-40112952D01*
X196465465Y-40131420D01*
X196465462Y-40131422D01*
X196458638Y-40135458D01*
X196444317Y-40149779D01*
X196429284Y-40162619D01*
X196412893Y-40174528D01*
X196404217Y-40185016D01*
X196384702Y-40208605D01*
X196376712Y-40217384D01*
X185027747Y-51566348D01*
X185019461Y-51573888D01*
X185012982Y-51578000D01*
X185007557Y-51583777D01*
X184966357Y-51627651D01*
X184963602Y-51630493D01*
X184943865Y-51650230D01*
X184941385Y-51653427D01*
X184933682Y-51662447D01*
X184903414Y-51694679D01*
X184899595Y-51701625D01*
X184899593Y-51701628D01*
X184893652Y-51712434D01*
X184882801Y-51728953D01*
X184870386Y-51744959D01*
X184867241Y-51752228D01*
X184867238Y-51752232D01*
X184852826Y-51785537D01*
X184847609Y-51796187D01*
X184826305Y-51834940D01*
X184824334Y-51842615D01*
X184824334Y-51842616D01*
X184821267Y-51854562D01*
X184814863Y-51873266D01*
X184806819Y-51891855D01*
X184805580Y-51899678D01*
X184805577Y-51899688D01*
X184799901Y-51935524D01*
X184797495Y-51947144D01*
X184788472Y-51982289D01*
X184786500Y-51989970D01*
X184786500Y-52010224D01*
X184784949Y-52029934D01*
X184781780Y-52049943D01*
X184782526Y-52057835D01*
X184785941Y-52093961D01*
X184786500Y-52105819D01*
X184786500Y-64750405D01*
X184766498Y-64818526D01*
X184749595Y-64839500D01*
X184368088Y-65221007D01*
X184305776Y-65255033D01*
X184234961Y-65249968D01*
X184178125Y-65207421D01*
X184153314Y-65140901D01*
X184153472Y-65120931D01*
X184157886Y-65070475D01*
X184158365Y-65065000D01*
X184138944Y-64843014D01*
X184098416Y-64691762D01*
X184082693Y-64633083D01*
X184082692Y-64633081D01*
X184081270Y-64627773D01*
X184078947Y-64622791D01*
X183989423Y-64430805D01*
X183989420Y-64430800D01*
X183987097Y-64425818D01*
X183859284Y-64243283D01*
X183701717Y-64085716D01*
X183519183Y-63957903D01*
X183514201Y-63955580D01*
X183514196Y-63955577D01*
X183414728Y-63909195D01*
X183361443Y-63862278D01*
X183341982Y-63794001D01*
X183362524Y-63726041D01*
X183414728Y-63680805D01*
X183514196Y-63634423D01*
X183514201Y-63634420D01*
X183519183Y-63632097D01*
X183665170Y-63529875D01*
X183697206Y-63507443D01*
X183697208Y-63507441D01*
X183701717Y-63504284D01*
X183859284Y-63346717D01*
X183987097Y-63164182D01*
X183989420Y-63159200D01*
X183989423Y-63159195D01*
X184078947Y-62967209D01*
X184078948Y-62967208D01*
X184081270Y-62962227D01*
X184138944Y-62746986D01*
X184158365Y-62525000D01*
X184138944Y-62303014D01*
X184099292Y-62155032D01*
X184082693Y-62093083D01*
X184082692Y-62093081D01*
X184081270Y-62087773D01*
X184039382Y-61997943D01*
X183989423Y-61890805D01*
X183989420Y-61890800D01*
X183987097Y-61885818D01*
X183859284Y-61703283D01*
X183701717Y-61545716D01*
X183519183Y-61417903D01*
X183514201Y-61415580D01*
X183514196Y-61415577D01*
X183414728Y-61369195D01*
X183361443Y-61322278D01*
X183341982Y-61254001D01*
X183362524Y-61186041D01*
X183414728Y-61140805D01*
X183514196Y-61094423D01*
X183514201Y-61094420D01*
X183519183Y-61092097D01*
X183621890Y-61020180D01*
X183697206Y-60967443D01*
X183697208Y-60967441D01*
X183701717Y-60964284D01*
X183859284Y-60806717D01*
X183987097Y-60624182D01*
X183989420Y-60619200D01*
X183989423Y-60619195D01*
X184078947Y-60427209D01*
X184078948Y-60427208D01*
X184081270Y-60422227D01*
X184083953Y-60412216D01*
X184137520Y-60212299D01*
X184138944Y-60206986D01*
X184158365Y-59985000D01*
X184138944Y-59763014D01*
X184081270Y-59547773D01*
X184078947Y-59542791D01*
X183989423Y-59350805D01*
X183989420Y-59350800D01*
X183987097Y-59345818D01*
X183867391Y-59174861D01*
X183862443Y-59167794D01*
X183862441Y-59167791D01*
X183859284Y-59163283D01*
X183701717Y-59005716D01*
X183519183Y-58877903D01*
X183514201Y-58875580D01*
X183514196Y-58875577D01*
X183414728Y-58829195D01*
X183361443Y-58782278D01*
X183341982Y-58714001D01*
X183362524Y-58646041D01*
X183414728Y-58600805D01*
X183514196Y-58554423D01*
X183514201Y-58554420D01*
X183519183Y-58552097D01*
X183701717Y-58424284D01*
X183859284Y-58266717D01*
X183987097Y-58084182D01*
X183989420Y-58079200D01*
X183989423Y-58079195D01*
X184078947Y-57887209D01*
X184078948Y-57887208D01*
X184081270Y-57882227D01*
X184138944Y-57666986D01*
X184158365Y-57445000D01*
X184138944Y-57223014D01*
X184090307Y-57041498D01*
X184082693Y-57013083D01*
X184082692Y-57013081D01*
X184081270Y-57007773D01*
X184078947Y-57002791D01*
X183989423Y-56810805D01*
X183989420Y-56810800D01*
X183987097Y-56805818D01*
X183859284Y-56623283D01*
X183701717Y-56465716D01*
X183519183Y-56337903D01*
X183514201Y-56335580D01*
X183514196Y-56335577D01*
X183414728Y-56289195D01*
X183361443Y-56242278D01*
X183341982Y-56174001D01*
X183362524Y-56106041D01*
X183414728Y-56060805D01*
X183514196Y-56014423D01*
X183514201Y-56014420D01*
X183519183Y-56012097D01*
X183701717Y-55884284D01*
X183859284Y-55726717D01*
X183987097Y-55544182D01*
X183989420Y-55539200D01*
X183989423Y-55539195D01*
X184078947Y-55347209D01*
X184078948Y-55347208D01*
X184081270Y-55342227D01*
X184138944Y-55126986D01*
X184158365Y-54905000D01*
X184138944Y-54683014D01*
X184100480Y-54539464D01*
X184082693Y-54473083D01*
X184082692Y-54473081D01*
X184081270Y-54467773D01*
X184013959Y-54323424D01*
X183989423Y-54270805D01*
X183989420Y-54270800D01*
X183987097Y-54265818D01*
X183915528Y-54163608D01*
X183862443Y-54087794D01*
X183862441Y-54087791D01*
X183859284Y-54083283D01*
X183701717Y-53925716D01*
X183519183Y-53797903D01*
X183514201Y-53795580D01*
X183514196Y-53795577D01*
X183414728Y-53749195D01*
X183361443Y-53702278D01*
X183341982Y-53634001D01*
X183362524Y-53566041D01*
X183414728Y-53520805D01*
X183514196Y-53474423D01*
X183514201Y-53474420D01*
X183519183Y-53472097D01*
X183645296Y-53383791D01*
X183697206Y-53347443D01*
X183697208Y-53347441D01*
X183701717Y-53344284D01*
X183859284Y-53186717D01*
X183987097Y-53004182D01*
X183989420Y-52999200D01*
X183989423Y-52999195D01*
X184078947Y-52807209D01*
X184078948Y-52807208D01*
X184081270Y-52802227D01*
X184138944Y-52586986D01*
X184158365Y-52365000D01*
X184138944Y-52143014D01*
X184137521Y-52137704D01*
X184137520Y-52137697D01*
X184127964Y-52102033D01*
X184129654Y-52031056D01*
X184160576Y-51980328D01*
X197370499Y-38770405D01*
X197432811Y-38736379D01*
X197459594Y-38733500D01*
X204520606Y-38733500D01*
X204588727Y-38753502D01*
X204623819Y-38787229D01*
X204707834Y-38907214D01*
X204733802Y-38944300D01*
X204895700Y-39106198D01*
X204900208Y-39109355D01*
X204900211Y-39109357D01*
X204978389Y-39164098D01*
X205083251Y-39237523D01*
X205088233Y-39239846D01*
X205088238Y-39239849D01*
X205285775Y-39331961D01*
X205290757Y-39334284D01*
X205296065Y-39335706D01*
X205296067Y-39335707D01*
X205506598Y-39392119D01*
X205506600Y-39392119D01*
X205511913Y-39393543D01*
X205740000Y-39413498D01*
X205968087Y-39393543D01*
X205973400Y-39392119D01*
X205973402Y-39392119D01*
X206183933Y-39335707D01*
X206183935Y-39335706D01*
X206189243Y-39334284D01*
X206194225Y-39331961D01*
X206391762Y-39239849D01*
X206391767Y-39239846D01*
X206396749Y-39237523D01*
X206501611Y-39164098D01*
X206579789Y-39109357D01*
X206579792Y-39109355D01*
X206584300Y-39106198D01*
X206746198Y-38944300D01*
X206773163Y-38905791D01*
X206805338Y-38859840D01*
X206877523Y-38756749D01*
X206879846Y-38751767D01*
X206879849Y-38751762D01*
X206971961Y-38554225D01*
X206971961Y-38554224D01*
X206974284Y-38549243D01*
X207033543Y-38328087D01*
X207053498Y-38100000D01*
X207033543Y-37871913D01*
X206974284Y-37650757D01*
X206964544Y-37629870D01*
X206879849Y-37448238D01*
X206879846Y-37448233D01*
X206877523Y-37443251D01*
X206746198Y-37255700D01*
X206584300Y-37093802D01*
X206579792Y-37090645D01*
X206579789Y-37090643D01*
X206501611Y-37035902D01*
X206396749Y-36962477D01*
X206391767Y-36960154D01*
X206391762Y-36960151D01*
X206194225Y-36868039D01*
X206194224Y-36868039D01*
X206189243Y-36865716D01*
X206183935Y-36864294D01*
X206183933Y-36864293D01*
X205973402Y-36807881D01*
X205973400Y-36807881D01*
X205968087Y-36806457D01*
X205740000Y-36786502D01*
X205511913Y-36806457D01*
X205506600Y-36807881D01*
X205506598Y-36807881D01*
X205296067Y-36864293D01*
X205296065Y-36864294D01*
X205290757Y-36865716D01*
X205285776Y-36868039D01*
X205285775Y-36868039D01*
X205088238Y-36960151D01*
X205088233Y-36960154D01*
X205083251Y-36962477D01*
X204978389Y-37035902D01*
X204900211Y-37090643D01*
X204900208Y-37090645D01*
X204895700Y-37093802D01*
X204733802Y-37255700D01*
X204730645Y-37260208D01*
X204730643Y-37260211D01*
X204623819Y-37412771D01*
X204568362Y-37457099D01*
X204520606Y-37466500D01*
X197223763Y-37466500D01*
X197212579Y-37465973D01*
X197205091Y-37464299D01*
X197197168Y-37464548D01*
X197137033Y-37466438D01*
X197133075Y-37466500D01*
X197105144Y-37466500D01*
X197101229Y-37466995D01*
X197101225Y-37466995D01*
X197101167Y-37467003D01*
X197101138Y-37467006D01*
X197089296Y-37467939D01*
X197045110Y-37469327D01*
X197027744Y-37474372D01*
X197025658Y-37474978D01*
X197006306Y-37478986D01*
X196994068Y-37480532D01*
X196994066Y-37480533D01*
X196986203Y-37481526D01*
X196945086Y-37497806D01*
X196933885Y-37501641D01*
X196891406Y-37513982D01*
X196884587Y-37518015D01*
X196884582Y-37518017D01*
X196873971Y-37524293D01*
X196856221Y-37532990D01*
X196837383Y-37540448D01*
X196830967Y-37545109D01*
X196830966Y-37545110D01*
X196801625Y-37566428D01*
X196791701Y-37572947D01*
X196760460Y-37591422D01*
X196760455Y-37591426D01*
X196753637Y-37595458D01*
X196739313Y-37609782D01*
X196724281Y-37622621D01*
X196707893Y-37634528D01*
X196679712Y-37668593D01*
X196671722Y-37677373D01*
X184368088Y-49981007D01*
X184305776Y-50015033D01*
X184234961Y-50009968D01*
X184178125Y-49967421D01*
X184153314Y-49900901D01*
X184153472Y-49880931D01*
X184157886Y-49830475D01*
X184158365Y-49825000D01*
X184138944Y-49603014D01*
X184090573Y-49422493D01*
X184082693Y-49393083D01*
X184082692Y-49393081D01*
X184081270Y-49387773D01*
X184032888Y-49284017D01*
X183989423Y-49190805D01*
X183989420Y-49190800D01*
X183987097Y-49185818D01*
X183859284Y-49003283D01*
X183701717Y-48845716D01*
X183519183Y-48717903D01*
X183514201Y-48715580D01*
X183514196Y-48715577D01*
X183414136Y-48668919D01*
X183360851Y-48622002D01*
X183341390Y-48553725D01*
X183361932Y-48485765D01*
X183414136Y-48440529D01*
X183513953Y-48393984D01*
X183523431Y-48388512D01*
X183567920Y-48357359D01*
X183576294Y-48346883D01*
X183569226Y-48333436D01*
X182892812Y-47657022D01*
X182878868Y-47649408D01*
X182877035Y-47649539D01*
X182870420Y-47653790D01*
X182190053Y-48334157D01*
X182183623Y-48345932D01*
X182192916Y-48357945D01*
X182236569Y-48388512D01*
X182246051Y-48393986D01*
X182345864Y-48440529D01*
X182399150Y-48487446D01*
X182418611Y-48555723D01*
X182398070Y-48623683D01*
X182345865Y-48668919D01*
X182245805Y-48715577D01*
X182245800Y-48715580D01*
X182240818Y-48717903D01*
X182209976Y-48739499D01*
X182082736Y-48828594D01*
X182058283Y-48845716D01*
X181900716Y-49003283D01*
X181772903Y-49185818D01*
X181770580Y-49190800D01*
X181770577Y-49190805D01*
X181727112Y-49284017D01*
X181678730Y-49387773D01*
X181677308Y-49393081D01*
X181677307Y-49393083D01*
X181669427Y-49422493D01*
X181621056Y-49603014D01*
X181601635Y-49825000D01*
X181621056Y-50046986D01*
X181678730Y-50262227D01*
X181681052Y-50267208D01*
X181681053Y-50267209D01*
X181770577Y-50459195D01*
X181770580Y-50459200D01*
X181772903Y-50464182D01*
X181844472Y-50566392D01*
X181882359Y-50620500D01*
X181900716Y-50646717D01*
X182058283Y-50804284D01*
X182062792Y-50807441D01*
X182062794Y-50807443D01*
X182102999Y-50835595D01*
X182240817Y-50932097D01*
X182245802Y-50934421D01*
X182245808Y-50934425D01*
X182345272Y-50980805D01*
X182398558Y-51027722D01*
X182418019Y-51095999D01*
X182397478Y-51163959D01*
X182345273Y-51209195D01*
X182245805Y-51255577D01*
X182245800Y-51255580D01*
X182240818Y-51257903D01*
X182192044Y-51292055D01*
X182067816Y-51379041D01*
X182058283Y-51385716D01*
X181900716Y-51543283D01*
X181897559Y-51547791D01*
X181897557Y-51547794D01*
X181844472Y-51623608D01*
X181772903Y-51725818D01*
X181770580Y-51730800D01*
X181770577Y-51730805D01*
X181718439Y-51842616D01*
X181678730Y-51927773D01*
X181677308Y-51933081D01*
X181677307Y-51933083D01*
X181664648Y-51980328D01*
X181621056Y-52143014D01*
X181601635Y-52365000D01*
X181621056Y-52586986D01*
X181678730Y-52802227D01*
X181681052Y-52807208D01*
X181681053Y-52807209D01*
X181770577Y-52999195D01*
X181770580Y-52999200D01*
X181772903Y-53004182D01*
X181900716Y-53186717D01*
X182058283Y-53344284D01*
X182062792Y-53347441D01*
X182062794Y-53347443D01*
X182114704Y-53383791D01*
X182240817Y-53472097D01*
X182245802Y-53474421D01*
X182245808Y-53474425D01*
X182345272Y-53520805D01*
X182398558Y-53567722D01*
X182418019Y-53635999D01*
X182397478Y-53703959D01*
X182345273Y-53749195D01*
X182245805Y-53795577D01*
X182245800Y-53795580D01*
X182240818Y-53797903D01*
X182213898Y-53816753D01*
X182083223Y-53908253D01*
X182058283Y-53925716D01*
X181900716Y-54083283D01*
X181897559Y-54087791D01*
X181897557Y-54087794D01*
X181844472Y-54163608D01*
X181772903Y-54265818D01*
X181770580Y-54270800D01*
X181770577Y-54270805D01*
X181746041Y-54323424D01*
X181678730Y-54467773D01*
X181677308Y-54473081D01*
X181677307Y-54473083D01*
X181659520Y-54539464D01*
X181621056Y-54683014D01*
X181601635Y-54905000D01*
X181621056Y-55126986D01*
X181622480Y-55132299D01*
X181622480Y-55132300D01*
X181624891Y-55141298D01*
X181623203Y-55212275D01*
X181583410Y-55271071D01*
X181518146Y-55299021D01*
X181471850Y-55295953D01*
X181442714Y-55288472D01*
X181442708Y-55288471D01*
X181435030Y-55286500D01*
X181414776Y-55286500D01*
X181395065Y-55284949D01*
X181382886Y-55283020D01*
X181375057Y-55281780D01*
X181367165Y-55282526D01*
X181331039Y-55285941D01*
X181319181Y-55286500D01*
X176660596Y-55286500D01*
X176592475Y-55266498D01*
X176552877Y-55225866D01*
X176489390Y-55121243D01*
X176486623Y-55116683D01*
X176335523Y-54942555D01*
X176242876Y-54866589D01*
X176161373Y-54799760D01*
X176161367Y-54799756D01*
X176157245Y-54796376D01*
X176125750Y-54778448D01*
X176076445Y-54727368D01*
X176062583Y-54657738D01*
X176088566Y-54591667D01*
X176117716Y-54564427D01*
X176133398Y-54553870D01*
X176239319Y-54482559D01*
X176247908Y-54474366D01*
X176378950Y-54349357D01*
X176406135Y-54323424D01*
X176543754Y-54138458D01*
X176571807Y-54083283D01*
X176618338Y-53991762D01*
X176648240Y-53932949D01*
X176655909Y-53908253D01*
X176715024Y-53717871D01*
X176716607Y-53712773D01*
X176724392Y-53654034D01*
X176746198Y-53489511D01*
X176746198Y-53489506D01*
X176746898Y-53484226D01*
X176746514Y-53473984D01*
X176741498Y-53340387D01*
X176738249Y-53253842D01*
X176733896Y-53233093D01*
X176692002Y-53033428D01*
X176690907Y-53028209D01*
X176683199Y-53008690D01*
X176608185Y-52818744D01*
X176608184Y-52818742D01*
X176606224Y-52813779D01*
X176602238Y-52807209D01*
X176489390Y-52621243D01*
X176486623Y-52616683D01*
X176399755Y-52516576D01*
X176339023Y-52446588D01*
X176339021Y-52446586D01*
X176335523Y-52442555D01*
X176301763Y-52414873D01*
X176261769Y-52356215D01*
X176259837Y-52285245D01*
X176292559Y-52228345D01*
X181392463Y-47128441D01*
X181454775Y-47094415D01*
X181525590Y-47099480D01*
X181582426Y-47142027D01*
X181607237Y-47208547D01*
X181607078Y-47228519D01*
X181602616Y-47279515D01*
X181602616Y-47290475D01*
X181621072Y-47501419D01*
X181622975Y-47512214D01*
X181677779Y-47716745D01*
X181681525Y-47727037D01*
X181771012Y-47918944D01*
X181776495Y-47928439D01*
X181807640Y-47972919D01*
X181818117Y-47981294D01*
X181831564Y-47974226D01*
X182519658Y-47286132D01*
X183244408Y-47286132D01*
X183244539Y-47287965D01*
X183248790Y-47294580D01*
X183929157Y-47974947D01*
X183940932Y-47981377D01*
X183952947Y-47972081D01*
X183983505Y-47928439D01*
X183988988Y-47918944D01*
X184078475Y-47727037D01*
X184082221Y-47716745D01*
X184137025Y-47512214D01*
X184138928Y-47501419D01*
X184157384Y-47290475D01*
X184157384Y-47279525D01*
X184138928Y-47068581D01*
X184137025Y-47057786D01*
X184082221Y-46853255D01*
X184078475Y-46842963D01*
X183988988Y-46651056D01*
X183983505Y-46641561D01*
X183952360Y-46597081D01*
X183941883Y-46588706D01*
X183928436Y-46595774D01*
X183252022Y-47272188D01*
X183244408Y-47286132D01*
X182519658Y-47286132D01*
X183569947Y-46235843D01*
X183576377Y-46224067D01*
X183574467Y-46221598D01*
X183548605Y-46155479D01*
X183562595Y-46085875D01*
X183611996Y-46034883D01*
X183674126Y-46018500D01*
X183693134Y-46018500D01*
X183755316Y-46011745D01*
X183891705Y-45960615D01*
X184008261Y-45873261D01*
X184095615Y-45756705D01*
X184146745Y-45620316D01*
X184153500Y-45558134D01*
X184153500Y-43931866D01*
X184146745Y-43869684D01*
X184095615Y-43733295D01*
X184008261Y-43616739D01*
X183891705Y-43529385D01*
X183755316Y-43478255D01*
X183693134Y-43471500D01*
X182066866Y-43471500D01*
X182004684Y-43478255D01*
X181868295Y-43529385D01*
X181751739Y-43616739D01*
X181664385Y-43733295D01*
X181613255Y-43869684D01*
X181606500Y-43931866D01*
X181606500Y-45070405D01*
X181586498Y-45138526D01*
X181569595Y-45159500D01*
X176108595Y-50620500D01*
X176046283Y-50654526D01*
X175975468Y-50649461D01*
X175918632Y-50606914D01*
X175893821Y-50540394D01*
X175893500Y-50531405D01*
X175893500Y-49608768D01*
X175894027Y-49597585D01*
X175895702Y-49590092D01*
X175893562Y-49522001D01*
X175893500Y-49518044D01*
X175893500Y-49490144D01*
X175892996Y-49486153D01*
X175892063Y-49474311D01*
X175890923Y-49438036D01*
X175890674Y-49430111D01*
X175885021Y-49410652D01*
X175881012Y-49391293D01*
X175879938Y-49382791D01*
X175878474Y-49371203D01*
X175875558Y-49363837D01*
X175875556Y-49363831D01*
X175862200Y-49330098D01*
X175858355Y-49318868D01*
X175848230Y-49284017D01*
X175848230Y-49284016D01*
X175846019Y-49276407D01*
X175835705Y-49258966D01*
X175827008Y-49241213D01*
X175822472Y-49229758D01*
X175819552Y-49222383D01*
X175793563Y-49186612D01*
X175787047Y-49176692D01*
X175768578Y-49145463D01*
X175764542Y-49138638D01*
X175750221Y-49124317D01*
X175737380Y-49109283D01*
X175730131Y-49099306D01*
X175725472Y-49092893D01*
X175691395Y-49064702D01*
X175682616Y-49056712D01*
X168054643Y-41428738D01*
X168020617Y-41366426D01*
X168025682Y-41295611D01*
X168028855Y-41287894D01*
X168044007Y-41254256D01*
X168045930Y-41249988D01*
X168117683Y-40995570D01*
X168151043Y-40733340D01*
X168151127Y-40730158D01*
X168152415Y-40680943D01*
X168153487Y-40640000D01*
X168133897Y-40376384D01*
X168075557Y-40118559D01*
X168063377Y-40087238D01*
X167981442Y-39876542D01*
X167981441Y-39876540D01*
X167979749Y-39872189D01*
X167953659Y-39826540D01*
X167931375Y-39787552D01*
X167848578Y-39642687D01*
X167684925Y-39435094D01*
X167492385Y-39253970D01*
X167454949Y-39228000D01*
X167279026Y-39105958D01*
X167279021Y-39105955D01*
X167275188Y-39103296D01*
X167270997Y-39101229D01*
X167042294Y-38988445D01*
X167042291Y-38988444D01*
X167038106Y-38986380D01*
X166982612Y-38968616D01*
X166892556Y-38939789D01*
X166786347Y-38905791D01*
X166643825Y-38882580D01*
X166530053Y-38864051D01*
X166530052Y-38864051D01*
X166525441Y-38863300D01*
X166393281Y-38861570D01*
X166265798Y-38859901D01*
X166265795Y-38859901D01*
X166261121Y-38859840D01*
X165999192Y-38895486D01*
X165994702Y-38896795D01*
X165994696Y-38896796D01*
X165886732Y-38928265D01*
X165745410Y-38969457D01*
X165741163Y-38971415D01*
X165741160Y-38971416D01*
X165703215Y-38988909D01*
X165505348Y-39080127D01*
X165501439Y-39082690D01*
X165288195Y-39222499D01*
X165288190Y-39222503D01*
X165284282Y-39225065D01*
X165280790Y-39228182D01*
X165094982Y-39394022D01*
X165087067Y-39401086D01*
X164918036Y-39604324D01*
X164780901Y-39830314D01*
X164779095Y-39834622D01*
X164779094Y-39834623D01*
X164680669Y-40069341D01*
X164678677Y-40074091D01*
X164677526Y-40078623D01*
X164677525Y-40078626D01*
X164650865Y-40183602D01*
X164613608Y-40330301D01*
X164587124Y-40593314D01*
X164587348Y-40597980D01*
X164587348Y-40597985D01*
X164589421Y-40641132D01*
X164599807Y-40857352D01*
X164600720Y-40861940D01*
X164650439Y-41111894D01*
X164651378Y-41116616D01*
X164652957Y-41121014D01*
X164652959Y-41121021D01*
X164720955Y-41310405D01*
X164740704Y-41365410D01*
X164865822Y-41598267D01*
X164868617Y-41602011D01*
X164868619Y-41602013D01*
X164943235Y-41701936D01*
X165023985Y-41810073D01*
X165027292Y-41813351D01*
X165027297Y-41813357D01*
X165170305Y-41955121D01*
X165211718Y-41996174D01*
X165215485Y-41998936D01*
X165215486Y-41998937D01*
X165339702Y-42090016D01*
X165424896Y-42152483D01*
X165429031Y-42154659D01*
X165429035Y-42154661D01*
X165551449Y-42219066D01*
X165658836Y-42275565D01*
X165908400Y-42362716D01*
X165912993Y-42363588D01*
X166163515Y-42411151D01*
X166163518Y-42411151D01*
X166168104Y-42412022D01*
X166300174Y-42417212D01*
X166427575Y-42422218D01*
X166427581Y-42422218D01*
X166432243Y-42422401D01*
X166695015Y-42393622D01*
X166699526Y-42392434D01*
X166699528Y-42392434D01*
X166946124Y-42327511D01*
X166946126Y-42327510D01*
X166950647Y-42326320D01*
X166954942Y-42324475D01*
X166954950Y-42324472D01*
X167018921Y-42296987D01*
X167089406Y-42288474D01*
X167157755Y-42323659D01*
X174589595Y-49755499D01*
X174623621Y-49817811D01*
X174626500Y-49844594D01*
X174626500Y-52077622D01*
X174606498Y-52145743D01*
X174552250Y-52192504D01*
X174476790Y-52226496D01*
X174476786Y-52226498D01*
X174471925Y-52228688D01*
X174280681Y-52357441D01*
X174276824Y-52361120D01*
X174276822Y-52361122D01*
X174259327Y-52377812D01*
X174113865Y-52516576D01*
X173976246Y-52701542D01*
X173973830Y-52706293D01*
X173973828Y-52706297D01*
X173959850Y-52733790D01*
X173871760Y-52907051D01*
X173870178Y-52912145D01*
X173870177Y-52912148D01*
X173825837Y-53054947D01*
X173803393Y-53127227D01*
X173802692Y-53132516D01*
X173773873Y-53349958D01*
X173773102Y-53355774D01*
X173773302Y-53361103D01*
X173773302Y-53361105D01*
X173776165Y-53437359D01*
X173781751Y-53586158D01*
X173829093Y-53811791D01*
X173831053Y-53816753D01*
X173839265Y-53837547D01*
X173845685Y-53908253D01*
X173811169Y-53972926D01*
X170549747Y-57234348D01*
X170541461Y-57241888D01*
X170534982Y-57246000D01*
X170529557Y-57251777D01*
X170488357Y-57295651D01*
X170485602Y-57298493D01*
X170465865Y-57318230D01*
X170463385Y-57321427D01*
X170455682Y-57330447D01*
X170425414Y-57362679D01*
X170421595Y-57369625D01*
X170421593Y-57369628D01*
X170415652Y-57380434D01*
X170404801Y-57396953D01*
X170392386Y-57412959D01*
X170389241Y-57420228D01*
X170389238Y-57420232D01*
X170374826Y-57453537D01*
X170369609Y-57464187D01*
X170348305Y-57502940D01*
X170346334Y-57510615D01*
X170346334Y-57510616D01*
X170343267Y-57522562D01*
X170336863Y-57541266D01*
X170328819Y-57559855D01*
X170327580Y-57567678D01*
X170327577Y-57567688D01*
X170321901Y-57603524D01*
X170319495Y-57615144D01*
X170308500Y-57657970D01*
X170308500Y-57678224D01*
X170306949Y-57697934D01*
X170303780Y-57717943D01*
X170304526Y-57725835D01*
X170307941Y-57761961D01*
X170308500Y-57773819D01*
X170308500Y-62189405D01*
X170288498Y-62257526D01*
X170271595Y-62278501D01*
X170026038Y-62524057D01*
X169787742Y-62762353D01*
X169779463Y-62769887D01*
X169772982Y-62774000D01*
X169728125Y-62821768D01*
X169726357Y-62823651D01*
X169723602Y-62826493D01*
X169703865Y-62846230D01*
X169701385Y-62849427D01*
X169693682Y-62858447D01*
X169663414Y-62890679D01*
X169659595Y-62897625D01*
X169659593Y-62897628D01*
X169653652Y-62908434D01*
X169642801Y-62924953D01*
X169630386Y-62940959D01*
X169627241Y-62948228D01*
X169627238Y-62948232D01*
X169612826Y-62981537D01*
X169607609Y-62992187D01*
X169586305Y-63030940D01*
X169584334Y-63038615D01*
X169584334Y-63038616D01*
X169581267Y-63050562D01*
X169574863Y-63069266D01*
X169570119Y-63080230D01*
X169566819Y-63087855D01*
X169565580Y-63095678D01*
X169565577Y-63095688D01*
X169559901Y-63131524D01*
X169557495Y-63143144D01*
X169550934Y-63168699D01*
X169546500Y-63185970D01*
X169546500Y-63206224D01*
X169544949Y-63225934D01*
X169541780Y-63245943D01*
X169542526Y-63253835D01*
X169545941Y-63289961D01*
X169546500Y-63301819D01*
X169546500Y-76161233D01*
X169545973Y-76172416D01*
X169544298Y-76179909D01*
X169544547Y-76187835D01*
X169544547Y-76187836D01*
X169546438Y-76247986D01*
X169546500Y-76251945D01*
X169546500Y-76279856D01*
X169546997Y-76283790D01*
X169546997Y-76283791D01*
X169547005Y-76283856D01*
X169547938Y-76295693D01*
X169549327Y-76339889D01*
X169554978Y-76359339D01*
X169558987Y-76378700D01*
X169561526Y-76398797D01*
X169564445Y-76406168D01*
X169564445Y-76406170D01*
X169577804Y-76439912D01*
X169581649Y-76451142D01*
X169584183Y-76459865D01*
X169593982Y-76493593D01*
X169598015Y-76500412D01*
X169598017Y-76500417D01*
X169604293Y-76511028D01*
X169612988Y-76528776D01*
X169620448Y-76547617D01*
X169625110Y-76554033D01*
X169625110Y-76554034D01*
X169646436Y-76583387D01*
X169652952Y-76593307D01*
X169675458Y-76631362D01*
X169689779Y-76645683D01*
X169702619Y-76660716D01*
X169714528Y-76677107D01*
X169720634Y-76682158D01*
X169748605Y-76705298D01*
X169757384Y-76713288D01*
X171174595Y-78130499D01*
X171208621Y-78192811D01*
X171211500Y-78219594D01*
X171211500Y-79430400D01*
X171211837Y-79433646D01*
X171211837Y-79433650D01*
X171219866Y-79511029D01*
X171222474Y-79536166D01*
X171278450Y-79703946D01*
X171371522Y-79854348D01*
X171496697Y-79979305D01*
X171642340Y-80069081D01*
X171689832Y-80121852D01*
X171701256Y-80191924D01*
X171672982Y-80257048D01*
X171663195Y-80267510D01*
X171616615Y-80311946D01*
X171548865Y-80376576D01*
X171411246Y-80561542D01*
X171306760Y-80767051D01*
X171305178Y-80772145D01*
X171305177Y-80772148D01*
X171253307Y-80939195D01*
X171238393Y-80987227D01*
X171237692Y-80992516D01*
X171222304Y-81108623D01*
X171208102Y-81215774D01*
X171216751Y-81446158D01*
X171264093Y-81671791D01*
X171348776Y-81886221D01*
X171351543Y-81890780D01*
X171351544Y-81890783D01*
X171441045Y-82038276D01*
X171468377Y-82083317D01*
X171471874Y-82087347D01*
X171558438Y-82187103D01*
X171619477Y-82257445D01*
X171623608Y-82260832D01*
X171793627Y-82400240D01*
X171793633Y-82400244D01*
X171797755Y-82403624D01*
X171802391Y-82406263D01*
X171802394Y-82406265D01*
X171872784Y-82446333D01*
X171998114Y-82517675D01*
X172003139Y-82519499D01*
X172003496Y-82519629D01*
X172003626Y-82519724D01*
X172007975Y-82521734D01*
X172007566Y-82522620D01*
X172060702Y-82561676D01*
X172086095Y-82627976D01*
X172086500Y-82638066D01*
X172086500Y-87870933D01*
X172066498Y-87939054D01*
X172019654Y-87982184D01*
X171920302Y-88035010D01*
X171763237Y-88163110D01*
X171759310Y-88167857D01*
X171759308Y-88167859D01*
X171637973Y-88314528D01*
X171637971Y-88314531D01*
X171634044Y-88319278D01*
X171537644Y-88497565D01*
X171534217Y-88508637D01*
X171496938Y-88629066D01*
X171477710Y-88691180D01*
X171477066Y-88697305D01*
X171477066Y-88697306D01*
X171459531Y-88864136D01*
X171456524Y-88892750D01*
X171459009Y-88920057D01*
X171473496Y-89079230D01*
X171474894Y-89094596D01*
X171476632Y-89100502D01*
X171476633Y-89100506D01*
X171496006Y-89166328D01*
X171532119Y-89289029D01*
X171534972Y-89294486D01*
X171534973Y-89294489D01*
X171585970Y-89392038D01*
X171599804Y-89461674D01*
X171573793Y-89527735D01*
X171520731Y-89567549D01*
X171520133Y-89567786D01*
X171508865Y-89571646D01*
X171466407Y-89583982D01*
X171459581Y-89588019D01*
X171448972Y-89594293D01*
X171431224Y-89602988D01*
X171412383Y-89610448D01*
X171405967Y-89615110D01*
X171405966Y-89615110D01*
X171376613Y-89636436D01*
X171366693Y-89642952D01*
X171335465Y-89661420D01*
X171335462Y-89661422D01*
X171328638Y-89665458D01*
X171314317Y-89679779D01*
X171299284Y-89692619D01*
X171282893Y-89704528D01*
X171277842Y-89710634D01*
X171254702Y-89738605D01*
X171246712Y-89747384D01*
X169787747Y-91206348D01*
X169779461Y-91213888D01*
X169772982Y-91218000D01*
X169767557Y-91223777D01*
X169726357Y-91267651D01*
X169723602Y-91270493D01*
X169703865Y-91290230D01*
X169701385Y-91293427D01*
X169693682Y-91302447D01*
X169663414Y-91334679D01*
X169659595Y-91341625D01*
X169659593Y-91341628D01*
X169653652Y-91352434D01*
X169642801Y-91368953D01*
X169630386Y-91384959D01*
X169627241Y-91392228D01*
X169627238Y-91392232D01*
X169612826Y-91425537D01*
X169607609Y-91436187D01*
X169586305Y-91474940D01*
X169584334Y-91482615D01*
X169584334Y-91482616D01*
X169581267Y-91494562D01*
X169574863Y-91513266D01*
X169572307Y-91519174D01*
X169566819Y-91531855D01*
X169565580Y-91539678D01*
X169565577Y-91539688D01*
X169559901Y-91575524D01*
X169557495Y-91587144D01*
X169548725Y-91621305D01*
X169546500Y-91629970D01*
X169546500Y-91650224D01*
X169544949Y-91669934D01*
X169541780Y-91689943D01*
X169542526Y-91697835D01*
X169545941Y-91733961D01*
X169546500Y-91745819D01*
X169546500Y-99489233D01*
X169545973Y-99500416D01*
X169544298Y-99507909D01*
X169544547Y-99515835D01*
X169544547Y-99515836D01*
X169546438Y-99575986D01*
X169546500Y-99579945D01*
X169546500Y-99607856D01*
X169546997Y-99611790D01*
X169546997Y-99611791D01*
X169547005Y-99611856D01*
X169547938Y-99623693D01*
X169549327Y-99667889D01*
X169554978Y-99687339D01*
X169558987Y-99706700D01*
X169561526Y-99726797D01*
X169564445Y-99734168D01*
X169564445Y-99734170D01*
X169577804Y-99767912D01*
X169581649Y-99779142D01*
X169593982Y-99821593D01*
X169598015Y-99828412D01*
X169598017Y-99828417D01*
X169604293Y-99839028D01*
X169612988Y-99856776D01*
X169620448Y-99875617D01*
X169625110Y-99882033D01*
X169625110Y-99882034D01*
X169646436Y-99911387D01*
X169652952Y-99921307D01*
X169658388Y-99930498D01*
X169675458Y-99959362D01*
X169689779Y-99973683D01*
X169702619Y-99988716D01*
X169714528Y-100005107D01*
X169720632Y-100010157D01*
X169720637Y-100010162D01*
X169748598Y-100033293D01*
X169757379Y-100041283D01*
X170593000Y-100876905D01*
X170627025Y-100939217D01*
X170621960Y-101010033D01*
X170579413Y-101066868D01*
X170512893Y-101091679D01*
X170503904Y-101092000D01*
X145414000Y-101092000D01*
X145345879Y-101071998D01*
X145299386Y-101018342D01*
X145288000Y-100966000D01*
X145288000Y-81233314D01*
X146807124Y-81233314D01*
X146807348Y-81237980D01*
X146807348Y-81237985D01*
X146812452Y-81344226D01*
X146819807Y-81497352D01*
X146871378Y-81756616D01*
X146872957Y-81761014D01*
X146872959Y-81761021D01*
X146956501Y-81993703D01*
X146960704Y-82005410D01*
X146962921Y-82009536D01*
X147030301Y-82134936D01*
X147085822Y-82238267D01*
X147088617Y-82242011D01*
X147088619Y-82242013D01*
X147171743Y-82353329D01*
X147243985Y-82450073D01*
X147247292Y-82453351D01*
X147247297Y-82453357D01*
X147360442Y-82565518D01*
X147431718Y-82636174D01*
X147644896Y-82792483D01*
X147649031Y-82794659D01*
X147649035Y-82794661D01*
X147874688Y-82913383D01*
X147874692Y-82913385D01*
X147878836Y-82915565D01*
X147881183Y-82916385D01*
X147935235Y-82961517D01*
X147956500Y-83031565D01*
X147956500Y-83891233D01*
X147955973Y-83902416D01*
X147954298Y-83909909D01*
X147954547Y-83917835D01*
X147954547Y-83917836D01*
X147956438Y-83977986D01*
X147956500Y-83981945D01*
X147956500Y-84009856D01*
X147956997Y-84013790D01*
X147956997Y-84013791D01*
X147957005Y-84013856D01*
X147957938Y-84025693D01*
X147959327Y-84069889D01*
X147962386Y-84080417D01*
X147964978Y-84089339D01*
X147968987Y-84108700D01*
X147971526Y-84128797D01*
X147974445Y-84136168D01*
X147974445Y-84136170D01*
X147987804Y-84169912D01*
X147991649Y-84181142D01*
X148003982Y-84223593D01*
X148008015Y-84230412D01*
X148008017Y-84230417D01*
X148014293Y-84241028D01*
X148022988Y-84258776D01*
X148030448Y-84277617D01*
X148035110Y-84284033D01*
X148035110Y-84284034D01*
X148056436Y-84313387D01*
X148062952Y-84323307D01*
X148085458Y-84361362D01*
X148099779Y-84375683D01*
X148112619Y-84390716D01*
X148124528Y-84407107D01*
X148130634Y-84412158D01*
X148158605Y-84435298D01*
X148167384Y-84443288D01*
X154315511Y-90591415D01*
X154349537Y-90653727D01*
X154343200Y-90727812D01*
X154315016Y-90797396D01*
X154287947Y-90864225D01*
X154224498Y-91119654D01*
X154197672Y-91381474D01*
X154199756Y-91434525D01*
X154207436Y-91629970D01*
X154208005Y-91644462D01*
X154255290Y-91903371D01*
X154338584Y-92153034D01*
X154340577Y-92157022D01*
X154428651Y-92333285D01*
X154456225Y-92388470D01*
X154458754Y-92392129D01*
X154593530Y-92587134D01*
X154605865Y-92604982D01*
X154784520Y-92798249D01*
X154988623Y-92964415D01*
X154992431Y-92966708D01*
X154992433Y-92966709D01*
X155210288Y-93097868D01*
X155210292Y-93097870D01*
X155214104Y-93100165D01*
X155350026Y-93157721D01*
X155452359Y-93201054D01*
X155452364Y-93201056D01*
X155456462Y-93202791D01*
X155460760Y-93203930D01*
X155460764Y-93203932D01*
X155550384Y-93227694D01*
X155710862Y-93270244D01*
X155972229Y-93301179D01*
X156235347Y-93294978D01*
X156239745Y-93294246D01*
X156490576Y-93252496D01*
X156490580Y-93252495D01*
X156494966Y-93251765D01*
X156499207Y-93250424D01*
X156499210Y-93250423D01*
X156741661Y-93173746D01*
X156741663Y-93173745D01*
X156745907Y-93172403D01*
X156749918Y-93170477D01*
X156749923Y-93170475D01*
X156979143Y-93060405D01*
X156979144Y-93060404D01*
X156983162Y-93058475D01*
X157093187Y-92984958D01*
X157198289Y-92914732D01*
X157198293Y-92914729D01*
X157201997Y-92912254D01*
X157205314Y-92909283D01*
X157205318Y-92909280D01*
X157394729Y-92739629D01*
X157394730Y-92739628D01*
X157398047Y-92736657D01*
X157567398Y-92535189D01*
X157606184Y-92472999D01*
X157661383Y-92384490D01*
X157706674Y-92311869D01*
X157717140Y-92288197D01*
X157811295Y-92075219D01*
X157813093Y-92071152D01*
X157884534Y-91817843D01*
X157910621Y-91623621D01*
X157939514Y-91558769D01*
X157998881Y-91519833D01*
X158069874Y-91519174D01*
X158129954Y-91557001D01*
X158160046Y-91621305D01*
X158161500Y-91640394D01*
X158161500Y-92590400D01*
X158161837Y-92593646D01*
X158161837Y-92593650D01*
X158170204Y-92674284D01*
X158172474Y-92696165D01*
X158228450Y-92863945D01*
X158321522Y-93014348D01*
X158446697Y-93139305D01*
X158452927Y-93143145D01*
X158452928Y-93143146D01*
X158590090Y-93227694D01*
X158597262Y-93232115D01*
X158652459Y-93250423D01*
X158758611Y-93285632D01*
X158758613Y-93285632D01*
X158765139Y-93287797D01*
X158771975Y-93288497D01*
X158771978Y-93288498D01*
X158815031Y-93292909D01*
X158869600Y-93298500D01*
X161170400Y-93298500D01*
X161173646Y-93298163D01*
X161173650Y-93298163D01*
X161269307Y-93288238D01*
X161269311Y-93288237D01*
X161276165Y-93287526D01*
X161282701Y-93285345D01*
X161282703Y-93285345D01*
X161414805Y-93241272D01*
X161443945Y-93231550D01*
X161594348Y-93138478D01*
X161719305Y-93013303D01*
X161751174Y-92961602D01*
X161808275Y-92868968D01*
X161808276Y-92868966D01*
X161812115Y-92862738D01*
X161855439Y-92732119D01*
X161865632Y-92701389D01*
X161865632Y-92701387D01*
X161867797Y-92694861D01*
X161878500Y-92590400D01*
X161878500Y-90529594D01*
X161898502Y-90461473D01*
X161915405Y-90440499D01*
X164323788Y-88032117D01*
X166762253Y-85593652D01*
X166770539Y-85586112D01*
X166777018Y-85582000D01*
X166823644Y-85532348D01*
X166826398Y-85529507D01*
X166846135Y-85509770D01*
X166848615Y-85506573D01*
X166856320Y-85497551D01*
X166881159Y-85471100D01*
X166886586Y-85465321D01*
X166890405Y-85458375D01*
X166890407Y-85458372D01*
X166896348Y-85447566D01*
X166907199Y-85431047D01*
X166914758Y-85421301D01*
X166919614Y-85415041D01*
X166922759Y-85407772D01*
X166922762Y-85407768D01*
X166937174Y-85374463D01*
X166942391Y-85363813D01*
X166963695Y-85325060D01*
X166968733Y-85305437D01*
X166975137Y-85286734D01*
X166980033Y-85275420D01*
X166980033Y-85275419D01*
X166983181Y-85268145D01*
X166984420Y-85260322D01*
X166984423Y-85260312D01*
X166990099Y-85224476D01*
X166992505Y-85212856D01*
X167001528Y-85177711D01*
X167001528Y-85177710D01*
X167003500Y-85170030D01*
X167003500Y-85149776D01*
X167005051Y-85130065D01*
X167006980Y-85117886D01*
X167008220Y-85110057D01*
X167004059Y-85066038D01*
X167003500Y-85054181D01*
X167003500Y-83184500D01*
X167023502Y-83116379D01*
X167077158Y-83069886D01*
X167129500Y-83058500D01*
X167688134Y-83058500D01*
X167750316Y-83051745D01*
X167886705Y-83000615D01*
X168003261Y-82913261D01*
X168090615Y-82796705D01*
X168141745Y-82660316D01*
X168148500Y-82598134D01*
X168148500Y-79961866D01*
X168141745Y-79899684D01*
X168090615Y-79763295D01*
X168003261Y-79646739D01*
X167886705Y-79559385D01*
X167750316Y-79508255D01*
X167688134Y-79501500D01*
X165051866Y-79501500D01*
X164989684Y-79508255D01*
X164853295Y-79559385D01*
X164736739Y-79646739D01*
X164649385Y-79763295D01*
X164598255Y-79899684D01*
X164591500Y-79961866D01*
X164591500Y-82598134D01*
X164598255Y-82660316D01*
X164649385Y-82796705D01*
X164736739Y-82913261D01*
X164853295Y-83000615D01*
X164989684Y-83051745D01*
X165051866Y-83058500D01*
X165610500Y-83058500D01*
X165678621Y-83078502D01*
X165725114Y-83132158D01*
X165736500Y-83184500D01*
X165736500Y-84775406D01*
X165716498Y-84843527D01*
X165699595Y-84864501D01*
X161019500Y-89544595D01*
X160957188Y-89578621D01*
X160930405Y-89581500D01*
X158869600Y-89581500D01*
X158866354Y-89581837D01*
X158866350Y-89581837D01*
X158770693Y-89591762D01*
X158770689Y-89591763D01*
X158763835Y-89592474D01*
X158757299Y-89594655D01*
X158757297Y-89594655D01*
X158661544Y-89626601D01*
X158596055Y-89648450D01*
X158445652Y-89741522D01*
X158320695Y-89866697D01*
X158316855Y-89872927D01*
X158316854Y-89872928D01*
X158249903Y-89981543D01*
X158227885Y-90017262D01*
X158225581Y-90024209D01*
X158174820Y-90177250D01*
X158172203Y-90185139D01*
X158161500Y-90289600D01*
X158161500Y-91241390D01*
X158141498Y-91309511D01*
X158087842Y-91356004D01*
X158017568Y-91366108D01*
X157952988Y-91336614D01*
X157914604Y-91276888D01*
X157909815Y-91250289D01*
X157904974Y-91181915D01*
X157904659Y-91177466D01*
X157903580Y-91172452D01*
X157850201Y-90924523D01*
X157849264Y-90920171D01*
X157844365Y-90906890D01*
X157759710Y-90677424D01*
X157758169Y-90673247D01*
X157633191Y-90441622D01*
X157476824Y-90229918D01*
X157451599Y-90204293D01*
X157295318Y-90045539D01*
X157292187Y-90042358D01*
X157288647Y-90039657D01*
X157288641Y-90039651D01*
X157086506Y-89885386D01*
X157086502Y-89885383D01*
X157082965Y-89882684D01*
X156853332Y-89754084D01*
X156607870Y-89659122D01*
X156603545Y-89658119D01*
X156603540Y-89658118D01*
X156417989Y-89615110D01*
X156351476Y-89599693D01*
X156089267Y-89576983D01*
X156084832Y-89577227D01*
X156084828Y-89577227D01*
X155830916Y-89591200D01*
X155830909Y-89591201D01*
X155826473Y-89591445D01*
X155707501Y-89615110D01*
X155572711Y-89641921D01*
X155572706Y-89641922D01*
X155568339Y-89642791D01*
X155339954Y-89722994D01*
X155269054Y-89726692D01*
X155209111Y-89693206D01*
X149260405Y-83744500D01*
X149226379Y-83682188D01*
X149223500Y-83655405D01*
X149223500Y-83026616D01*
X149243502Y-82958495D01*
X149299762Y-82910848D01*
X149409229Y-82863817D01*
X149409231Y-82863816D01*
X149413523Y-82861972D01*
X149638307Y-82722871D01*
X149703460Y-82667715D01*
X149836496Y-82555093D01*
X149836498Y-82555091D01*
X149840063Y-82552073D01*
X150014356Y-82353329D01*
X150021284Y-82342559D01*
X150154831Y-82134936D01*
X150157359Y-82131006D01*
X150265930Y-81889988D01*
X150337683Y-81635570D01*
X150355861Y-81492680D01*
X150370645Y-81376471D01*
X150370645Y-81376465D01*
X150371043Y-81373340D01*
X150373487Y-81280000D01*
X150368714Y-81215774D01*
X150354243Y-81021036D01*
X150354242Y-81021032D01*
X150353897Y-81016384D01*
X150295557Y-80758559D01*
X150280028Y-80718626D01*
X150201442Y-80516542D01*
X150201441Y-80516540D01*
X150199749Y-80512189D01*
X150173535Y-80466323D01*
X150084460Y-80310475D01*
X150068578Y-80282687D01*
X149904925Y-80075094D01*
X149712385Y-79893970D01*
X149674622Y-79867773D01*
X149499026Y-79745958D01*
X149499021Y-79745955D01*
X149495188Y-79743296D01*
X149490997Y-79741229D01*
X149262294Y-79628445D01*
X149262291Y-79628444D01*
X149258106Y-79626380D01*
X149201150Y-79608148D01*
X149048814Y-79559385D01*
X149006347Y-79545791D01*
X148863825Y-79522580D01*
X148750053Y-79504051D01*
X148750052Y-79504051D01*
X148745441Y-79503300D01*
X148613281Y-79501570D01*
X148485798Y-79499901D01*
X148485795Y-79499901D01*
X148481121Y-79499840D01*
X148219192Y-79535486D01*
X148214702Y-79536795D01*
X148214696Y-79536796D01*
X148118720Y-79564771D01*
X147965410Y-79609457D01*
X147961163Y-79611415D01*
X147961160Y-79611416D01*
X147896211Y-79641358D01*
X147725348Y-79720127D01*
X147721439Y-79722690D01*
X147508195Y-79862499D01*
X147508190Y-79862503D01*
X147504282Y-79865065D01*
X147307067Y-80041086D01*
X147138036Y-80244324D01*
X147000901Y-80470314D01*
X146999095Y-80474622D01*
X146999094Y-80474623D01*
X146964442Y-80557260D01*
X146898677Y-80714091D01*
X146897526Y-80718623D01*
X146897525Y-80718626D01*
X146886434Y-80762296D01*
X146833608Y-80970301D01*
X146807124Y-81233314D01*
X145288000Y-81233314D01*
X145288000Y-42063442D01*
X147531303Y-42063442D01*
X147540017Y-42074962D01*
X147641394Y-42149296D01*
X147649293Y-42154232D01*
X147874901Y-42272930D01*
X147883450Y-42276647D01*
X148124113Y-42360690D01*
X148133122Y-42363104D01*
X148383572Y-42410654D01*
X148392827Y-42411708D01*
X148647557Y-42421717D01*
X148656871Y-42421391D01*
X148910270Y-42393640D01*
X148919447Y-42391939D01*
X149165960Y-42327037D01*
X149174780Y-42324000D01*
X149408997Y-42223373D01*
X149417269Y-42219066D01*
X149634036Y-42084927D01*
X149641579Y-42079447D01*
X149643272Y-42078014D01*
X149651710Y-42065211D01*
X149645645Y-42054855D01*
X148602812Y-41012022D01*
X148588868Y-41004408D01*
X148587035Y-41004539D01*
X148580420Y-41008790D01*
X147537961Y-42051249D01*
X147531303Y-42063442D01*
X145288000Y-42063442D01*
X145288000Y-40597999D01*
X146807849Y-40597999D01*
X146820080Y-40852619D01*
X146821217Y-40861879D01*
X146870947Y-41111894D01*
X146873441Y-41120887D01*
X146959578Y-41360797D01*
X146963378Y-41369332D01*
X147084031Y-41593877D01*
X147089045Y-41601748D01*
X147155154Y-41690279D01*
X147166414Y-41698729D01*
X147178832Y-41691958D01*
X148217978Y-40652812D01*
X148224356Y-40641132D01*
X148954408Y-40641132D01*
X148954539Y-40642965D01*
X148958790Y-40649580D01*
X150004386Y-41695176D01*
X150016766Y-41701936D01*
X150025107Y-41695692D01*
X150154391Y-41494697D01*
X150158838Y-41486506D01*
X150263536Y-41254085D01*
X150266731Y-41245307D01*
X150335923Y-40999968D01*
X150337781Y-40990839D01*
X150370144Y-40736444D01*
X150370625Y-40730158D01*
X150372903Y-40643160D01*
X150372752Y-40636851D01*
X150353747Y-40381110D01*
X150352370Y-40371904D01*
X150296109Y-40123262D01*
X150293385Y-40114351D01*
X150200990Y-39876758D01*
X150196979Y-39868349D01*
X150070482Y-39647027D01*
X150065269Y-39639298D01*
X150025633Y-39589019D01*
X150013709Y-39580549D01*
X150002174Y-39587036D01*
X148962022Y-40627188D01*
X148954408Y-40641132D01*
X148224356Y-40641132D01*
X148225592Y-40638868D01*
X148225461Y-40637035D01*
X148221210Y-40630420D01*
X147177119Y-39586329D01*
X147163811Y-39579062D01*
X147153772Y-39586184D01*
X147141433Y-39601020D01*
X147136018Y-39608612D01*
X147003776Y-39826540D01*
X146999538Y-39834857D01*
X146900961Y-40069935D01*
X146898000Y-40078785D01*
X146835255Y-40325849D01*
X146833633Y-40335046D01*
X146808094Y-40588673D01*
X146807849Y-40597999D01*
X145288000Y-40597999D01*
X145288000Y-39214357D01*
X147528770Y-39214357D01*
X147533343Y-39224133D01*
X148577188Y-40267978D01*
X148591132Y-40275592D01*
X148592965Y-40275461D01*
X148599580Y-40271210D01*
X149642790Y-39228000D01*
X149649174Y-39216310D01*
X149639762Y-39204199D01*
X149498776Y-39106392D01*
X149490741Y-39101659D01*
X149262106Y-38988909D01*
X149253473Y-38985421D01*
X149010675Y-38907701D01*
X149001624Y-38905528D01*
X148750009Y-38864550D01*
X148740720Y-38863738D01*
X148485828Y-38860401D01*
X148476517Y-38860971D01*
X148223927Y-38895347D01*
X148214808Y-38897285D01*
X147970084Y-38968616D01*
X147961331Y-38971888D01*
X147729837Y-39078608D01*
X147721682Y-39083128D01*
X147537907Y-39203616D01*
X147528770Y-39214357D01*
X145288000Y-39214357D01*
X145288000Y-33654000D01*
X145308002Y-33585879D01*
X145361658Y-33539386D01*
X145414000Y-33528000D01*
X215266000Y-33528000D01*
X215334121Y-33548002D01*
G37*
%TD.AperFunction*%
%TD*%
M02*
