M48
; DRILL file {KiCad (6.0.2)} date Wed Apr 27 16:44:15 2022
; FORMAT={-:-/ absolute / inch / decimal}
; #@! TF.CreationDate,2022-04-27T16:44:15+02:00
; #@! TF.GenerationSoftware,Kicad,Pcbnew,(6.0.2)
; #@! TF.FileFunction,Plated,1,2,PTH
FMAT,2
INCH
; #@! TA.AperFunction,Plated,PTH,ComponentDrill
T1C0.0295
; #@! TA.AperFunction,Plated,PTH,ComponentDrill
T2C0.0315
; #@! TA.AperFunction,Plated,PTH,ComponentDrill
T3C0.0374
; #@! TA.AperFunction,Plated,PTH,ComponentDrill
T4C0.0394
; #@! TA.AperFunction,Plated,PTH,ComponentDrill
T5C0.0402
; #@! TA.AperFunction,Plated,PTH,ComponentDrill
T6C0.0669
%
G90
G05
T1
X6.8Y-3.5
X6.8Y-3.55
X6.8Y-3.6
X8.3Y-3.4
X8.3Y-3.45
X8.3Y-3.5
T2
X6.9Y-3.8
X7.2Y-3.6
X7.5Y-3.8
X7.7Y-3.8
X7.8Y-3.6
X8.0Y-3.0
X8.0Y-3.6
X8.1Y-1.5
X8.1Y-2.1
X8.3Y-3.8
T3
X6.9Y-2.1031
X6.9Y-2.2016
X6.9Y-2.3
X6.9Y-2.6
X6.9Y-2.6984
X6.9Y-2.7969
X8.2Y-2.7047
X8.2Y-2.8031
X8.2Y-2.9016
X8.2Y-3.0
T4
X5.85Y-1.6
X5.85Y-3.2
X6.55Y-1.6
X6.55Y-3.2
X6.8Y-3.1016
X6.8Y-3.2
X8.2Y-2.3
X8.2Y-2.3984
X8.38Y-1.81
X8.38Y-1.9084
T5
X7.2Y-1.7616
X7.2Y-1.8616
X7.2Y-1.9616
X7.2Y-2.0616
X7.2Y-2.1616
X7.2Y-2.2616
X7.2Y-2.3616
X7.2Y-2.4616
X7.2Y-2.5616
X7.2Y-2.6616
X7.2Y-2.7616
X7.2Y-2.8616
X7.2Y-2.9616
X7.2Y-3.0616
X7.2Y-3.1616
X7.8Y-1.7616
X7.8Y-1.8616
X7.8Y-1.9616
X7.8Y-2.0616
X7.8Y-2.1616
X7.8Y-2.2616
X7.8Y-2.3616
X7.8Y-2.4616
X7.8Y-2.5616
X7.8Y-2.6616
X7.8Y-2.7616
X7.8Y-2.8616
X7.8Y-2.9616
X7.8Y-3.0616
X7.8Y-3.1616
T6
X6.1441Y-3.6
X6.3Y-3.6
T0
M30
