%TF.GenerationSoftware,KiCad,Pcbnew,(6.0.2)*%
%TF.CreationDate,2022-04-27T16:44:08+02:00*%
%TF.ProjectId,Varte vitrine,56617274-6520-4766-9974-72696e652e6b,rev?*%
%TF.SameCoordinates,Original*%
%TF.FileFunction,Soldermask,Top*%
%TF.FilePolarity,Negative*%
%FSLAX46Y46*%
G04 Gerber Fmt 4.6, Leading zero omitted, Abs format (unit mm)*
G04 Created by KiCad (PCBNEW (6.0.2)) date 2022-04-27 16:44:08*
%MOMM*%
%LPD*%
G01*
G04 APERTURE LIST*
G04 Aperture macros list*
%AMRoundRect*
0 Rectangle with rounded corners*
0 $1 Rounding radius*
0 $2 $3 $4 $5 $6 $7 $8 $9 X,Y pos of 4 corners*
0 Add a 4 corners polygon primitive as box body*
4,1,4,$2,$3,$4,$5,$6,$7,$8,$9,$2,$3,0*
0 Add four circle primitives for the rounded corners*
1,1,$1+$1,$2,$3*
1,1,$1+$1,$4,$5*
1,1,$1+$1,$6,$7*
1,1,$1+$1,$8,$9*
0 Add four rect primitives between the rounded corners*
20,1,$1+$1,$2,$3,$4,$5,0*
20,1,$1+$1,$4,$5,$6,$7,0*
20,1,$1+$1,$6,$7,$8,$9,0*
20,1,$1+$1,$8,$9,$2,$3,0*%
G04 Aperture macros list end*
%ADD10RoundRect,0.250000X-0.725000X0.600000X-0.725000X-0.600000X0.725000X-0.600000X0.725000X0.600000X0*%
%ADD11O,1.950000X1.700000*%
%ADD12RoundRect,0.250000X-0.750000X0.600000X-0.750000X-0.600000X0.750000X-0.600000X0.750000X0.600000X0*%
%ADD13O,2.000000X1.700000*%
%ADD14RoundRect,0.250000X0.725000X-0.600000X0.725000X0.600000X-0.725000X0.600000X-0.725000X-0.600000X0*%
%ADD15C,1.600000*%
%ADD16O,1.600000X1.600000*%
%ADD17R,1.530000X1.530000*%
%ADD18C,1.530000*%
%ADD19R,2.540000X2.540000*%
%ADD20C,2.540000*%
%ADD21RoundRect,0.250000X0.750000X-0.600000X0.750000X0.600000X-0.750000X0.600000X-0.750000X-0.600000X0*%
%ADD22R,1.500000X1.050000*%
%ADD23O,1.500000X1.050000*%
%ADD24RoundRect,0.250001X1.099999X1.099999X-1.099999X1.099999X-1.099999X-1.099999X1.099999X-1.099999X0*%
%ADD25C,2.700000*%
G04 APERTURE END LIST*
D10*
%TO.C,J7*%
X175260000Y-66040000D03*
D11*
X175260000Y-68540000D03*
X175260000Y-71040000D03*
%TD*%
D12*
%TO.C,J6*%
X208280000Y-58420000D03*
D13*
X208280000Y-60920000D03*
%TD*%
D14*
%TO.C,J5*%
X208280000Y-76200000D03*
D11*
X208280000Y-73700000D03*
X208280000Y-71200000D03*
X208280000Y-68700000D03*
%TD*%
D15*
%TO.C,R1*%
X182880000Y-91440000D03*
D16*
X198120000Y-91440000D03*
%TD*%
D15*
%TO.C,R5*%
X205740000Y-53340000D03*
D16*
X205740000Y-38100000D03*
%TD*%
D17*
%TO.C,U1*%
X198120000Y-44745000D03*
D18*
X198120000Y-47285000D03*
X198120000Y-49825000D03*
X198120000Y-52365000D03*
X198120000Y-54905000D03*
X198120000Y-57445000D03*
X198120000Y-59985000D03*
X198120000Y-62525000D03*
X198120000Y-65065000D03*
X198120000Y-67605000D03*
X198120000Y-70145000D03*
X198120000Y-72685000D03*
X198120000Y-75225000D03*
X198120000Y-77765000D03*
X198120000Y-80305000D03*
D17*
X182880000Y-44745000D03*
D18*
X182880000Y-47285000D03*
X182880000Y-49825000D03*
X182880000Y-52365000D03*
X182880000Y-54905000D03*
X182880000Y-57445000D03*
X182880000Y-59985000D03*
X182880000Y-62525000D03*
X182880000Y-65065000D03*
X182880000Y-67605000D03*
X182880000Y-70145000D03*
X182880000Y-72685000D03*
X182880000Y-75225000D03*
X182880000Y-77765000D03*
X182880000Y-80305000D03*
%TD*%
D19*
%TO.C,U2*%
X166370000Y-81280000D03*
D20*
X148590000Y-81280000D03*
X148590000Y-40640000D03*
X166370000Y-40640000D03*
%TD*%
D14*
%TO.C,J4*%
X175260000Y-58420000D03*
D11*
X175260000Y-55920000D03*
X175260000Y-53420000D03*
%TD*%
D15*
%TO.C,R4*%
X175260000Y-96520000D03*
D16*
X190500000Y-96520000D03*
%TD*%
D21*
%TO.C,J3*%
X212852000Y-48474000D03*
D13*
X212852000Y-45974000D03*
%TD*%
D22*
%TO.C,Q2*%
X210820000Y-86360000D03*
D23*
X210820000Y-87630000D03*
X210820000Y-88900000D03*
%TD*%
D22*
%TO.C,Q1*%
X172720000Y-91440000D03*
D23*
X172720000Y-90170000D03*
X172720000Y-88900000D03*
%TD*%
D12*
%TO.C,J2*%
X172720000Y-78780000D03*
D13*
X172720000Y-81280000D03*
%TD*%
D15*
%TO.C,R2*%
X203200000Y-76200000D03*
D16*
X203200000Y-91440000D03*
%TD*%
D24*
%TO.C,J1*%
X160020000Y-91440000D03*
D25*
X156060000Y-91440000D03*
%TD*%
D15*
%TO.C,R3*%
X195580000Y-96520000D03*
D16*
X210820000Y-96520000D03*
%TD*%
M02*
